SebastianText.ufo
<glyph name="exclam" format="2">
  <advance width="136"/>
  <unicode hex="0021"/>
  <outline>
    <contour>
      <point x="-136" y="114" type="line"/>
      <point x="136" y="194" type="line"/>
      <point x="136" y="286" type="line"/>
      <point x="-136" y="206" type="line"/>
    </contour>
  </outline>
</glyph>
<glyph name="quotedbl" format="2">
  <advance width="358"/>
  <unicode hex="0022"/>
  <outline>
    <contour>
      <point x="154" y="0" type="line"/>
      <point x="358" y="410" type="line"/>
      <point x="326" y="410" type="line"/>
      <point x="121" y="0" type="line"/>
    </contour>
    <contour>
      <point x="32" y="0" type="line"/>
      <point x="238" y="410" type="line"/>
      <point x="206" y="410" type="line"/>
      <point x="0" y="0" type="line"/>
    </contour>
  </outline>
</glyph>
<glyph name="ampersand" format="2">
  <advance width="522"/>
  <unicode hex="0026"/>
  <outline>
    <contour>
      <point x="265" y="339" type="line"/>
      <point x="365" y="426"/>
      <point x="427" y="544"/>
      <point x="427" y="678" type="curve" smooth="yes"/>
      <point x="427" y="741"/>
      <point x="388" y="888"/>
      <point x="335" y="925" type="curve"/>
      <point x="334" y="926"/>
      <point x="330" y="926"/>
      <point x="329" y="927" type="curve"/>
      <point x="310" y="921"/>
      <point x="289" y="895"/>
      <point x="277" y="879" type="curve"/>
      <point x="219" y="808"/>
      <point x="181" y="718"/>
      <point x="181" y="626" type="curve" smooth="yes"/>
      <point x="181" y="559"/>
      <point x="198" y="494"/>
      <point x="214" y="430" type="curve"/>
      <point x="110" y="325"/>
      <point x="0" y="217"/>
      <point x="0" y="58" type="curve" smooth="yes"/>
      <point x="0" y="-94"/>
      <point x="126" y="-195"/>
      <point x="272" y="-195" type="curve" smooth="yes"/>
      <point x="294" y="-195"/>
      <point x="314" y="-190"/>
      <point x="336" y="-190" type="curve" smooth="yes"/>
      <point x="340" y="-190"/>
      <point x="346" y="-193"/>
      <point x="348" y="-197" type="curve"/>
      <point x="361" y="-236"/>
      <point x="379" y="-314"/>
      <point x="380" y="-355" type="curve" smooth="yes"/>
      <point x="382" y="-434"/>
      <point x="331" y="-502"/>
      <point x="251" y="-502" type="curve" smooth="yes"/>
      <point x="235" y="-502"/>
      <point x="219" y="-499"/>
      <point x="205" y="-492" type="curve"/>
      <point x="202" y="-486" type="line"/>
      <point x="202" y="-483" type="line"/>
      <point x="242" y="-474"/>
      <point x="271" y="-436"/>
      <point x="271" y="-395" type="curve" smooth="yes"/>
      <point x="271" y="-346"/>
      <point x="230" y="-306"/>
      <point x="181" y="-306" type="curve" smooth="yes"/>
      <point x="130" y="-306"/>
      <point x="91" y="-350"/>
      <point x="91" y="-400" type="curve" smooth="yes"/>
      <point x="91" y="-486"/>
      <point x="183" y="-535"/>
      <point x="260" y="-535" type="curve" smooth="yes"/>
      <point x="354" y="-535"/>
      <point x="417" y="-446"/>
      <point x="412" y="-357" type="curve" smooth="yes"/>
      <point x="410" y="-315"/>
      <point x="397" y="-269"/>
      <point x="387" y="-228" type="curve" smooth="yes"/>
      <point x="384" y="-215"/>
      <point x="378" y="-202"/>
      <point x="378" y="-188" type="curve" smooth="yes"/>
      <point x="378" y="-182"/>
      <point x="382" y="-177"/>
      <point x="386" y="-174" type="curve"/>
      <point x="402" y="-166"/>
      <point x="418" y="-159"/>
      <point x="433" y="-150" type="curve"/>
      <point x="487" y="-114"/>
      <point x="522" y="-54"/>
      <point x="522" y="12" type="curve" smooth="yes"/>
      <point x="522" y="128"/>
      <point x="426" y="210"/>
      <point x="314" y="210" type="curve" smooth="yes"/>
      <point x="306" y="210"/>
      <point x="300" y="210"/>
      <point x="294" y="210" type="curve"/>
    </contour>
    <contour>
      <point x="254" y="469" type="curve"/>
      <point x="252" y="468"/>
      <point x="247" y="466"/>
      <point x="246" y="466" type="curve"/>
      <point x="243" y="466"/>
      <point x="239" y="468"/>
      <point x="237" y="470" type="curve"/>
      <point x="230" y="506"/>
      <point x="223" y="542"/>
      <point x="223" y="578" type="curve" smooth="yes"/>
      <point x="223" y="654"/>
      <point x="266" y="809"/>
      <point x="362" y="809" type="curve" smooth="yes"/>
      <point x="390" y="809"/>
      <point x="392" y="734"/>
      <point x="392" y="714" type="curve" smooth="yes"/>
      <point x="392" y="614"/>
      <point x="320" y="534"/>
    </contour>
    <contour>
      <point x="228" y="303" type="curve"/>
      <point x="229" y="303"/>
      <point x="230" y="304"/>
      <point x="231" y="304" type="curve"/>
      <point x="248" y="304"/>
      <point x="257" y="223"/>
      <point x="262" y="203" type="curve"/>
      <point x="192" y="182"/>
      <point x="138" y="116"/>
      <point x="138" y="42" type="curve" smooth="yes"/>
      <point x="138" y="-14"/>
      <point x="170" y="-73"/>
      <point x="222" y="-92" type="curve" smooth="yes"/>
      <point x="224" y="-93"/>
      <point x="228" y="-94"/>
      <point x="230" y="-94" type="curve" smooth="yes"/>
      <point x="233" y="-94"/>
      <point x="235" y="-92"/>
      <point x="235" y="-88" type="curve" smooth="yes"/>
      <point x="235" y="-82"/>
      <point x="194" y="-33"/>
      <point x="194" y="14" type="curve" smooth="yes"/>
      <point x="194" y="54"/>
      <point x="236" y="102"/>
      <point x="273" y="102" type="curve" smooth="yes"/>
      <point x="277" y="102"/>
      <point x="284" y="99"/>
      <point x="285" y="95" type="curve" smooth="yes"/>
      <point x="337" y="-146" type="line" smooth="yes"/>
      <point x="341" y="-165"/>
      <point x="287" y="-165"/>
      <point x="277" y="-165" type="curve" smooth="yes"/>
      <point x="156" y="-165"/>
      <point x="58" y="-98"/>
      <point x="58" y="30" type="curve" smooth="yes"/>
      <point x="58" y="153"/>
      <point x="146" y="226"/>
    </contour>
    <contour>
      <point x="460" y="-14" type="curve" smooth="yes"/>
      <point x="460" y="-72"/>
      <point x="432" y="-120"/>
      <point x="378" y="-144" type="curve"/>
      <point x="378" y="-144" type="line"/>
      <point x="375" y="-143"/>
      <point x="368" y="-140"/>
      <point x="367" y="-138" type="curve"/>
      <point x="318" y="94" type="line" smooth="yes"/>
      <point x="317" y="101"/>
      <point x="328" y="109"/>
      <point x="333" y="109" type="curve" smooth="yes"/>
      <point x="408" y="109"/>
      <point x="460" y="62"/>
    </contour>
  </outline>
</glyph>
<glyph name="quotesingle" format="2">
  <advance width="88"/>
  <unicode hex="0027"/>
  <outline>
    <contour>
      <point x="44" y="1" type="curve" smooth="yes"/>
      <point x="62" y="1"/>
      <point x="88" y="13"/>
      <point x="88" y="55" type="curve" smooth="yes"/>
      <point x="88" y="75"/>
      <point x="79" y="124"/>
      <point x="55" y="195" type="curve" smooth="yes"/>
      <point x="49" y="214"/>
      <point x="46" y="219"/>
      <point x="44" y="219" type="curve" smooth="yes"/>
      <point x="42" y="219"/>
      <point x="39" y="213"/>
      <point x="34" y="196" type="curve" smooth="yes"/>
      <point x="11" y="124"/>
      <point x="0" y="74"/>
      <point x="0" y="55" type="curve" smooth="yes"/>
      <point x="0" y="12"/>
      <point x="25" y="1"/>
    </contour>
  </outline>
</glyph>
<glyph name="asterisk" format="2">
  <advance width="352"/>
  <unicode hex="002A"/>
  <outline>
    <contour>
      <point x="310" y="57" type="curve" smooth="yes"/>
      <point x="310" y="65"/>
      <point x="306" y="73"/>
      <point x="300" y="79" type="curve" smooth="yes"/>
      <point x="284" y="95"/>
      <point x="266" y="86"/>
      <point x="250" y="102" type="curve" smooth="yes"/>
      <point x="239" y="113" type="line" smooth="yes"/>
      <point x="234" y="118"/>
      <point x="231" y="124"/>
      <point x="231" y="129" type="curve" smooth="yes"/>
      <point x="231" y="138"/>
      <point x="239" y="146"/>
      <point x="253" y="146" type="curve" smooth="yes"/>
      <point x="269" y="146" type="line" smooth="yes"/>
      <point x="293" y="146"/>
      <point x="296" y="126"/>
      <point x="320" y="126" type="curve" smooth="yes"/>
      <point x="338" y="126"/>
      <point x="352" y="140"/>
      <point x="352" y="158" type="curve" smooth="yes"/>
      <point x="352" y="177"/>
      <point x="338" y="190"/>
      <point x="320" y="190" type="curve" smooth="yes"/>
      <point x="298" y="190"/>
      <point x="292" y="171"/>
      <point x="270" y="171" type="curve" smooth="yes"/>
      <point x="252" y="171" type="line" smooth="yes"/>
      <point x="238" y="171"/>
      <point x="232" y="179"/>
      <point x="232" y="188" type="curve" smooth="yes"/>
      <point x="232" y="194"/>
      <point x="234" y="199"/>
      <point x="239" y="204" type="curve" smooth="yes"/>
      <point x="248" y="213" type="line" smooth="yes"/>
      <point x="264" y="229"/>
      <point x="310" y="223"/>
      <point x="310" y="260" type="curve" smooth="yes"/>
      <point x="310" y="277"/>
      <point x="294" y="292"/>
      <point x="278" y="292" type="curve" smooth="yes"/>
      <point x="270" y="292"/>
      <point x="262" y="289"/>
      <point x="255" y="282" type="curve" smooth="yes"/>
      <point x="240" y="267"/>
      <point x="247" y="247"/>
      <point x="231" y="231" type="curve" smooth="yes"/>
      <point x="221" y="221" type="line" smooth="yes"/>
      <point x="215" y="215"/>
      <point x="210" y="212"/>
      <point x="204" y="212" type="curve" smooth="yes"/>
      <point x="195" y="212"/>
      <point x="188" y="222"/>
      <point x="188" y="238" type="curve" smooth="yes"/>
      <point x="188" y="253" type="line" smooth="yes"/>
      <point x="188" y="274"/>
      <point x="208" y="278"/>
      <point x="208" y="302" type="curve" smooth="yes"/>
      <point x="208" y="320"/>
      <point x="194" y="334"/>
      <point x="176" y="334" type="curve" smooth="yes"/>
      <point x="158" y="334"/>
      <point x="144" y="320"/>
      <point x="144" y="302" type="curve" smooth="yes"/>
      <point x="144" y="281"/>
      <point x="164" y="272"/>
      <point x="164" y="253" type="curve" smooth="yes"/>
      <point x="164" y="238" type="line" smooth="yes"/>
      <point x="164" y="219"/>
      <point x="158" y="211"/>
      <point x="150" y="211" type="curve" smooth="yes"/>
      <point x="144" y="211"/>
      <point x="138" y="214"/>
      <point x="131" y="221" type="curve" smooth="yes"/>
      <point x="120" y="232" type="line" smooth="yes"/>
      <point x="103" y="249"/>
      <point x="111" y="268"/>
      <point x="97" y="282" type="curve" smooth="yes"/>
      <point x="90" y="289"/>
      <point x="82" y="292"/>
      <point x="74" y="292" type="curve" smooth="yes"/>
      <point x="58" y="292"/>
      <point x="42" y="277"/>
      <point x="42" y="260" type="curve" smooth="yes"/>
      <point x="42" y="252"/>
      <point x="46" y="244"/>
      <point x="52" y="238" type="curve" smooth="yes"/>
      <point x="67" y="222"/>
      <point x="86" y="231"/>
      <point x="102" y="214" type="curve"/>
      <point x="113" y="204" type="line" smooth="yes"/>
      <point x="118" y="199"/>
      <point x="121" y="192"/>
      <point x="121" y="186" type="curve" smooth="yes"/>
      <point x="121" y="178"/>
      <point x="115" y="171"/>
      <point x="100" y="171" type="curve" smooth="yes"/>
      <point x="82" y="171" type="line" smooth="yes"/>
      <point x="61" y="171"/>
      <point x="54" y="190"/>
      <point x="32" y="190" type="curve" smooth="yes"/>
      <point x="14" y="190"/>
      <point x="0" y="177"/>
      <point x="0" y="158" type="curve" smooth="yes"/>
      <point x="0" y="140"/>
      <point x="14" y="126"/>
      <point x="32" y="126" type="curve" smooth="yes"/>
      <point x="56" y="126"/>
      <point x="58" y="146"/>
      <point x="83" y="146" type="curve" smooth="yes"/>
      <point x="99" y="146" type="line" smooth="yes"/>
      <point x="114" y="146"/>
      <point x="122" y="139"/>
      <point x="122" y="130" type="curve" smooth="yes"/>
      <point x="122" y="125"/>
      <point x="118" y="118"/>
      <point x="113" y="113" type="curve" smooth="yes"/>
      <point x="102" y="102" type="line" smooth="yes"/>
      <point x="87" y="87"/>
      <point x="42" y="94"/>
      <point x="42" y="57" type="curve" smooth="yes"/>
      <point x="42" y="40"/>
      <point x="58" y="25"/>
      <point x="74" y="25" type="curve" smooth="yes"/>
      <point x="82" y="25"/>
      <point x="90" y="28"/>
      <point x="97" y="34" type="curve" smooth="yes"/>
      <point x="114" y="51"/>
      <point x="106" y="70"/>
      <point x="121" y="86" type="curve"/>
      <point x="131" y="96" type="line" smooth="yes"/>
      <point x="137" y="102"/>
      <point x="143" y="105"/>
      <point x="150" y="105" type="curve" smooth="yes"/>
      <point x="158" y="105"/>
      <point x="164" y="98"/>
      <point x="164" y="82" type="curve" smooth="yes"/>
      <point x="164" y="66" type="line" smooth="yes"/>
      <point x="164" y="43"/>
      <point x="144" y="37"/>
      <point x="144" y="14" type="curve" smooth="yes"/>
      <point x="144" y="-3"/>
      <point x="158" y="-18"/>
      <point x="176" y="-18" type="curve" smooth="yes"/>
      <point x="194" y="-18"/>
      <point x="208" y="-3"/>
      <point x="208" y="14" type="curve" smooth="yes"/>
      <point x="208" y="37"/>
      <point x="188" y="43"/>
      <point x="188" y="66" type="curve" smooth="yes"/>
      <point x="188" y="82" type="line" smooth="yes"/>
      <point x="188" y="95"/>
      <point x="196" y="103"/>
      <point x="205" y="103" type="curve" smooth="yes"/>
      <point x="210" y="103"/>
      <point x="216" y="102"/>
      <point x="221" y="96" type="curve" smooth="yes"/>
      <point x="230" y="86" type="line"/>
      <point x="249" y="68"/>
      <point x="238" y="51"/>
      <point x="255" y="34" type="curve" smooth="yes"/>
      <point x="262" y="28"/>
      <point x="270" y="25"/>
      <point x="278" y="25" type="curve" smooth="yes"/>
      <point x="294" y="25"/>
      <point x="310" y="40"/>
    </contour>
    <contour>
      <point x="176" y="194" type="curve" smooth="yes"/>
      <point x="195" y="194"/>
      <point x="211" y="177"/>
      <point x="211" y="158" type="curve" smooth="yes"/>
      <point x="211" y="140"/>
      <point x="195" y="123"/>
      <point x="176" y="123" type="curve" smooth="yes"/>
      <point x="158" y="123"/>
      <point x="141" y="140"/>
      <point x="141" y="158" type="curve" smooth="yes"/>
      <point x="141" y="177"/>
      <point x="158" y="194"/>
    </contour>
  </outline>
</glyph>
<glyph name="plus" format="2">
  <advance width="258"/>
  <unicode hex="002B"/>
  <outline>
    <contour>
      <point x="128" y="330" type="curve" smooth="yes"/>
      <point x="110" y="330"/>
      <point x="103" y="321"/>
      <point x="103" y="297" type="curve" smooth="yes"/>
      <point x="103" y="292"/>
      <point x="103" y="287"/>
      <point x="103" y="283" type="curve" smooth="yes"/>
      <point x="103" y="259" type="line"/>
      <point x="104" y="255"/>
      <point x="104" y="250"/>
      <point x="104" y="246" type="curve" smooth="yes"/>
      <point x="104" y="231"/>
      <point x="98" y="226"/>
      <point x="79" y="226" type="curve" smooth="yes"/>
      <point x="60" y="226"/>
      <point x="56" y="227"/>
      <point x="32" y="228" type="curve"/>
      <point x="24" y="228" type="line" smooth="yes"/>
      <point x="5" y="228"/>
      <point x="1" y="222"/>
      <point x="1" y="200" type="curve" smooth="yes"/>
      <point x="1" y="180"/>
      <point x="4" y="174"/>
      <point x="19" y="174" type="curve" smooth="yes"/>
      <point x="26" y="174" type="line"/>
      <point x="48" y="175"/>
      <point x="62" y="176"/>
      <point x="74" y="176" type="curve" smooth="yes"/>
      <point x="99" y="176"/>
      <point x="104" y="172"/>
      <point x="104" y="151" type="curve" smooth="yes"/>
      <point x="104" y="131"/>
      <point x="103" y="126"/>
      <point x="103" y="102" type="curve" smooth="yes"/>
      <point x="103" y="97"/>
      <point x="102" y="93"/>
      <point x="102" y="89" type="curve" smooth="yes"/>
      <point x="102" y="76"/>
      <point x="109" y="73"/>
      <point x="130" y="73" type="curve" smooth="yes"/>
      <point x="150" y="73"/>
      <point x="156" y="78"/>
      <point x="156" y="94" type="curve" smooth="yes"/>
      <point x="156" y="131"/>
      <point x="154" y="124"/>
      <point x="154" y="154" type="curve" smooth="yes"/>
      <point x="154" y="171"/>
      <point x="158" y="176"/>
      <point x="177" y="176" type="curve" smooth="yes"/>
      <point x="202" y="176"/>
      <point x="207" y="174"/>
      <point x="236" y="174" type="curve" smooth="yes"/>
      <point x="240" y="174"/>
      <point x="244" y="174"/>
      <point x="247" y="174" type="curve" smooth="yes"/>
      <point x="250" y="174"/>
      <point x="251" y="175"/>
      <point x="252" y="178" type="curve"/>
      <point x="256" y="182"/>
      <point x="258" y="188"/>
      <point x="258" y="202" type="curve" smooth="yes"/>
      <point x="258" y="220"/>
      <point x="254" y="228"/>
      <point x="244" y="228" type="curve" smooth="yes"/>
      <point x="202" y="228"/>
      <point x="214" y="226"/>
      <point x="181" y="226" type="curve" smooth="yes"/>
      <point x="163" y="226"/>
      <point x="154" y="232"/>
      <point x="154" y="243" type="curve" smooth="yes"/>
      <point x="154" y="265"/>
      <point x="156" y="266"/>
      <point x="156" y="290" type="curve" smooth="yes"/>
      <point x="156" y="295"/>
      <point x="156" y="300"/>
      <point x="156" y="305" type="curve" smooth="yes"/>
      <point x="156" y="322"/>
      <point x="148" y="330"/>
    </contour>
  </outline>
</glyph>
<glyph name="comma" format="2">
  <advance width="171"/>
  <unicode hex="002C"/>
  <outline>
    <contour>
      <point x="16" y="67" type="line"/>
      <point x="91" y="106"/>
      <point x="171" y="168"/>
      <point x="171" y="286" type="curve" smooth="yes"/>
      <point x="171" y="350"/>
      <point x="138" y="402"/>
      <point x="74" y="402" type="curve" smooth="yes"/>
      <point x="34" y="402"/>
      <point x="0" y="370"/>
      <point x="0" y="330" type="curve" smooth="yes"/>
      <point x="0" y="274"/>
      <point x="46" y="258"/>
      <point x="70" y="258" type="curve" smooth="yes"/>
      <point x="95" y="258"/>
      <point x="99" y="262"/>
      <point x="112" y="262" type="curve" smooth="yes"/>
      <point x="123" y="262"/>
      <point x="128" y="255"/>
      <point x="128" y="245" type="curve" smooth="yes"/>
      <point x="128" y="190"/>
      <point x="83" y="136"/>
      <point x="5" y="90" type="curve"/>
    </contour>
  </outline>
</glyph>
<glyph name="period" format="2">
  <advance width="99"/>
  <unicode hex="002E"/>
  <outline>
    <contour>
      <point x="0" y="200" type="curve" smooth="yes"/>
      <point x="0" y="172"/>
      <point x="22" y="151"/>
      <point x="50" y="151" type="curve" smooth="yes"/>
      <point x="76" y="151"/>
      <point x="99" y="172"/>
      <point x="99" y="200" type="curve" smooth="yes"/>
      <point x="99" y="227"/>
      <point x="76" y="249"/>
      <point x="50" y="249" type="curve" smooth="yes"/>
      <point x="22" y="249"/>
      <point x="0" y="227"/>
    </contour>
  </outline>
</glyph>
<glyph name="slash" format="2">
  <advance width="134"/>
  <unicode hex="002F"/>
  <outline>
    <contour>
      <point x="110" y="70" type="line"/>
      <point x="134" y="70" type="line"/>
      <point x="134" y="736" type="line"/>
      <point x="110" y="736" type="line"/>
    </contour>
    <contour>
      <point x="0" y="70" type="line"/>
      <point x="24" y="70" type="line"/>
      <point x="24" y="736" type="line"/>
      <point x="0" y="736" type="line"/>
    </contour>
  </outline>
</glyph>
<glyph name="two" format="2">
  <advance width="413"/>
  <unicode hex="0032"/>
  <outline>
    <contour>
      <point x="211" y="500" type="curve" smooth="yes"/>
      <point x="101" y="500"/>
      <point x="33" y="431"/>
      <point x="33" y="364" type="curve" smooth="yes"/>
      <point x="33" y="316"/>
      <point x="66" y="289"/>
      <point x="105" y="289" type="curve" smooth="yes"/>
      <point x="141" y="289"/>
      <point x="170" y="318"/>
      <point x="170" y="354" type="curve" smooth="yes"/>
      <point x="170" y="384"/>
      <point x="146" y="418"/>
      <point x="105" y="418" type="curve" smooth="yes"/>
      <point x="100" y="418"/>
      <point x="95" y="418"/>
      <point x="90" y="416" type="curve"/>
      <point x="110" y="443"/>
      <point x="150" y="463"/>
      <point x="186" y="463" type="curve" smooth="yes"/>
      <point x="233" y="463"/>
      <point x="274" y="435"/>
      <point x="274" y="376" type="curve" smooth="yes"/>
      <point x="274" y="326"/>
      <point x="245" y="265"/>
      <point x="153" y="203" type="curve" smooth="yes"/>
      <point x="95" y="163"/>
      <point x="24" y="83"/>
      <point x="18" y="4" type="curve"/>
      <point x="53" y="4" type="line"/>
      <point x="65" y="44"/>
      <point x="94" y="61"/>
      <point x="116" y="61" type="curve" smooth="yes"/>
      <point x="140" y="61"/>
      <point x="160" y="48"/>
      <point x="181" y="35" type="curve" smooth="yes"/>
      <point x="209" y="18"/>
      <point x="238" y="0"/>
      <point x="276" y="0" type="curve" smooth="yes"/>
      <point x="366" y="0"/>
      <point x="385" y="115"/>
      <point x="385" y="168" type="curve"/>
      <point x="349" y="168" type="line"/>
      <point x="345" y="116"/>
      <point x="323" y="100"/>
      <point x="295" y="100" type="curve" smooth="yes"/>
      <point x="271" y="100"/>
      <point x="249" y="110"/>
      <point x="224" y="121" type="curve" smooth="yes"/>
      <point x="195" y="134"/>
      <point x="171" y="143"/>
      <point x="139" y="143" type="curve"/>
      <point x="173" y="170"/>
      <point x="211" y="189"/>
      <point x="248" y="205" type="curve" smooth="yes"/>
      <point x="313" y="234"/>
      <point x="384" y="281"/>
      <point x="384" y="363" type="curve" smooth="yes"/>
      <point x="384" y="444"/>
      <point x="303" y="500"/>
    </contour>
  </outline>
</glyph>
<glyph name="four" format="2">
  <advance width="444"/>
  <unicode hex="0034"/>
  <outline>
    <contour>
      <point x="416" y="119" type="line"/>
      <point x="416" y="158" type="line"/>
      <point x="321" y="158" type="line"/>
      <point x="321" y="393" type="line"/>
      <point x="219" y="276" type="line"/>
      <point x="219" y="158" type="line"/>
      <point x="74" y="158" type="line"/>
      <point x="110" y="211"/>
      <point x="149" y="255"/>
      <point x="184" y="298" type="curve" smooth="yes"/>
      <point x="239" y="361"/>
      <point x="288" y="419"/>
      <point x="325" y="500" type="curve"/>
      <point x="293" y="491"/>
      <point x="264" y="486"/>
      <point x="239" y="486" type="curve" smooth="yes"/>
      <point x="214" y="486"/>
      <point x="188" y="491"/>
      <point x="164" y="499" type="curve"/>
      <point x="139" y="381"/>
      <point x="106" y="270"/>
      <point x="28" y="154" type="curve"/>
      <point x="28" y="119" type="line"/>
      <point x="219" y="119" type="line"/>
      <point x="219" y="79" type="line" smooth="yes"/>
      <point x="219" y="51"/>
      <point x="200" y="39"/>
      <point x="176" y="39" type="curve" smooth="yes"/>
      <point x="148" y="39" type="line"/>
      <point x="148" y="0" type="line"/>
      <point x="393" y="0" type="line"/>
      <point x="393" y="39" type="line"/>
      <point x="364" y="39" type="line" smooth="yes"/>
      <point x="339" y="39"/>
      <point x="321" y="51"/>
      <point x="321" y="78" type="curve" smooth="yes"/>
      <point x="321" y="119" type="line"/>
    </contour>
  </outline>
</glyph>
<glyph name="five" format="2">
  <advance width="413"/>
  <unicode hex="0035"/>
  <outline>
    <contour>
      <point x="101" y="396" type="line"/>
      <point x="125" y="393"/>
      <point x="149" y="391"/>
      <point x="173" y="391" type="curve" smooth="yes"/>
      <point x="254" y="391"/>
      <point x="329" y="418"/>
      <point x="351" y="500" type="curve"/>
      <point x="311" y="489"/>
      <point x="271" y="481"/>
      <point x="221" y="481" type="curve" smooth="yes"/>
      <point x="180" y="481"/>
      <point x="130" y="486"/>
      <point x="64" y="499" type="curve"/>
      <point x="64" y="240" type="line"/>
      <point x="111" y="268"/>
      <point x="146" y="284"/>
      <point x="183" y="284" type="curve" smooth="yes"/>
      <point x="248" y="284"/>
      <point x="271" y="243"/>
      <point x="271" y="163" type="curve" smooth="yes"/>
      <point x="271" y="73"/>
      <point x="234" y="38"/>
      <point x="181" y="38" type="curve" smooth="yes"/>
      <point x="141" y="38"/>
      <point x="111" y="51"/>
      <point x="96" y="66" type="curve"/>
      <point x="138" y="66"/>
      <point x="161" y="101"/>
      <point x="161" y="133" type="curve" smooth="yes"/>
      <point x="161" y="169"/>
      <point x="131" y="198"/>
      <point x="95" y="198" type="curve" smooth="yes"/>
      <point x="58" y="198"/>
      <point x="25" y="170"/>
      <point x="25" y="118" type="curve" smooth="yes"/>
      <point x="25" y="53"/>
      <point x="98" y="0"/>
      <point x="188" y="0" type="curve" smooth="yes"/>
      <point x="300" y="0"/>
      <point x="381" y="63"/>
      <point x="381" y="163" type="curve" smooth="yes"/>
      <point x="381" y="273"/>
      <point x="290" y="323"/>
      <point x="206" y="323" type="curve" smooth="yes"/>
      <point x="156" y="323"/>
      <point x="128" y="313"/>
      <point x="103" y="303" type="curve"/>
      <point x="101" y="303" type="line"/>
    </contour>
  </outline>
</glyph>
<glyph name="six" format="2">
  <advance width="425"/>
  <unicode hex="0036"/>
  <outline>
    <contour>
      <point x="254" y="414" type="curve" smooth="yes"/>
      <point x="254" y="379"/>
      <point x="283" y="353"/>
      <point x="318" y="353" type="curve" smooth="yes"/>
      <point x="353" y="353"/>
      <point x="380" y="379"/>
      <point x="380" y="414" type="curve" smooth="yes"/>
      <point x="380" y="461"/>
      <point x="326" y="500"/>
      <point x="256" y="500" type="curve" smooth="yes"/>
      <point x="121" y="500"/>
      <point x="26" y="383"/>
      <point x="26" y="245" type="curve" smooth="yes"/>
      <point x="26" y="106"/>
      <point x="93" y="0"/>
      <point x="216" y="0" type="curve" smooth="yes"/>
      <point x="316" y="0"/>
      <point x="393" y="65"/>
      <point x="393" y="163" type="curve" smooth="yes"/>
      <point x="393" y="263"/>
      <point x="318" y="285"/>
      <point x="233" y="285" type="curve" smooth="yes"/>
      <point x="183" y="285"/>
      <point x="150" y="273"/>
      <point x="128" y="251" type="curve"/>
      <point x="128" y="288" type="line" smooth="yes"/>
      <point x="128" y="369"/>
      <point x="178" y="466"/>
      <point x="256" y="466" type="curve" smooth="yes"/>
      <point x="265" y="466"/>
      <point x="273" y="465"/>
      <point x="278" y="463" type="curve"/>
      <point x="268" y="454"/>
      <point x="254" y="438"/>
    </contour>
    <contour>
      <point x="220" y="229" type="curve" smooth="yes"/>
      <point x="275" y="229"/>
      <point x="290" y="205"/>
      <point x="290" y="160" type="curve" smooth="yes"/>
      <point x="290" y="83"/>
      <point x="266" y="39"/>
      <point x="214" y="39" type="curve" smooth="yes"/>
      <point x="155" y="39"/>
      <point x="128" y="98"/>
      <point x="128" y="154" type="curve" smooth="yes"/>
      <point x="128" y="175" type="line" smooth="yes"/>
      <point x="128" y="234"/>
      <point x="181" y="229"/>
    </contour>
  </outline>
</glyph>
<glyph name="eight" format="2">
  <advance width="430"/>
  <unicode hex="0038"/>
  <outline>
    <contour>
      <point x="129" y="244" type="line"/>
      <point x="71" y="218"/>
      <point x="29" y="183"/>
      <point x="29" y="125" type="curve" smooth="yes"/>
      <point x="29" y="61"/>
      <point x="108" y="0"/>
      <point x="213" y="0" type="curve" smooth="yes"/>
      <point x="310" y="0"/>
      <point x="400" y="61"/>
      <point x="400" y="151" type="curve" smooth="yes"/>
      <point x="400" y="210"/>
      <point x="356" y="250"/>
      <point x="303" y="283" type="curve"/>
      <point x="345" y="308"/>
      <point x="378" y="339"/>
      <point x="378" y="384" type="curve" smooth="yes"/>
      <point x="378" y="453"/>
      <point x="300" y="500"/>
      <point x="213" y="500" type="curve" smooth="yes"/>
      <point x="129" y="500"/>
      <point x="49" y="439"/>
      <point x="49" y="363" type="curve" smooth="yes"/>
      <point x="49" y="303"/>
      <point x="89" y="266"/>
      <point x="138" y="239" type="curve"/>
    </contour>
    <contour>
      <point x="134" y="401" type="curve" smooth="yes"/>
      <point x="134" y="431"/>
      <point x="156" y="463"/>
      <point x="213" y="463" type="curve" smooth="yes"/>
      <point x="280" y="463"/>
      <point x="314" y="428"/>
      <point x="314" y="384" type="curve" smooth="yes"/>
      <point x="314" y="349"/>
      <point x="298" y="323"/>
      <point x="268" y="303" type="curve"/>
      <point x="255" y="309"/>
      <point x="245" y="314"/>
      <point x="234" y="320" type="curve" smooth="yes"/>
      <point x="180" y="348"/>
      <point x="134" y="373"/>
    </contour>
    <contour>
      <point x="315" y="108" type="curve" smooth="yes"/>
      <point x="315" y="76"/>
      <point x="295" y="38"/>
      <point x="213" y="38" type="curve" smooth="yes"/>
      <point x="125" y="38"/>
      <point x="95" y="84"/>
      <point x="95" y="128" type="curve" smooth="yes"/>
      <point x="95" y="171"/>
      <point x="120" y="200"/>
      <point x="165" y="224" type="curve"/>
      <point x="178" y="219"/>
      <point x="186" y="215"/>
      <point x="199" y="209" type="curve" smooth="yes"/>
      <point x="259" y="183"/>
      <point x="315" y="158"/>
    </contour>
  </outline>
</glyph>
<glyph name="nine" format="2">
  <advance width="423"/>
  <unicode hex="0039"/>
  <outline>
    <contour>
      <point x="166" y="86" type="curve" smooth="yes"/>
      <point x="166" y="121"/>
      <point x="139" y="148"/>
      <point x="103" y="148" type="curve" smooth="yes"/>
      <point x="68" y="148"/>
      <point x="39" y="121"/>
      <point x="39" y="86" type="curve" smooth="yes"/>
      <point x="39" y="39"/>
      <point x="94" y="0"/>
      <point x="164" y="0" type="curve" smooth="yes"/>
      <point x="299" y="0"/>
      <point x="394" y="118"/>
      <point x="394" y="255" type="curve" smooth="yes"/>
      <point x="394" y="394"/>
      <point x="328" y="500"/>
      <point x="204" y="500" type="curve" smooth="yes"/>
      <point x="104" y="500"/>
      <point x="28" y="435"/>
      <point x="28" y="338" type="curve" smooth="yes"/>
      <point x="28" y="238"/>
      <point x="103" y="215"/>
      <point x="188" y="215" type="curve" smooth="yes"/>
      <point x="236" y="215"/>
      <point x="270" y="228"/>
      <point x="291" y="248" type="curve"/>
      <point x="291" y="213" type="line" smooth="yes"/>
      <point x="291" y="131"/>
      <point x="241" y="34"/>
      <point x="164" y="34" type="curve" smooth="yes"/>
      <point x="154" y="34"/>
      <point x="148" y="35"/>
      <point x="141" y="38" type="curve"/>
      <point x="153" y="46"/>
      <point x="166" y="63"/>
    </contour>
    <contour>
      <point x="199" y="271" type="curve" smooth="yes"/>
      <point x="144" y="271"/>
      <point x="129" y="295"/>
      <point x="129" y="340" type="curve" smooth="yes"/>
      <point x="129" y="418"/>
      <point x="154" y="461"/>
      <point x="205" y="461" type="curve" smooth="yes"/>
      <point x="264" y="461"/>
      <point x="291" y="403"/>
      <point x="291" y="346" type="curve" smooth="yes"/>
      <point x="291" y="328" type="line" smooth="yes"/>
      <point x="291" y="269"/>
      <point x="241" y="271"/>
    </contour>
  </outline>
</glyph>
<glyph name="colon" format="2">
  <advance width="163"/>
  <unicode hex="003A"/>
  <outline>
    <contour>
      <point x="20" y="-60" type="line"/>
      <point x="20" y="-39"/>
      <point x="29" y="-12"/>
      <point x="41" y="3" type="curve" smooth="yes"/>
      <point x="81" y="54"/>
      <point x="163" y="117"/>
      <point x="163" y="237" type="curve" smooth="yes"/>
      <point x="163" y="287"/>
      <point x="146" y="335"/>
      <point x="135" y="358" type="curve"/>
      <point x="151" y="376"/>
      <point x="162" y="398"/>
      <point x="162" y="421" type="curve" smooth="yes"/>
      <point x="162" y="454"/>
      <point x="134" y="476"/>
      <point x="102" y="476" type="curve" smooth="yes"/>
      <point x="49" y="476"/>
      <point x="0" y="430"/>
      <point x="0" y="378" type="curve" smooth="yes"/>
      <point x="0" y="-60" type="line"/>
    </contour>
    <contour>
      <point x="28" y="82" type="curve" smooth="yes"/>
      <point x="23" y="82"/>
      <point x="19" y="86"/>
      <point x="19" y="90" type="curve" smooth="yes"/>
      <point x="19" y="323" type="line" smooth="yes"/>
      <point x="19" y="327"/>
      <point x="29" y="331"/>
      <point x="33" y="329" type="curve" smooth="yes"/>
      <point x="41" y="326"/>
      <point x="50" y="324"/>
      <point x="58" y="324" type="curve" smooth="yes"/>
      <point x="80" y="324"/>
      <point x="100" y="331"/>
      <point x="118" y="343" type="curve"/>
      <point x="130" y="314"/>
      <point x="139" y="277"/>
      <point x="139" y="236" type="curve" smooth="yes"/>
      <point x="139" y="171"/>
      <point x="107" y="122"/>
      <point x="74" y="99" type="curve" smooth="yes"/>
      <point x="58" y="88"/>
      <point x="46" y="82"/>
    </contour>
  </outline>
</glyph>
<glyph name="semicolon" format="2">
  <advance width="306"/>
  <unicode hex="003B"/>
  <outline>
    <contour>
      <point x="0" y="179" type="curve" smooth="yes"/>
      <point x="0" y="146"/>
      <point x="28" y="124"/>
      <point x="59" y="124" type="curve" smooth="yes"/>
      <point x="113" y="124"/>
      <point x="162" y="170"/>
      <point x="162" y="222" type="curve" smooth="yes"/>
      <point x="162" y="510" type="line" smooth="yes"/>
      <point x="162" y="514"/>
      <point x="166" y="518"/>
      <point x="170" y="518" type="curve" smooth="yes"/>
      <point x="188" y="518"/>
      <point x="201" y="512"/>
      <point x="217" y="501" type="curve" smooth="yes"/>
      <point x="250" y="478"/>
      <point x="282" y="429"/>
      <point x="282" y="364" type="curve" smooth="yes"/>
      <point x="282" y="317"/>
      <point x="268" y="273"/>
      <point x="254" y="243" type="curve"/>
      <point x="274" y="234" type="line"/>
      <point x="284" y="253"/>
      <point x="306" y="306"/>
      <point x="306" y="363" type="curve" smooth="yes"/>
      <point x="306" y="483"/>
      <point x="223" y="546"/>
      <point x="183" y="597" type="curve" smooth="yes"/>
      <point x="171" y="612"/>
      <point x="162" y="639"/>
      <point x="162" y="660" type="curve"/>
      <point x="142" y="660" type="line"/>
      <point x="142" y="277" type="line" smooth="yes"/>
      <point x="142" y="273"/>
      <point x="133" y="269"/>
      <point x="129" y="271" type="curve" smooth="yes"/>
      <point x="121" y="274"/>
      <point x="112" y="276"/>
      <point x="103" y="276" type="curve" smooth="yes"/>
      <point x="50" y="276"/>
      <point x="0" y="230"/>
    </contour>
  </outline>
</glyph>
<glyph name="less" format="2">
  <advance width="240"/>
  <unicode hex="003C"/>
  <outline>
    <contour>
      <point x="158" y="400" type="curve" smooth="yes"/>
      <point x="158" y="421"/>
      <point x="141" y="438"/>
      <point x="120" y="438" type="curve" smooth="yes"/>
      <point x="99" y="438"/>
      <point x="82" y="421"/>
      <point x="82" y="400" type="curve" smooth="yes"/>
      <point x="82" y="379"/>
      <point x="99" y="362"/>
      <point x="120" y="362" type="curve" smooth="yes"/>
      <point x="141" y="362"/>
      <point x="158" y="379"/>
    </contour>
    <contour>
      <point x="240" y="312" type="line"/>
      <point x="0" y="312" type="line"/>
      <point x="0" y="259" type="line"/>
      <point x="240" y="259" type="line"/>
    </contour>
  </outline>
</glyph>
<glyph name="greater" format="2">
  <advance width="258"/>
  <unicode hex="003E"/>
  <outline>
    <contour>
      <point x="14" y="0" type="curve" smooth="yes"/>
      <point x="25" y="0"/>
      <point x="254" y="95"/>
      <point x="258" y="100" type="curve"/>
      <point x="255" y="104"/>
      <point x="26" y="200"/>
      <point x="14" y="200" type="curve" smooth="yes"/>
      <point x="5" y="200"/>
      <point x="0" y="191"/>
      <point x="0" y="183" type="curve" smooth="yes"/>
      <point x="0" y="181"/>
      <point x="2" y="178"/>
      <point x="4" y="176" type="curve"/>
      <point x="58" y="149"/>
      <point x="118" y="130"/>
      <point x="174" y="107" type="curve" smooth="yes"/>
      <point x="177" y="106"/>
      <point x="183" y="104"/>
      <point x="183" y="100" type="curve" smooth="yes"/>
      <point x="183" y="97"/>
      <point x="178" y="94"/>
      <point x="175" y="93" type="curve" smooth="yes"/>
      <point x="152" y="82"/>
      <point x="0" y="31"/>
      <point x="0" y="17" type="curve" smooth="yes"/>
      <point x="0" y="8"/>
      <point x="5" y="0"/>
    </contour>
  </outline>
</glyph>
<glyph name="question" format="2">
  <advance width="545"/>
  <unicode hex="003F"/>
  <outline>
    <contour>
      <point x="90" y="705" type="curve" smooth="yes"/>
      <point x="80" y="705"/>
      <point x="69" y="702"/>
      <point x="62" y="699" type="curve"/>
      <point x="61" y="699"/>
      <point x="60" y="702"/>
      <point x="60" y="706" type="curve"/>
      <point x="60" y="706" type="line"/>
      <point x="80" y="748"/>
      <point x="123" y="759"/>
      <point x="182" y="759" type="curve" smooth="yes"/>
      <point x="275" y="759"/>
      <point x="319" y="691"/>
      <point x="319" y="575" type="curve" smooth="yes"/>
      <point x="319" y="337"/>
      <point x="208" y="186"/>
      <point x="14" y="138" type="curve"/>
      <point x="14" y="138"/>
      <point x="6" y="128"/>
      <point x="6" y="122" type="curve" smooth="yes"/>
      <point x="6" y="118"/>
      <point x="17" y="109"/>
      <point x="17" y="109" type="curve"/>
      <point x="198" y="134"/>
      <point x="418" y="319"/>
      <point x="418" y="560" type="curve" smooth="yes"/>
      <point x="418" y="709"/>
      <point x="334" y="802"/>
      <point x="196" y="802" type="curve" smooth="yes"/>
      <point x="79" y="802"/>
      <point x="0" y="732"/>
      <point x="0" y="635" type="curve" smooth="yes"/>
      <point x="0" y="558"/>
      <point x="42" y="513"/>
      <point x="90" y="513" type="curve" smooth="yes"/>
      <point x="138" y="513"/>
      <point x="174" y="555"/>
      <point x="174" y="609" type="curve" smooth="yes"/>
      <point x="174" y="662"/>
      <point x="138" y="705"/>
    </contour>
    <contour>
      <point x="458" y="702" type="curve" smooth="yes"/>
      <point x="458" y="678"/>
      <point x="478" y="659"/>
      <point x="502" y="659" type="curve" smooth="yes"/>
      <point x="524" y="659"/>
      <point x="545" y="678"/>
      <point x="545" y="702" type="curve" smooth="yes"/>
      <point x="545" y="726"/>
      <point x="524" y="746"/>
      <point x="502" y="746" type="curve" smooth="yes"/>
      <point x="478" y="746"/>
      <point x="458" y="726"/>
    </contour>
    <contour>
      <point x="458" y="504" type="curve" smooth="yes"/>
      <point x="458" y="480"/>
      <point x="478" y="461"/>
      <point x="502" y="461" type="curve" smooth="yes"/>
      <point x="524" y="461"/>
      <point x="545" y="480"/>
      <point x="545" y="504" type="curve" smooth="yes"/>
      <point x="545" y="528"/>
      <point x="524" y="547"/>
      <point x="502" y="547" type="curve" smooth="yes"/>
      <point x="478" y="547"/>
      <point x="458" y="528"/>
    </contour>
  </outline>
</glyph>
<glyph name="at" format="2">
  <advance width="136"/>
  <unicode hex="0040"/>
  <outline>
    <contour>
      <point x="-136" y="393" type="line"/>
      <point x="136" y="473" type="line"/>
      <point x="136" y="564" type="line"/>
      <point x="-136" y="484" type="line"/>
    </contour>
    <contour>
      <point x="-136" y="236" type="line"/>
      <point x="136" y="316" type="line"/>
      <point x="136" y="407" type="line"/>
      <point x="-136" y="327" type="line"/>
    </contour>
  </outline>
</glyph>
<glyph name="A" format="2">
  <advance width="350"/>
  <unicode hex="0041"/>
  <outline>
    <contour>
      <point x="104" y="85" type="line" smooth="yes"/>
      <point x="104" y="74"/>
      <point x="107" y="70"/>
      <point x="113" y="70" type="curve" smooth="yes"/>
      <point x="117" y="70"/>
      <point x="123" y="73"/>
      <point x="129" y="78" type="curve" smooth="yes"/>
      <point x="188" y="126" type="line" smooth="yes"/>
      <point x="246" y="173"/>
      <point x="278" y="206"/>
      <point x="278" y="255" type="curve" smooth="yes"/>
      <point x="278" y="298"/>
      <point x="254" y="326"/>
      <point x="214" y="326" type="curve" smooth="yes"/>
      <point x="189" y="326"/>
      <point x="170" y="311"/>
      <point x="154" y="311" type="curve" smooth="yes"/>
      <point x="146" y="311"/>
      <point x="144" y="320"/>
      <point x="144" y="328" type="curve" smooth="yes"/>
      <point x="144" y="418"/>
      <point x="147" y="496"/>
      <point x="149" y="548" type="curve" smooth="yes"/>
      <point x="150" y="564"/>
      <point x="150" y="564"/>
      <point x="127" y="564" type="curve" smooth="yes"/>
      <point x="104" y="564"/>
      <point x="104" y="564"/>
      <point x="104" y="550" type="curve" smooth="yes"/>
    </contour>
    <contour>
      <point x="272" y="362" type="line"/>
      <point x="291" y="334"/>
      <point x="329" y="281"/>
      <point x="329" y="198" type="curve" smooth="yes"/>
      <point x="329" y="117"/>
      <point x="290" y="66"/>
      <point x="272" y="38" type="curve"/>
      <point x="282" y="29" type="line"/>
      <point x="328" y="76"/>
      <point x="350" y="135"/>
      <point x="350" y="200" type="curve" smooth="yes"/>
      <point x="350" y="286"/>
      <point x="310" y="342"/>
      <point x="282" y="371" type="curve"/>
    </contour>
    <contour>
      <point x="22" y="202" type="curve" smooth="yes"/>
      <point x="22" y="283"/>
      <point x="59" y="334"/>
      <point x="78" y="362" type="curve"/>
      <point x="67" y="371" type="line"/>
      <point x="22" y="324"/>
      <point x="0" y="265"/>
      <point x="0" y="200" type="curve" smooth="yes"/>
      <point x="0" y="114"/>
      <point x="39" y="58"/>
      <point x="67" y="29" type="curve"/>
      <point x="78" y="38" type="line"/>
      <point x="58" y="66"/>
      <point x="22" y="119"/>
    </contour>
    <contour>
      <point x="175" y="286" type="curve" smooth="yes"/>
      <point x="194" y="286"/>
      <point x="212" y="274"/>
      <point x="215" y="249" type="curve" smooth="yes"/>
      <point x="220" y="214"/>
      <point x="206" y="171"/>
      <point x="169" y="141" type="curve"/>
      <point x="157" y="130"/>
      <point x="146" y="124"/>
      <point x="139" y="124" type="curve" smooth="yes"/>
      <point x="132" y="124"/>
      <point x="128" y="131"/>
      <point x="128" y="148" type="curve" smooth="yes"/>
      <point x="128" y="210" type="line" smooth="yes"/>
      <point x="128" y="242"/>
      <point x="133" y="286"/>
    </contour>
  </outline>
</glyph>
<glyph name="B" format="2">
  <advance width="562"/>
  <unicode hex="0042"/>
  <outline>
    <contour>
      <point x="375" y="332" type="curve" smooth="yes"/>
      <point x="450" y="332"/>
      <point x="469" y="271"/>
      <point x="469" y="166" type="curve"/>
      <point x="468" y="57"/>
      <point x="436" y="17"/>
      <point x="361" y="17" type="curve" smooth="yes"/>
      <point x="344" y="17"/>
      <point x="323" y="20"/>
      <point x="323" y="34" type="curve" smooth="yes"/>
      <point x="323" y="53"/>
      <point x="359" y="62"/>
      <point x="359" y="104" type="curve" smooth="yes"/>
      <point x="359" y="141"/>
      <point x="329" y="167"/>
      <point x="292" y="167" type="curve" smooth="yes"/>
      <point x="255" y="167"/>
      <point x="225" y="137"/>
      <point x="225" y="100" type="curve" smooth="yes"/>
      <point x="225" y="41"/>
      <point x="287" y="-6"/>
      <point x="371" y="-6" type="curve" smooth="yes"/>
      <point x="489" y="-6"/>
      <point x="562" y="72"/>
      <point x="562" y="177" type="curve" smooth="yes"/>
      <point x="562" y="289"/>
      <point x="483" y="358"/>
      <point x="388" y="358" type="curve" smooth="yes"/>
      <point x="364" y="358"/>
      <point x="342" y="352"/>
      <point x="324" y="342" type="curve" smooth="yes"/>
      <point x="317" y="338"/>
      <point x="304" y="342"/>
      <point x="302" y="346" type="curve" smooth="yes"/>
      <point x="293" y="362"/>
      <point x="280" y="378"/>
      <point x="268" y="390" type="curve" smooth="yes"/>
      <point x="264" y="394"/>
      <point x="261" y="404"/>
      <point x="268" y="412" type="curve" smooth="yes"/>
      <point x="278" y="425"/>
      <point x="291" y="441"/>
      <point x="302" y="455" type="curve" smooth="yes"/>
      <point x="305" y="460"/>
      <point x="314" y="464"/>
      <point x="321" y="460" type="curve" smooth="yes"/>
      <point x="340" y="449"/>
      <point x="362" y="442"/>
      <point x="388" y="442" type="curve" smooth="yes"/>
      <point x="483" y="442"/>
      <point x="562" y="511"/>
      <point x="562" y="623" type="curve" smooth="yes"/>
      <point x="562" y="728"/>
      <point x="489" y="806"/>
      <point x="371" y="806" type="curve" smooth="yes"/>
      <point x="287" y="806"/>
      <point x="225" y="759"/>
      <point x="225" y="700" type="curve" smooth="yes"/>
      <point x="225" y="663"/>
      <point x="255" y="633"/>
      <point x="292" y="633" type="curve" smooth="yes"/>
      <point x="329" y="633"/>
      <point x="359" y="659"/>
      <point x="359" y="696" type="curve" smooth="yes"/>
      <point x="359" y="738"/>
      <point x="323" y="747"/>
      <point x="323" y="766" type="curve" smooth="yes"/>
      <point x="323" y="780"/>
      <point x="344" y="783"/>
      <point x="361" y="783" type="curve" smooth="yes"/>
      <point x="434" y="783"/>
      <point x="468" y="743"/>
      <point x="469" y="634" type="curve"/>
      <point x="469" y="529"/>
      <point x="455" y="468"/>
      <point x="375" y="468" type="curve" smooth="yes"/>
      <point x="322" y="468"/>
      <point x="296" y="506"/>
      <point x="283" y="555" type="curve"/>
      <point x="264" y="555" type="line"/>
      <point x="257" y="509"/>
      <point x="231" y="455"/>
      <point x="190" y="424" type="curve" smooth="yes"/>
      <point x="184" y="419"/>
      <point x="176" y="424"/>
      <point x="176" y="430" type="curve" smooth="yes"/>
      <point x="176" y="800" type="line"/>
      <point x="150" y="800" type="line"/>
      <point x="150" y="0" type="line"/>
      <point x="176" y="0" type="line"/>
      <point x="176" y="368" type="line" smooth="yes"/>
      <point x="176" y="374"/>
      <point x="185" y="380"/>
      <point x="190" y="376" type="curve" smooth="yes"/>
      <point x="230" y="346"/>
      <point x="257" y="291"/>
      <point x="264" y="245" type="curve"/>
      <point x="283" y="245" type="line"/>
      <point x="296" y="294"/>
      <point x="322" y="332"/>
    </contour>
    <contour>
      <point x="99" y="0" type="line"/>
      <point x="99" y="800" type="line"/>
      <point x="8" y="800" type="line"/>
      <point x="8" y="0" type="line"/>
    </contour>
  </outline>
</glyph>
<glyph name="C" format="2">
  <advance width="333"/>
  <unicode hex="0043"/>
  <outline>
    <contour>
      <point x="258" y="353" type="curve" smooth="yes"/>
      <point x="258" y="347"/>
      <point x="254" y="340"/>
      <point x="249" y="337" type="curve" smooth="yes"/>
      <point x="233" y="326"/>
      <point x="224" y="310"/>
      <point x="224" y="290" type="curve" smooth="yes"/>
      <point x="224" y="260"/>
      <point x="248" y="235"/>
      <point x="278" y="235" type="curve" smooth="yes"/>
      <point x="309" y="235"/>
      <point x="333" y="260"/>
      <point x="333" y="290" type="curve"/>
      <point x="332" y="344"/>
      <point x="274" y="404"/>
      <point x="188" y="404" type="curve" smooth="yes"/>
      <point x="182" y="404" type="line"/>
      <point x="182" y="520" type="line"/>
      <point x="157" y="520" type="line"/>
      <point x="157" y="402" type="line"/>
      <point x="62" y="387"/>
      <point x="0" y="306"/>
      <point x="0" y="200" type="curve" smooth="yes"/>
      <point x="0" y="92"/>
      <point x="71" y="8"/>
      <point x="157" y="-2" type="curve"/>
      <point x="157" y="-120" type="line"/>
      <point x="182" y="-120" type="line"/>
      <point x="182" y="-4" type="line"/>
      <point x="274" y="-1"/>
      <point x="322" y="74"/>
      <point x="330" y="144" type="curve"/>
      <point x="306" y="146" type="line"/>
      <point x="298" y="76"/>
      <point x="248" y="26"/>
      <point x="194" y="26" type="curve" smooth="yes"/>
      <point x="190" y="26"/>
      <point x="186" y="26"/>
      <point x="182" y="26" type="curve"/>
      <point x="182" y="377" type="line"/>
      <point x="188" y="378"/>
      <point x="194" y="378"/>
      <point x="201" y="378" type="curve" smooth="yes"/>
      <point x="215" y="378"/>
      <point x="258" y="373"/>
    </contour>
    <contour>
      <point x="139" y="360" type="curve" smooth="yes"/>
      <point x="146" y="365"/>
      <point x="157" y="360"/>
      <point x="157" y="354" type="curve" smooth="yes"/>
      <point x="157" y="58" type="line" smooth="yes"/>
      <point x="157" y="52"/>
      <point x="146" y="44"/>
      <point x="137" y="44" type="curve" smooth="yes"/>
      <point x="134" y="44"/>
      <point x="131" y="45"/>
      <point x="130" y="46" type="curve"/>
      <point x="106" y="68"/>
      <point x="94" y="110"/>
      <point x="94" y="182" type="curve" smooth="yes"/>
      <point x="94" y="214" type="line" smooth="yes"/>
      <point x="94" y="294"/>
      <point x="111" y="338"/>
    </contour>
  </outline>
</glyph>
<glyph name="E" format="2">
  <advance width="261"/>
  <unicode hex="0045"/>
  <outline>
    <contour>
      <point x="261" y="640" type="curve" smooth="yes"/>
      <point x="261" y="654"/>
      <point x="258" y="668"/>
      <point x="249" y="680" type="curve"/>
      <point x="234" y="704"/>
      <point x="206" y="713"/>
      <point x="177" y="713" type="curve" smooth="yes"/>
      <point x="142" y="713"/>
      <point x="104" y="700"/>
      <point x="76" y="681" type="curve" smooth="yes"/>
      <point x="37" y="654"/>
      <point x="1" y="606"/>
      <point x="0" y="561" type="curve"/>
      <point x="0" y="-80" type="line"/>
      <point x="22" y="-80" type="line"/>
      <point x="22" y="-54"/>
      <point x="32" y="-15"/>
      <point x="58" y="18" type="curve" smooth="yes"/>
      <point x="116" y="90"/>
      <point x="220" y="172"/>
      <point x="220" y="344" type="curve" smooth="yes"/>
      <point x="220" y="418"/>
      <point x="197" y="482"/>
      <point x="180" y="516" type="curve"/>
      <point x="221" y="543"/>
      <point x="261" y="593"/>
    </contour>
    <contour>
      <point x="34" y="124" type="curve" smooth="yes"/>
      <point x="26" y="124"/>
      <point x="21" y="130"/>
      <point x="21" y="134" type="curve" smooth="yes"/>
      <point x="21" y="497" type="line" smooth="yes"/>
      <point x="21" y="499"/>
      <point x="28" y="502"/>
      <point x="31" y="501" type="curve"/>
      <point x="46" y="491"/>
      <point x="64" y="487"/>
      <point x="84" y="487" type="curve" smooth="yes"/>
      <point x="108" y="487"/>
      <point x="134" y="494"/>
      <point x="158" y="504" type="curve"/>
      <point x="176" y="462"/>
      <point x="193" y="407"/>
      <point x="193" y="343" type="curve" smooth="yes"/>
      <point x="193" y="250"/>
      <point x="158" y="183"/>
      <point x="100" y="145" type="curve" smooth="yes"/>
      <point x="76" y="130"/>
      <point x="55" y="124"/>
    </contour>
  </outline>
</glyph>
<glyph name="F" format="2">
  <advance width="676"/>
  <unicode hex="0046"/>
  <outline>
    <contour>
      <point x="396" y="208" type="line" smooth="yes"/>
      <point x="374" y="208"/>
      <point x="367" y="208"/>
      <point x="367" y="191" type="curve" smooth="yes"/>
      <point x="367" y="181"/>
      <point x="374" y="181"/>
      <point x="394" y="181" type="curve" smooth="yes"/>
      <point x="412" y="181" type="line" smooth="yes"/>
      <point x="425" y="181"/>
      <point x="435" y="174"/>
      <point x="435" y="154" type="curve" smooth="yes"/>
      <point x="435" y="148"/>
      <point x="434" y="139"/>
      <point x="431" y="130" type="curve"/>
      <point x="418" y="80"/>
      <point x="410" y="32"/>
      <point x="392" y="-28" type="curve" smooth="yes"/>
      <point x="378" y="-74"/>
      <point x="355" y="-126"/>
      <point x="316" y="-126" type="curve" smooth="yes"/>
      <point x="307" y="-126"/>
      <point x="302" y="-122"/>
      <point x="302" y="-116" type="curve" smooth="yes"/>
      <point x="302" y="-106"/>
      <point x="315" y="-102"/>
      <point x="322" y="-96" type="curve" smooth="yes"/>
      <point x="330" y="-90"/>
      <point x="334" y="-82"/>
      <point x="334" y="-70" type="curve" smooth="yes"/>
      <point x="334" y="-49"/>
      <point x="319" y="-38"/>
      <point x="302" y="-38" type="curve" smooth="yes"/>
      <point x="274" y="-38"/>
      <point x="257" y="-64"/>
      <point x="257" y="-92" type="curve" smooth="yes"/>
      <point x="257" y="-131"/>
      <point x="288" y="-150"/>
      <point x="324" y="-150" type="curve" smooth="yes"/>
      <point x="342" y="-150"/>
      <point x="362" y="-144"/>
      <point x="381" y="-133" type="curve" smooth="yes"/>
      <point x="446" y="-96"/>
      <point x="482" y="-9"/>
      <point x="502" y="69" type="curve" smooth="yes"/>
      <point x="509" y="95"/>
      <point x="514" y="120"/>
      <point x="520" y="147" type="curve" smooth="yes"/>
      <point x="526" y="174"/>
      <point x="538" y="181"/>
      <point x="559" y="181" type="curve" smooth="yes"/>
      <point x="592" y="181" type="line" smooth="yes"/>
      <point x="614" y="181"/>
      <point x="622" y="181"/>
      <point x="622" y="198" type="curve" smooth="yes"/>
      <point x="622" y="208"/>
      <point x="614" y="208"/>
      <point x="594" y="208" type="curve" smooth="yes"/>
      <point x="565" y="208" type="line" smooth="yes"/>
      <point x="549" y="208"/>
      <point x="542" y="211"/>
      <point x="542" y="223" type="curve" smooth="yes"/>
      <point x="542" y="227"/>
      <point x="542" y="233"/>
      <point x="545" y="240" type="curve"/>
      <point x="559" y="282"/>
      <point x="582" y="324"/>
      <point x="617" y="324" type="curve" smooth="yes"/>
      <point x="626" y="324"/>
      <point x="631" y="320"/>
      <point x="631" y="314" type="curve" smooth="yes"/>
      <point x="631" y="304"/>
      <point x="618" y="301"/>
      <point x="610" y="294" type="curve" smooth="yes"/>
      <point x="603" y="289"/>
      <point x="599" y="280"/>
      <point x="599" y="268" type="curve" smooth="yes"/>
      <point x="599" y="247"/>
      <point x="614" y="236"/>
      <point x="630" y="236" type="curve" smooth="yes"/>
      <point x="658" y="236"/>
      <point x="676" y="262"/>
      <point x="676" y="290" type="curve" smooth="yes"/>
      <point x="676" y="330"/>
      <point x="645" y="348"/>
      <point x="609" y="348" type="curve" smooth="yes"/>
      <point x="547" y="348"/>
      <point x="498" y="291"/>
      <point x="472" y="241" type="curve" smooth="yes"/>
      <point x="459" y="216"/>
      <point x="446" y="208"/>
      <point x="418" y="208" type="curve" smooth="yes"/>
    </contour>
    <contour>
      <point x="69" y="171" type="curve" smooth="yes"/>
      <point x="69" y="134"/>
      <point x="0" y="35"/>
      <point x="0" y="6" type="curve" smooth="yes"/>
      <point x="0" y="1"/>
      <point x="4" y="0"/>
      <point x="9" y="0" type="curve" smooth="yes"/>
      <point x="20" y="0"/>
      <point x="52" y="-6"/>
      <point x="58" y="7" type="curve" smooth="yes"/>
      <point x="105" y="114" type="line" smooth="yes"/>
      <point x="114" y="134"/>
      <point x="140" y="180"/>
      <point x="166" y="180" type="curve" smooth="yes"/>
      <point x="174" y="180"/>
      <point x="178" y="176"/>
      <point x="178" y="168" type="curve" smooth="yes"/>
      <point x="178" y="130"/>
      <point x="112" y="31"/>
      <point x="112" y="6" type="curve" smooth="yes"/>
      <point x="112" y="0"/>
      <point x="118" y="0"/>
      <point x="123" y="0" type="curve" smooth="yes"/>
      <point x="136" y="0"/>
      <point x="163" y="-6"/>
      <point x="170" y="10" type="curve" smooth="yes"/>
      <point x="219" y="117" type="line" smooth="yes"/>
      <point x="228" y="137"/>
      <point x="254" y="180"/>
      <point x="278" y="180" type="curve" smooth="yes"/>
      <point x="286" y="180"/>
      <point x="292" y="177"/>
      <point x="292" y="168" type="curve" smooth="yes"/>
      <point x="292" y="135"/>
      <point x="236" y="82"/>
      <point x="236" y="35" type="curve" smooth="yes"/>
      <point x="236" y="6"/>
      <point x="257" y="-9"/>
      <point x="286" y="-9" type="curve" smooth="yes"/>
      <point x="311" y="-9"/>
      <point x="368" y="30"/>
      <point x="368" y="55" type="curve" smooth="yes"/>
      <point x="368" y="61"/>
      <point x="356" y="70"/>
      <point x="350" y="70" type="curve" smooth="yes"/>
      <point x="341" y="70"/>
      <point x="322" y="25"/>
      <point x="298" y="25" type="curve" smooth="yes"/>
      <point x="292" y="25"/>
      <point x="290" y="29"/>
      <point x="290" y="34" type="curve" smooth="yes"/>
      <point x="290" y="62"/>
      <point x="346" y="120"/>
      <point x="346" y="165" type="curve" smooth="yes"/>
      <point x="346" y="197"/>
      <point x="323" y="214"/>
      <point x="292" y="214" type="curve" smooth="yes"/>
      <point x="265" y="214"/>
      <point x="243" y="188"/>
      <point x="234" y="188" type="curve" smooth="yes"/>
      <point x="226" y="188"/>
      <point x="217" y="214"/>
      <point x="180" y="214" type="curve" smooth="yes"/>
      <point x="153" y="214"/>
      <point x="144" y="194"/>
      <point x="123" y="187" type="curve"/>
      <point x="105" y="197"/>
      <point x="113" y="214"/>
      <point x="73" y="214" type="curve" smooth="yes"/>
      <point x="47" y="214"/>
      <point x="-10" y="173"/>
      <point x="-10" y="149" type="curve" smooth="yes"/>
      <point x="-10" y="143"/>
      <point x="2" y="136"/>
      <point x="7" y="136" type="curve" smooth="yes"/>
      <point x="19" y="136"/>
      <point x="36" y="180"/>
      <point x="61" y="180" type="curve" smooth="yes"/>
      <point x="66" y="180"/>
      <point x="69" y="176"/>
    </contour>
  </outline>
</glyph>
<glyph name="H" format="2">
  <advance width="283"/>
  <unicode hex="0048"/>
  <outline>
    <contour>
      <point x="21" y="486" type="line" smooth="yes"/>
      <point x="21" y="492"/>
      <point x="30" y="497"/>
      <point x="37" y="494" type="curve" smooth="yes"/>
      <point x="53" y="486"/>
      <point x="73" y="483"/>
      <point x="94" y="483" type="curve" smooth="yes"/>
      <point x="131" y="483"/>
      <point x="171" y="493"/>
      <point x="198" y="510" type="curve" smooth="yes"/>
      <point x="242" y="537"/>
      <point x="283" y="601"/>
      <point x="283" y="650" type="curve" smooth="yes"/>
      <point x="283" y="700"/>
      <point x="238" y="717"/>
      <point x="189" y="717" type="curve" smooth="yes"/>
      <point x="152" y="717"/>
      <point x="112" y="707"/>
      <point x="86" y="690" type="curve" smooth="yes"/>
      <point x="42" y="663"/>
      <point x="0" y="599"/>
      <point x="0" y="550" type="curve" smooth="yes"/>
      <point x="0" y="-80" type="line"/>
      <point x="21" y="-80" type="line"/>
    </contour>
    <contour>
      <point x="18" y="538" type="curve" smooth="yes"/>
      <point x="18" y="582"/>
      <point x="192" y="686"/>
      <point x="238" y="686" type="curve" smooth="yes"/>
      <point x="252" y="686"/>
      <point x="265" y="678"/>
      <point x="265" y="662" type="curve" smooth="yes"/>
      <point x="265" y="618"/>
      <point x="91" y="514"/>
      <point x="46" y="514" type="curve" smooth="yes"/>
      <point x="31" y="514"/>
      <point x="18" y="522"/>
    </contour>
  </outline>
</glyph>
<glyph name="I" format="2">
  <advance width="194"/>
  <unicode hex="0049"/>
  <outline>
    <contour>
      <point x="27" y="240" type="line" smooth="yes"/>
      <point x="34" y="242"/>
      <point x="39" y="236"/>
      <point x="39" y="232" type="curve" smooth="yes"/>
      <point x="39" y="122" type="line"/>
      <point x="1" y="110" type="line"/>
      <point x="1" y="31" type="line"/>
      <point x="26" y="39" type="line"/>
      <point x="32" y="42"/>
      <point x="39" y="37"/>
      <point x="39" y="30" type="curve" smooth="yes"/>
      <point x="39" y="-72" type="line"/>
      <point x="63" y="-72" type="line"/>
      <point x="63" y="50" type="line"/>
      <point x="115" y="66" type="line"/>
      <point x="122" y="69"/>
      <point x="130" y="63"/>
      <point x="130" y="58" type="curve" smooth="yes"/>
      <point x="130" y="-52" type="line"/>
      <point x="154" y="-52" type="line"/>
      <point x="154" y="78" type="line"/>
      <point x="194" y="90" type="line"/>
      <point x="194" y="169" type="line"/>
      <point x="170" y="161" type="line" smooth="yes"/>
      <point x="164" y="159"/>
      <point x="154" y="162"/>
      <point x="154" y="170" type="curve" smooth="yes"/>
      <point x="154" y="278" type="line"/>
      <point x="194" y="290" type="line"/>
      <point x="194" y="369" type="line"/>
      <point x="166" y="360" type="line" smooth="yes"/>
      <point x="161" y="358"/>
      <point x="154" y="366"/>
      <point x="154" y="370" type="curve" smooth="yes"/>
      <point x="154" y="472" type="line"/>
      <point x="130" y="472" type="line"/>
      <point x="130" y="350" type="line"/>
      <point x="74" y="332" type="line" smooth="yes"/>
      <point x="69" y="330"/>
      <point x="63" y="338"/>
      <point x="63" y="342" type="curve" smooth="yes"/>
      <point x="63" y="452" type="line"/>
      <point x="39" y="452" type="line"/>
      <point x="39" y="322" type="line"/>
      <point x="1" y="310" type="line"/>
      <point x="1" y="231" type="line"/>
    </contour>
    <contour>
      <point x="115" y="266" type="line" smooth="yes"/>
      <point x="120" y="268"/>
      <point x="130" y="262"/>
      <point x="130" y="256" type="curve" smooth="yes"/>
      <point x="130" y="150" type="line"/>
      <point x="78" y="133" type="line" smooth="yes"/>
      <point x="72" y="131"/>
      <point x="63" y="139"/>
      <point x="63" y="145" type="curve" smooth="yes"/>
      <point x="63" y="250" type="line"/>
    </contour>
  </outline>
</glyph>
<glyph name="J" format="2">
  <advance width="234"/>
  <unicode hex="004A"/>
  <outline>
    <contour>
      <point x="33" y="-10" type="curve" smooth="yes"/>
      <point x="26" y="-10"/>
      <point x="20" y="-5"/>
      <point x="20" y="0" type="curve"/>
      <point x="20" y="0"/>
      <point x="0" y="0"/>
      <point x="0" y="0" type="curve"/>
      <point x="0" y="0"/>
      <point x="0" y="-214"/>
      <point x="0" y="-214" type="curve"/>
      <point x="0" y="-214"/>
      <point x="21" y="-214"/>
      <point x="21" y="-214" type="curve"/>
      <point x="21" y="-189"/>
      <point x="32" y="-150"/>
      <point x="58" y="-117" type="curve" smooth="yes"/>
      <point x="116" y="-44"/>
      <point x="234" y="38"/>
      <point x="234" y="210" type="curve" smooth="yes"/>
      <point x="234" y="294"/>
      <point x="210" y="342"/>
      <point x="199" y="371" type="curve"/>
      <point x="196" y="374"/>
      <point x="192" y="376"/>
      <point x="189" y="376" type="curve" smooth="yes"/>
      <point x="182" y="376"/>
      <point x="176" y="371"/>
      <point x="176" y="364" type="curve" smooth="yes"/>
      <point x="176" y="362"/>
      <point x="177" y="362"/>
      <point x="177" y="360" type="curve"/>
      <point x="189" y="329"/>
      <point x="206" y="280"/>
      <point x="206" y="209" type="curve" smooth="yes"/>
      <point x="206" y="116"/>
      <point x="163" y="49"/>
      <point x="105" y="10" type="curve"/>
      <point x="81" y="-5"/>
      <point x="58" y="-10"/>
    </contour>
  </outline>
</glyph>
<glyph name="K" format="2">
  <advance width="220"/>
  <unicode hex="004B"/>
  <outline>
    <contour>
      <point x="0" y="0" type="line"/>
      <point x="9" y="0"/>
      <point x="21" y="0"/>
      <point x="21" y="0" type="curve"/>
      <point x="21" y="5"/>
      <point x="26" y="10"/>
      <point x="34" y="10" type="curve" smooth="yes"/>
      <point x="54" y="10"/>
      <point x="78" y="3"/>
      <point x="97" y="-6" type="curve" smooth="yes"/>
      <point x="166" y="-38"/>
      <point x="194" y="-98"/>
      <point x="194" y="-156" type="curve" smooth="yes"/>
      <point x="194" y="-187"/>
      <point x="185" y="-213"/>
      <point x="177" y="-232" type="curve"/>
      <point x="196" y="-252" type="line"/>
      <point x="206" y="-234"/>
      <point x="220" y="-201"/>
      <point x="220" y="-157" type="curve" smooth="yes"/>
      <point x="220" y="-62"/>
      <point x="164" y="6"/>
      <point x="101" y="57" type="curve" smooth="yes"/>
      <point x="50" y="97"/>
      <point x="21" y="128"/>
      <point x="21" y="166" type="curve"/>
      <point x="0" y="166" type="line"/>
    </contour>
  </outline>
</glyph>
<glyph name="M" format="2">
  <advance width="465"/>
  <unicode hex="004D"/>
  <outline>
    <contour>
      <point x="17" y="158" type="curve" smooth="yes"/>
      <point x="20" y="158"/>
      <point x="23" y="161"/>
      <point x="29" y="166" type="curve"/>
      <point x="46" y="186" type="line" smooth="yes"/>
      <point x="58" y="200"/>
      <point x="66" y="206"/>
      <point x="72" y="206" type="curve" smooth="yes"/>
      <point x="78" y="206"/>
      <point x="83" y="199"/>
      <point x="92" y="186" type="curve"/>
      <point x="134" y="120" type="line" smooth="yes"/>
      <point x="145" y="103"/>
      <point x="150" y="95"/>
      <point x="156" y="95" type="curve" smooth="yes"/>
      <point x="162" y="95"/>
      <point x="167" y="102"/>
      <point x="180" y="117" type="curve" smooth="yes"/>
      <point x="198" y="138" type="line" smooth="yes"/>
      <point x="204" y="144"/>
      <point x="209" y="147"/>
      <point x="213" y="147" type="curve" smooth="yes"/>
      <point x="218" y="147"/>
      <point x="221" y="140"/>
      <point x="221" y="129" type="curve" smooth="yes"/>
      <point x="221" y="127"/>
      <point x="221" y="126"/>
      <point x="221" y="125" type="curve"/>
      <point x="221" y="54" type="line" smooth="yes"/>
      <point x="221" y="40"/>
      <point x="223" y="40"/>
      <point x="236" y="40" type="curve" smooth="yes"/>
      <point x="246" y="40"/>
      <point x="249" y="42"/>
      <point x="249" y="54" type="curve" smooth="yes"/>
      <point x="249" y="88"/>
      <point x="248" y="122"/>
      <point x="248" y="162" type="curve" smooth="yes"/>
      <point x="248" y="186"/>
      <point x="254" y="206"/>
      <point x="268" y="206" type="curve" smooth="yes"/>
      <point x="274" y="206"/>
      <point x="280" y="198"/>
      <point x="290" y="183" type="curve" smooth="yes"/>
      <point x="328" y="123" type="line" smooth="yes"/>
      <point x="340" y="105"/>
      <point x="346" y="96"/>
      <point x="352" y="96" type="curve" smooth="yes"/>
      <point x="358" y="96"/>
      <point x="366" y="106"/>
      <point x="380" y="122" type="curve" smooth="yes"/>
      <point x="457" y="207" type="line"/>
      <point x="462" y="214"/>
      <point x="465" y="218"/>
      <point x="465" y="222" type="curve" smooth="yes"/>
      <point x="465" y="229"/>
      <point x="457" y="242"/>
      <point x="452" y="242" type="curve" smooth="yes"/>
      <point x="450" y="242"/>
      <point x="446" y="240"/>
      <point x="442" y="235" type="curve" smooth="yes"/>
      <point x="426" y="218" type="line" smooth="yes"/>
      <point x="411" y="202"/>
      <point x="403" y="194"/>
      <point x="397" y="194" type="curve" smooth="yes"/>
      <point x="390" y="194"/>
      <point x="386" y="201"/>
      <point x="377" y="214" type="curve"/>
      <point x="334" y="282" type="line"/>
      <point x="323" y="298"/>
      <point x="318" y="306"/>
      <point x="313" y="306" type="curve" smooth="yes"/>
      <point x="308" y="306"/>
      <point x="302" y="298"/>
      <point x="290" y="285" type="curve" smooth="yes"/>
      <point x="270" y="262" type="line" smooth="yes"/>
      <point x="264" y="255"/>
      <point x="258" y="251"/>
      <point x="254" y="251" type="curve" smooth="yes"/>
      <point x="250" y="251"/>
      <point x="249" y="259"/>
      <point x="249" y="271" type="curve" smooth="yes"/>
      <point x="249" y="345" type="line" smooth="yes"/>
      <point x="249" y="359"/>
      <point x="247" y="360"/>
      <point x="238" y="360" type="curve" smooth="yes"/>
      <point x="236" y="360"/>
      <point x="234" y="360"/>
      <point x="232" y="360" type="curve" smooth="yes"/>
      <point x="223" y="360"/>
      <point x="221" y="359"/>
      <point x="221" y="346" type="curve" smooth="yes"/>
      <point x="221" y="302"/>
      <point x="222" y="280"/>
      <point x="222" y="244" type="curve" smooth="yes"/>
      <point x="222" y="219"/>
      <point x="216" y="196"/>
      <point x="201" y="196" type="curve" smooth="yes"/>
      <point x="194" y="196"/>
      <point x="188" y="202"/>
      <point x="179" y="216" type="curve" smooth="yes"/>
      <point x="140" y="278" type="line" smooth="yes"/>
      <point x="129" y="296"/>
      <point x="124" y="305"/>
      <point x="118" y="305" type="curve" smooth="yes"/>
      <point x="113" y="305"/>
      <point x="106" y="298"/>
      <point x="95" y="286" type="curve" smooth="yes"/>
      <point x="11" y="191" type="line" smooth="yes"/>
      <point x="6" y="186"/>
      <point x="3" y="182"/>
      <point x="3" y="178" type="curve" smooth="yes"/>
      <point x="3" y="172"/>
      <point x="12" y="158"/>
    </contour>
  </outline>
</glyph>
<glyph name="N" format="2">
  <advance width="358"/>
  <unicode hex="004E"/>
  <outline>
    <contour>
      <point x="101" y="41" type="line"/>
      <point x="205" y="73" type="line"/>
      <point x="211" y="74"/>
      <point x="219" y="68"/>
      <point x="219" y="62" type="curve" smooth="yes"/>
      <point x="219" y="-104" type="line"/>
      <point x="253" y="-104" type="line"/>
      <point x="253" y="359" type="line"/>
      <point x="150" y="327" type="line"/>
      <point x="143" y="326"/>
      <point x="134" y="330"/>
      <point x="134" y="338" type="curve" smooth="yes"/>
      <point x="134" y="504" type="line"/>
      <point x="101" y="504" type="line"/>
    </contour>
    <contour>
      <point x="280" y="362" type="line"/>
      <point x="299" y="334"/>
      <point x="337" y="281"/>
      <point x="337" y="198" type="curve" smooth="yes"/>
      <point x="337" y="117"/>
      <point x="298" y="66"/>
      <point x="280" y="38" type="curve"/>
      <point x="290" y="29" type="line"/>
      <point x="336" y="76"/>
      <point x="358" y="135"/>
      <point x="358" y="200" type="curve" smooth="yes"/>
      <point x="358" y="286"/>
      <point x="318" y="342"/>
      <point x="290" y="371" type="curve"/>
    </contour>
    <contour>
      <point x="22" y="199" type="curve" smooth="yes"/>
      <point x="22" y="281"/>
      <point x="59" y="332"/>
      <point x="78" y="359" type="curve"/>
      <point x="67" y="369" type="line"/>
      <point x="22" y="322"/>
      <point x="0" y="262"/>
      <point x="0" y="198" type="curve" smooth="yes"/>
      <point x="0" y="111"/>
      <point x="39" y="55"/>
      <point x="67" y="26" type="curve"/>
      <point x="78" y="36" type="line"/>
      <point x="58" y="64"/>
      <point x="22" y="117"/>
    </contour>
    <contour>
      <point x="224" y="161" type="line" smooth="yes"/>
      <point x="224" y="153"/>
      <point x="220" y="148"/>
      <point x="213" y="146" type="curve" smooth="yes"/>
      <point x="146" y="126" type="line"/>
      <point x="138" y="123"/>
      <point x="130" y="130"/>
      <point x="130" y="136" type="curve" smooth="yes"/>
      <point x="130" y="242" type="line" smooth="yes"/>
      <point x="130" y="247"/>
      <point x="136" y="253"/>
      <point x="141" y="254" type="curve"/>
      <point x="209" y="275" type="line"/>
      <point x="215" y="278"/>
      <point x="224" y="272"/>
      <point x="224" y="266" type="curve" smooth="yes"/>
    </contour>
  </outline>
</glyph>
<glyph name="O" format="2">
  <advance width="278"/>
  <unicode hex="004F"/>
  <outline>
    <contour>
      <point x="5" y="203" type="line"/>
      <point x="-1" y="198"/>
      <point x="-1" y="196"/>
      <point x="4" y="191" type="curve"/>
      <point x="50" y="158"/>
      <point x="102" y="97"/>
      <point x="137" y="51" type="curve"/>
      <point x="277" y="198" type="line"/>
      <point x="278" y="202"/>
      <point x="279" y="202"/>
      <point x="275" y="206" type="curve" smooth="yes"/>
      <point x="263" y="217"/>
      <point x="230" y="244"/>
      <point x="202" y="274" type="curve" smooth="yes"/>
      <point x="179" y="298"/>
      <point x="141" y="348"/>
      <point x="141" y="348" type="curve"/>
    </contour>
    <contour>
      <point x="164" y="123" type="line" smooth="yes"/>
      <point x="160" y="119"/>
      <point x="150" y="122"/>
      <point x="146" y="127" type="curve" smooth="yes"/>
      <point x="122" y="154"/>
      <point x="97" y="181"/>
      <point x="71" y="206" type="curve" smooth="yes"/>
      <point x="67" y="209"/>
      <point x="66" y="226"/>
      <point x="72" y="231" type="curve"/>
      <point x="114" y="275" type="line"/>
      <point x="118" y="278"/>
      <point x="126" y="278"/>
      <point x="129" y="275" type="curve" smooth="yes"/>
      <point x="152" y="247"/>
      <point x="177" y="219"/>
      <point x="204" y="194" type="curve" smooth="yes"/>
      <point x="206" y="193"/>
      <point x="208" y="186"/>
      <point x="208" y="179" type="curve" smooth="yes"/>
      <point x="208" y="174"/>
      <point x="206" y="168"/>
      <point x="204" y="166" type="curve" smooth="yes"/>
    </contour>
  </outline>
</glyph>
<glyph name="P" format="2">
  <advance width="693"/>
  <unicode hex="0050"/>
  <outline>
    <contour>
      <point x="292" y="-133" type="curve" smooth="yes"/>
      <point x="292" y="-141"/>
      <point x="298" y="-142"/>
      <point x="305" y="-142" type="curve" smooth="yes"/>
      <point x="514" y="-142" type="line" smooth="yes"/>
      <point x="526" y="-142"/>
      <point x="532" y="-138"/>
      <point x="532" y="-126" type="curve" smooth="yes"/>
      <point x="532" y="-118"/>
      <point x="522" y="-117"/>
      <point x="510" y="-117" type="curve" smooth="yes"/>
      <point x="488" y="-117"/>
      <point x="455" y="-122"/>
      <point x="455" y="-105" type="curve" smooth="yes"/>
      <point x="455" y="-100"/>
      <point x="457" y="-95"/>
      <point x="458" y="-90" type="curve"/>
      <point x="463" y="-76"/>
      <point x="479" y="1"/>
      <point x="501" y="1" type="curve" smooth="yes"/>
      <point x="515" y="1"/>
      <point x="522" y="-20"/>
      <point x="560" y="-20" type="curve" smooth="yes"/>
      <point x="636" y="-20"/>
      <point x="693" y="65"/>
      <point x="693" y="135" type="curve" smooth="yes"/>
      <point x="693" y="177"/>
      <point x="681" y="221"/>
      <point x="631" y="221" type="curve" smooth="yes"/>
      <point x="591" y="221"/>
      <point x="566" y="194"/>
      <point x="551" y="194" type="curve" smooth="yes"/>
      <point x="534" y="194"/>
      <point x="530" y="221"/>
      <point x="502" y="221" type="curve" smooth="yes"/>
      <point x="456" y="221"/>
      <point x="374" y="156"/>
      <point x="374" y="116" type="curve" smooth="yes"/>
      <point x="374" y="112"/>
      <point x="376" y="107"/>
      <point x="381" y="107" type="curve" smooth="yes"/>
      <point x="397" y="107"/>
      <point x="427" y="174"/>
      <point x="459" y="174" type="curve" smooth="yes"/>
      <point x="466" y="174"/>
      <point x="467" y="170"/>
      <point x="467" y="164" type="curve" smooth="yes"/>
      <point x="467" y="151"/>
      <point x="458" y="126"/>
      <point x="454" y="114" type="curve" smooth="yes"/>
      <point x="386" y="-78" type="line" smooth="yes"/>
      <point x="374" y="-113"/>
      <point x="353" y="-118"/>
      <point x="334" y="-118" type="curve" smooth="yes"/>
      <point x="312" y="-118"/>
      <point x="292" y="-110"/>
    </contour>
    <contour>
      <point x="67" y="171" type="curve" smooth="yes"/>
      <point x="67" y="134"/>
      <point x="-2" y="35"/>
      <point x="-2" y="6" type="curve" smooth="yes"/>
      <point x="-2" y="1"/>
      <point x="2" y="0"/>
      <point x="7" y="0" type="curve" smooth="yes"/>
      <point x="18" y="0"/>
      <point x="50" y="-6"/>
      <point x="56" y="7" type="curve" smooth="yes"/>
      <point x="103" y="114" type="line"/>
      <point x="113" y="134"/>
      <point x="138" y="180"/>
      <point x="164" y="180" type="curve" smooth="yes"/>
      <point x="172" y="180"/>
      <point x="177" y="176"/>
      <point x="177" y="168" type="curve" smooth="yes"/>
      <point x="177" y="130"/>
      <point x="110" y="31"/>
      <point x="110" y="6" type="curve" smooth="yes"/>
      <point x="110" y="0"/>
      <point x="116" y="0"/>
      <point x="122" y="0" type="curve" smooth="yes"/>
      <point x="134" y="0"/>
      <point x="162" y="-6"/>
      <point x="169" y="10" type="curve" smooth="yes"/>
      <point x="218" y="117" type="line"/>
      <point x="226" y="137"/>
      <point x="252" y="180"/>
      <point x="277" y="180" type="curve" smooth="yes"/>
      <point x="284" y="180"/>
      <point x="290" y="177"/>
      <point x="290" y="168" type="curve" smooth="yes"/>
      <point x="290" y="135"/>
      <point x="234" y="82"/>
      <point x="234" y="35" type="curve" smooth="yes"/>
      <point x="234" y="6"/>
      <point x="255" y="-9"/>
      <point x="284" y="-9" type="curve" smooth="yes"/>
      <point x="310" y="-9"/>
      <point x="366" y="30"/>
      <point x="366" y="55" type="curve" smooth="yes"/>
      <point x="366" y="61"/>
      <point x="354" y="70"/>
      <point x="349" y="70" type="curve" smooth="yes"/>
      <point x="339" y="70"/>
      <point x="321" y="25"/>
      <point x="296" y="25" type="curve" smooth="yes"/>
      <point x="290" y="25"/>
      <point x="288" y="29"/>
      <point x="288" y="34" type="curve" smooth="yes"/>
      <point x="288" y="62"/>
      <point x="344" y="120"/>
      <point x="344" y="165" type="curve" smooth="yes"/>
      <point x="344" y="197"/>
      <point x="322" y="214"/>
      <point x="290" y="214" type="curve" smooth="yes"/>
      <point x="263" y="214"/>
      <point x="242" y="188"/>
      <point x="232" y="188" type="curve" smooth="yes"/>
      <point x="224" y="188"/>
      <point x="215" y="214"/>
      <point x="178" y="214" type="curve" smooth="yes"/>
      <point x="151" y="214"/>
      <point x="142" y="194"/>
      <point x="122" y="187" type="curve"/>
      <point x="103" y="197"/>
      <point x="111" y="214"/>
      <point x="71" y="214" type="curve" smooth="yes"/>
      <point x="46" y="214"/>
      <point x="-11" y="173"/>
      <point x="-11" y="149" type="curve" smooth="yes"/>
      <point x="-11" y="143"/>
      <point x="1" y="136"/>
      <point x="6" y="136" type="curve" smooth="yes"/>
      <point x="18" y="136"/>
      <point x="34" y="180"/>
      <point x="59" y="180" type="curve" smooth="yes"/>
      <point x="65" y="180"/>
      <point x="67" y="176"/>
    </contour>
    <contour>
      <point x="610" y="194" type="curve" smooth="yes"/>
      <point x="622" y="194"/>
      <point x="626" y="186"/>
      <point x="626" y="175" type="curve" smooth="yes"/>
      <point x="626" y="145"/>
      <point x="586" y="6"/>
      <point x="550" y="6" type="curve" smooth="yes"/>
      <point x="529" y="6"/>
      <point x="525" y="30"/>
      <point x="525" y="46" type="curve" smooth="yes"/>
      <point x="525" y="87"/>
      <point x="558" y="194"/>
    </contour>
  </outline>
</glyph>
<glyph name="Q" format="2">
  <advance width="262"/>
  <unicode hex="0051"/>
  <outline>
    <contour>
      <point x="186" y="519" type="curve" smooth="yes"/>
      <point x="225" y="546"/>
      <point x="262" y="595"/>
      <point x="262" y="640" type="curve" smooth="yes"/>
      <point x="262" y="654"/>
      <point x="258" y="668"/>
      <point x="250" y="680" type="curve" smooth="yes"/>
      <point x="234" y="704"/>
      <point x="207" y="713"/>
      <point x="178" y="713" type="curve" smooth="yes"/>
      <point x="143" y="713"/>
      <point x="105" y="700"/>
      <point x="77" y="681" type="curve" smooth="yes"/>
      <point x="38" y="654"/>
      <point x="1" y="606"/>
      <point x="1" y="561" type="curve"/>
      <point x="0" y="347"/>
      <point x="1" y="134"/>
      <point x="1" y="-80" type="curve"/>
      <point x="22" y="-80" type="line"/>
      <point x="22" y="497" type="line" smooth="yes"/>
      <point x="22" y="499"/>
      <point x="29" y="502"/>
      <point x="32" y="501" type="curve"/>
      <point x="46" y="491"/>
      <point x="65" y="487"/>
      <point x="85" y="487" type="curve" smooth="yes"/>
      <point x="119" y="487"/>
      <point x="158" y="500"/>
    </contour>
  </outline>
</glyph>
<glyph name="R" format="2">
  <advance width="234"/>
  <unicode hex="0052"/>
  <outline>
    <contour>
      <point x="0" y="-341" type="line"/>
      <point x="0" y="-341"/>
      <point x="21" y="-341"/>
      <point x="21" y="-341" type="curve"/>
      <point x="21" y="-302"/>
      <point x="50" y="-271"/>
      <point x="101" y="-231" type="curve" smooth="yes"/>
      <point x="164" y="-181"/>
      <point x="220" y="-112"/>
      <point x="220" y="-18" type="curve" smooth="yes"/>
      <point x="220" y="11"/>
      <point x="214" y="36"/>
      <point x="207" y="54" type="curve"/>
      <point x="223" y="86"/>
      <point x="234" y="126"/>
      <point x="234" y="174" type="curve" smooth="yes"/>
      <point x="234" y="190"/>
      <point x="222" y="298"/>
      <point x="195" y="298" type="curve" smooth="yes"/>
      <point x="190" y="298"/>
      <point x="186" y="293"/>
      <point x="186" y="286" type="curve" smooth="yes"/>
      <point x="186" y="282"/>
      <point x="186" y="278"/>
      <point x="188" y="274" type="curve" smooth="yes"/>
      <point x="195" y="257"/>
      <point x="206" y="210"/>
      <point x="206" y="173" type="curve" smooth="yes"/>
      <point x="206" y="90"/>
      <point x="173" y="42"/>
      <point x="118" y="12" type="curve" smooth="yes"/>
      <point x="94" y="-2"/>
      <point x="60" y="-10"/>
      <point x="33" y="-10" type="curve" smooth="yes"/>
      <point x="26" y="-10"/>
      <point x="20" y="-5"/>
      <point x="20" y="0" type="curve"/>
      <point x="20" y="0"/>
      <point x="0" y="0"/>
      <point x="0" y="0" type="curve"/>
    </contour>
    <contour>
      <point x="189" y="23" type="curve"/>
      <point x="191" y="10"/>
      <point x="194" y="-3"/>
      <point x="194" y="-18" type="curve" smooth="yes"/>
      <point x="194" y="-77"/>
      <point x="166" y="-136"/>
      <point x="97" y="-169" type="curve" smooth="yes"/>
      <point x="78" y="-178"/>
      <point x="54" y="-184"/>
      <point x="34" y="-184" type="curve" smooth="yes"/>
      <point x="28" y="-184"/>
      <point x="23" y="-181"/>
      <point x="22" y="-177" type="curve"/>
      <point x="25" y="-148"/>
      <point x="39" y="-125"/>
      <point x="50" y="-112" type="curve" smooth="yes"/>
      <point x="84" y="-73"/>
      <point x="146" y="-38"/>
    </contour>
  </outline>
</glyph>
<glyph name="S" format="2">
  <advance width="523"/>
  <unicode hex="0053"/>
  <outline>
    <contour>
      <point x="154" y="-106" type="curve" smooth="yes"/>
      <point x="146" y="-106"/>
      <point x="138" y="-104"/>
      <point x="138" y="-98" type="curve" smooth="yes"/>
      <point x="138" y="-90"/>
      <point x="160" y="-87"/>
      <point x="160" y="-60" type="curve" smooth="yes"/>
      <point x="160" y="-45"/>
      <point x="149" y="-28"/>
      <point x="126" y="-28" type="curve" smooth="yes"/>
      <point x="102" y="-28"/>
      <point x="86" y="-48"/>
      <point x="86" y="-70" type="curve" smooth="yes"/>
      <point x="86" y="-103"/>
      <point x="120" y="-129"/>
      <point x="155" y="-129" type="curve" smooth="yes"/>
      <point x="237" y="-129"/>
      <point x="302" y="-42"/>
      <point x="337" y="90" type="curve" smooth="yes"/>
      <point x="355" y="159" type="line" smooth="yes"/>
      <point x="360" y="179"/>
      <point x="363" y="183"/>
      <point x="380" y="183" type="curve" smooth="yes"/>
      <point x="422" y="183" type="line" smooth="yes"/>
      <point x="430" y="183"/>
      <point x="433" y="183"/>
      <point x="438" y="197" type="curve" smooth="yes"/>
      <point x="442" y="208"/>
      <point x="438" y="210"/>
      <point x="430" y="210" type="curve" smooth="yes"/>
      <point x="390" y="210" type="line" smooth="yes"/>
      <point x="378" y="210"/>
      <point x="373" y="211"/>
      <point x="373" y="218" type="curve" smooth="yes"/>
      <point x="373" y="221"/>
      <point x="374" y="225"/>
      <point x="375" y="230" type="curve" smooth="yes"/>
      <point x="398" y="306"/>
      <point x="417" y="334"/>
      <point x="454" y="334" type="curve" smooth="yes"/>
      <point x="462" y="334"/>
      <point x="470" y="332"/>
      <point x="470" y="326" type="curve" smooth="yes"/>
      <point x="470" y="318"/>
      <point x="449" y="315"/>
      <point x="449" y="288" type="curve" smooth="yes"/>
      <point x="449" y="273"/>
      <point x="460" y="256"/>
      <point x="482" y="256" type="curve" smooth="yes"/>
      <point x="507" y="256"/>
      <point x="523" y="276"/>
      <point x="523" y="298" type="curve" smooth="yes"/>
      <point x="523" y="331"/>
      <point x="489" y="357"/>
      <point x="454" y="357" type="curve" smooth="yes"/>
      <point x="390" y="357"/>
      <point x="339" y="313"/>
      <point x="304" y="229" type="curve" smooth="yes"/>
      <point x="298" y="213"/>
      <point x="294" y="210"/>
      <point x="276" y="210" type="curve" smooth="yes"/>
      <point x="235" y="210" type="line" smooth="yes"/>
      <point x="223" y="210"/>
      <point x="222" y="210"/>
      <point x="218" y="198" type="curve" smooth="yes"/>
      <point x="214" y="184"/>
      <point x="216" y="183"/>
      <point x="226" y="183" type="curve" smooth="yes"/>
      <point x="267" y="183" type="line" smooth="yes"/>
      <point x="279" y="183"/>
      <point x="284" y="182"/>
      <point x="284" y="174" type="curve" smooth="yes"/>
      <point x="284" y="169"/>
      <point x="282" y="162"/>
      <point x="279" y="151" type="curve" smooth="yes"/>
      <point x="271" y="121" type="line" smooth="yes"/>
      <point x="230" y="-38"/>
      <point x="206" y="-106"/>
    </contour>
    <contour>
      <point x="108" y="197" type="curve" smooth="yes"/>
      <point x="122" y="197"/>
      <point x="139" y="194"/>
      <point x="139" y="186" type="curve" smooth="yes"/>
      <point x="139" y="184"/>
      <point x="138" y="182"/>
      <point x="137" y="179" type="curve"/>
      <point x="134" y="175"/>
      <point x="132" y="169"/>
      <point x="132" y="162" type="curve" smooth="yes"/>
      <point x="132" y="150"/>
      <point x="142" y="136"/>
      <point x="160" y="136" type="curve" smooth="yes"/>
      <point x="174" y="136"/>
      <point x="188" y="148"/>
      <point x="188" y="165" type="curve" smooth="yes"/>
      <point x="188" y="193"/>
      <point x="156" y="218"/>
      <point x="111" y="218" type="curve" smooth="yes"/>
      <point x="69" y="218"/>
      <point x="33" y="187"/>
      <point x="33" y="150" type="curve" smooth="yes"/>
      <point x="33" y="81"/>
      <point x="126" y="85"/>
      <point x="126" y="46" type="curve" smooth="yes"/>
      <point x="126" y="29"/>
      <point x="112" y="15"/>
      <point x="84" y="15" type="curve" smooth="yes"/>
      <point x="65" y="15"/>
      <point x="50" y="18"/>
      <point x="50" y="28" type="curve" smooth="yes"/>
      <point x="50" y="30"/>
      <point x="51" y="32"/>
      <point x="53" y="34" type="curve"/>
      <point x="56" y="41"/>
      <point x="58" y="46"/>
      <point x="58" y="54" type="curve" smooth="yes"/>
      <point x="58" y="70"/>
      <point x="46" y="81"/>
      <point x="30" y="81" type="curve" smooth="yes"/>
      <point x="13" y="81"/>
      <point x="0" y="67"/>
      <point x="0" y="47" type="curve" smooth="yes"/>
      <point x="0" y="19"/>
      <point x="35" y="-7"/>
      <point x="83" y="-7" type="curve" smooth="yes"/>
      <point x="131" y="-7"/>
      <point x="168" y="21"/>
      <point x="168" y="63" type="curve" smooth="yes"/>
      <point x="168" y="126"/>
      <point x="70" y="134"/>
      <point x="70" y="173" type="curve" smooth="yes"/>
      <point x="70" y="187"/>
      <point x="86" y="197"/>
    </contour>
  </outline>
</glyph>
<glyph name="T" format="2">
  <advance width="448"/>
  <unicode hex="0054"/>
  <outline>
    <contour>
      <point x="0" y="-2" type="curve" smooth="yes"/>
      <point x="0" y="-59"/>
      <point x="37" y="-107"/>
      <point x="91" y="-107" type="curve" smooth="yes"/>
      <point x="122" y="-107"/>
      <point x="142" y="-90"/>
      <point x="142" y="-67" type="curve" smooth="yes"/>
      <point x="142" y="-48"/>
      <point x="130" y="-35"/>
      <point x="110" y="-35" type="curve" smooth="yes"/>
      <point x="84" y="-35"/>
      <point x="82" y="-61"/>
      <point x="63" y="-61" type="curve" smooth="yes"/>
      <point x="35" y="-61"/>
      <point x="26" y="-26"/>
      <point x="26" y="-3" type="curve" smooth="yes"/>
      <point x="26" y="38"/>
      <point x="57" y="64"/>
      <point x="86" y="64" type="curve" smooth="yes"/>
      <point x="109" y="64"/>
      <point x="130" y="44"/>
      <point x="146" y="31" type="curve"/>
      <point x="260" y="-68" type="line" smooth="yes"/>
      <point x="290" y="-95"/>
      <point x="314" y="-107"/>
      <point x="346" y="-107" type="curve" smooth="yes"/>
      <point x="405" y="-107"/>
      <point x="448" y="-54"/>
      <point x="448" y="2" type="curve" smooth="yes"/>
      <point x="448" y="59"/>
      <point x="411" y="107"/>
      <point x="357" y="107" type="curve" smooth="yes"/>
      <point x="326" y="107"/>
      <point x="306" y="90"/>
      <point x="306" y="67" type="curve" smooth="yes"/>
      <point x="306" y="48"/>
      <point x="318" y="35"/>
      <point x="338" y="35" type="curve" smooth="yes"/>
      <point x="364" y="35"/>
      <point x="366" y="61"/>
      <point x="385" y="61" type="curve" smooth="yes"/>
      <point x="413" y="61"/>
      <point x="422" y="26"/>
      <point x="422" y="3" type="curve" smooth="yes"/>
      <point x="422" y="-38"/>
      <point x="391" y="-64"/>
      <point x="362" y="-64" type="curve" smooth="yes"/>
      <point x="339" y="-64"/>
      <point x="318" y="-44"/>
      <point x="302" y="-31" type="curve"/>
      <point x="188" y="68" type="line" smooth="yes"/>
      <point x="158" y="95"/>
      <point x="134" y="107"/>
      <point x="102" y="107" type="curve" smooth="yes"/>
      <point x="43" y="107"/>
      <point x="0" y="54"/>
    </contour>
  </outline>
</glyph>
<glyph name="U" format="2">
  <advance width="480"/>
  <unicode hex="0055"/>
  <outline>
    <contour>
      <point x="480" y="-41" type="line"/>
      <point x="480" y="122"/>
      <point x="383" y="254"/>
      <point x="240" y="254" type="curve" smooth="yes"/>
      <point x="98" y="254"/>
      <point x="0" y="122"/>
      <point x="0" y="-41" type="curve"/>
      <point x="20" y="-41" type="line"/>
      <point x="20" y="54"/>
      <point x="70" y="158"/>
      <point x="240" y="158" type="curve" smooth="yes"/>
      <point x="410" y="158"/>
      <point x="460" y="54"/>
      <point x="460" y="-41" type="curve"/>
    </contour>
    <contour>
      <point x="185" y="15" type="curve" smooth="yes"/>
      <point x="185" y="-15"/>
      <point x="210" y="-40"/>
      <point x="240" y="-40" type="curve" smooth="yes"/>
      <point x="270" y="-40"/>
      <point x="295" y="-15"/>
      <point x="295" y="15" type="curve" smooth="yes"/>
      <point x="295" y="46"/>
      <point x="270" y="70"/>
      <point x="240" y="70" type="curve" smooth="yes"/>
      <point x="210" y="70"/>
      <point x="185" y="46"/>
    </contour>
  </outline>
</glyph>
<glyph name="V" format="2">
  <advance width="525"/>
  <unicode hex="0056"/>
  <outline>
    <contour>
      <point x="333" y="-551" type="curve"/>
      <point x="332" y="-532"/>
      <point x="321" y="-518"/>
      <point x="305" y="-510" type="curve"/>
      <point x="372" y="-490"/>
      <point x="412" y="-426"/>
      <point x="410" y="-351" type="curve"/>
      <point x="410" y="-310"/>
      <point x="402" y="-266"/>
      <point x="392" y="-226" type="curve" smooth="yes"/>
      <point x="389" y="-213"/>
      <point x="383" y="-200"/>
      <point x="383" y="-186" type="curve" smooth="yes"/>
      <point x="383" y="-181"/>
      <point x="386" y="-175"/>
      <point x="391" y="-172" type="curve" smooth="yes"/>
      <point x="406" y="-163"/>
      <point x="422" y="-157"/>
      <point x="437" y="-147" type="curve" smooth="yes"/>
      <point x="491" y="-110"/>
      <point x="525" y="-50"/>
      <point x="524" y="16" type="curve" smooth="yes"/>
      <point x="522" y="132"/>
      <point x="424" y="214"/>
      <point x="311" y="211" type="curve"/>
      <point x="305" y="211"/>
      <point x="298" y="210"/>
      <point x="291" y="210" type="curve"/>
      <point x="260" y="339" type="line"/>
      <point x="359" y="428"/>
      <point x="418" y="547"/>
      <point x="417" y="681" type="curve"/>
      <point x="415" y="740"/>
      <point x="373" y="903"/>
      <point x="314" y="928" type="curve"/>
      <point x="298" y="924"/>
      <point x="273" y="892"/>
      <point x="262" y="879" type="curve" smooth="yes"/>
      <point x="206" y="807"/>
      <point x="170" y="716"/>
      <point x="171" y="624" type="curve"/>
      <point x="173" y="558"/>
      <point x="191" y="493"/>
      <point x="207" y="428" type="curve"/>
      <point x="106" y="322"/>
      <point x="-2" y="212"/>
      <point x="1" y="54" type="curve" smooth="yes"/>
      <point x="3" y="-98"/>
      <point x="130" y="-198"/>
      <point x="277" y="-196" type="curve"/>
      <point x="298" y="-195"/>
      <point x="319" y="-189"/>
      <point x="341" y="-189" type="curve" smooth="yes"/>
      <point x="345" y="-189"/>
      <point x="351" y="-191"/>
      <point x="353" y="-196" type="curve" smooth="yes"/>
      <point x="366" y="-234"/>
      <point x="377" y="-309"/>
      <point x="378" y="-350" type="curve" smooth="yes"/>
      <point x="379" y="-429"/>
      <point x="332" y="-483"/>
      <point x="252" y="-484" type="curve"/>
      <point x="236" y="-485"/>
      <point x="220" y="-482"/>
      <point x="205" y="-474" type="curve"/>
      <point x="202" y="-468" type="line"/>
      <point x="203" y="-466" type="line"/>
      <point x="242" y="-455"/>
      <point x="271" y="-418"/>
      <point x="270" y="-377" type="curve"/>
      <point x="270" y="-327"/>
      <point x="228" y="-288"/>
      <point x="178" y="-289" type="curve" smooth="yes"/>
      <point x="128" y="-290"/>
      <point x="90" y="-335"/>
      <point x="90" y="-384" type="curve"/>
      <point x="92" y="-463"/>
      <point x="169" y="-509"/>
      <point x="240" y="-516" type="curve"/>
      <point x="228" y="-525"/>
      <point x="219" y="-538"/>
      <point x="219" y="-555" type="curve" smooth="yes"/>
      <point x="219" y="-570"/>
      <point x="228" y="-579"/>
      <point x="233" y="-593" type="curve"/>
      <point x="221" y="-613"/>
      <point x="197" y="-616"/>
      <point x="198" y="-647" type="curve"/>
      <point x="198" y="-678"/>
      <point x="226" y="-697"/>
      <point x="255" y="-696" type="curve"/>
      <point x="286" y="-696"/>
      <point x="322" y="-674"/>
      <point x="321" y="-639" type="curve"/>
      <point x="321" y="-621"/>
      <point x="306" y="-604"/>
      <point x="306" y="-600" type="curve" smooth="yes"/>
      <point x="306" y="-593"/>
      <point x="333" y="-578"/>
    </contour>
    <contour>
      <point x="246" y="468" type="curve"/>
      <point x="245" y="468"/>
      <point x="241" y="466"/>
      <point x="239" y="466" type="curve" smooth="yes"/>
      <point x="236" y="466"/>
      <point x="233" y="467"/>
      <point x="230" y="470" type="curve"/>
      <point x="223" y="505"/>
      <point x="215" y="541"/>
      <point x="214" y="577" type="curve" smooth="yes"/>
      <point x="213" y="654"/>
      <point x="254" y="809"/>
      <point x="350" y="810" type="curve"/>
      <point x="378" y="810"/>
      <point x="381" y="735"/>
      <point x="381" y="716" type="curve"/>
      <point x="382" y="616"/>
      <point x="312" y="535"/>
    </contour>
    <contour>
      <point x="224" y="302" type="curve"/>
      <point x="225" y="302"/>
      <point x="226" y="303"/>
      <point x="228" y="303" type="curve"/>
      <point x="244" y="304"/>
      <point x="254" y="222"/>
      <point x="259" y="202" type="curve"/>
      <point x="190" y="180"/>
      <point x="137" y="113"/>
      <point x="138" y="39" type="curve" smooth="yes"/>
      <point x="139" y="-16"/>
      <point x="172" y="-74"/>
      <point x="226" y="-94" type="curve"/>
      <point x="226" y="-94"/>
      <point x="231" y="-95"/>
      <point x="232" y="-95" type="curve"/>
      <point x="236" y="-95"/>
      <point x="238" y="-92"/>
      <point x="238" y="-89" type="curve" smooth="yes"/>
      <point x="238" y="-83"/>
      <point x="197" y="-34"/>
      <point x="196" y="12" type="curve" smooth="yes"/>
      <point x="195" y="53"/>
      <point x="236" y="101"/>
      <point x="273" y="102" type="curve"/>
      <point x="276" y="102"/>
      <point x="284" y="99"/>
      <point x="285" y="95" type="curve" smooth="yes"/>
      <point x="340" y="-146" type="line"/>
      <point x="345" y="-164"/>
      <point x="291" y="-165"/>
      <point x="281" y="-165" type="curve"/>
      <point x="160" y="-167"/>
      <point x="62" y="-102"/>
      <point x="59" y="26" type="curve" smooth="yes"/>
      <point x="57" y="150"/>
      <point x="144" y="223"/>
    </contour>
    <contour>
      <point x="462" y="-11" type="curve" smooth="yes"/>
      <point x="463" y="-69"/>
      <point x="435" y="-118"/>
      <point x="382" y="-142" type="curve"/>
      <point x="382" y="-142" type="line"/>
      <point x="379" y="-142"/>
      <point x="372" y="-138"/>
      <point x="371" y="-136" type="curve" smooth="yes"/>
      <point x="318" y="95" type="line"/>
      <point x="316" y="101"/>
      <point x="327" y="110"/>
      <point x="333" y="110" type="curve" smooth="yes"/>
      <point x="407" y="110"/>
      <point x="461" y="66"/>
    </contour>
    <contour>
      <point x="308" y="-552" type="curve" smooth="yes"/>
      <point x="308" y="-564"/>
      <point x="297" y="-579"/>
      <point x="284" y="-579" type="curve" smooth="yes"/>
      <point x="270" y="-579"/>
      <point x="253" y="-559"/>
      <point x="252" y="-545" type="curve"/>
      <point x="252" y="-532"/>
      <point x="267" y="-526"/>
      <point x="278" y="-526" type="curve" smooth="yes"/>
      <point x="294" y="-526"/>
      <point x="308" y="-536"/>
    </contour>
    <contour>
      <point x="286" y="-650" type="curve"/>
      <point x="287" y="-667"/>
      <point x="270" y="-674"/>
      <point x="255" y="-674" type="curve" smooth="yes"/>
      <point x="238" y="-674"/>
      <point x="222" y="-664"/>
      <point x="222" y="-646" type="curve" smooth="yes"/>
      <point x="222" y="-632"/>
      <point x="238" y="-613"/>
      <point x="253" y="-613" type="curve" smooth="yes"/>
      <point x="270" y="-613"/>
      <point x="286" y="-635"/>
    </contour>
  </outline>
</glyph>
<glyph name="W" format="2">
  <advance width="402"/>
  <unicode hex="0057"/>
  <outline>
    <contour>
      <point x="335" y="236" type="line"/>
      <point x="312" y="295"/>
      <point x="228" y="313"/>
      <point x="172" y="313" type="curve" smooth="yes"/>
      <point x="114" y="313"/>
      <point x="23" y="294"/>
      <point x="0" y="232" type="curve"/>
      <point x="0" y="297" type="line" smooth="yes"/>
      <point x="0" y="309"/>
      <point x="-1" y="315"/>
      <point x="-11" y="315" type="curve" smooth="yes"/>
      <point x="-22" y="315"/>
      <point x="-25" y="310"/>
      <point x="-25" y="295" type="curve" smooth="yes"/>
      <point x="-25" y="102" type="line" smooth="yes"/>
      <point x="-25" y="90"/>
      <point x="-23" y="83"/>
      <point x="-12" y="83" type="curve" smooth="yes"/>
      <point x="-2" y="83"/>
      <point x="0" y="90"/>
      <point x="0" y="104" type="curve" smooth="yes"/>
      <point x="0" y="166" type="line"/>
      <point x="23" y="106"/>
      <point x="108" y="89"/>
      <point x="164" y="89" type="curve" smooth="yes"/>
      <point x="222" y="89"/>
      <point x="311" y="108"/>
      <point x="335" y="169" type="curve"/>
      <point x="335" y="102" type="line" smooth="yes"/>
      <point x="335" y="90"/>
      <point x="337" y="83"/>
      <point x="348" y="83" type="curve" smooth="yes"/>
      <point x="358" y="83"/>
      <point x="360" y="90"/>
      <point x="360" y="104" type="curve" smooth="yes"/>
      <point x="360" y="297" type="line" smooth="yes"/>
      <point x="360" y="309"/>
      <point x="359" y="315"/>
      <point x="349" y="315" type="curve" smooth="yes"/>
      <point x="338" y="315"/>
      <point x="335" y="310"/>
      <point x="335" y="295" type="curve" smooth="yes"/>
    </contour>
    <contour>
      <point x="402" y="297" type="line" smooth="yes"/>
      <point x="402" y="309"/>
      <point x="401" y="315"/>
      <point x="390" y="315" type="curve" smooth="yes"/>
      <point x="379" y="315"/>
      <point x="377" y="310"/>
      <point x="377" y="295" type="curve" smooth="yes"/>
      <point x="377" y="102" type="line" smooth="yes"/>
      <point x="377" y="90"/>
      <point x="378" y="83"/>
      <point x="390" y="83" type="curve" smooth="yes"/>
      <point x="400" y="83"/>
      <point x="402" y="90"/>
      <point x="402" y="104" type="curve" smooth="yes"/>
    </contour>
    <contour>
      <point x="-41" y="297" type="line" smooth="yes"/>
      <point x="-41" y="309"/>
      <point x="-42" y="315"/>
      <point x="-52" y="315" type="curve" smooth="yes"/>
      <point x="-63" y="315"/>
      <point x="-66" y="310"/>
      <point x="-66" y="295" type="curve" smooth="yes"/>
      <point x="-66" y="102" type="line" smooth="yes"/>
      <point x="-66" y="90"/>
      <point x="-64" y="83"/>
      <point x="-53" y="83" type="curve" smooth="yes"/>
      <point x="-42" y="83"/>
      <point x="-41" y="90"/>
      <point x="-41" y="104" type="curve" smooth="yes"/>
    </contour>
    <contour>
      <point x="238" y="204" type="line" smooth="yes"/>
      <point x="242" y="190"/>
      <point x="246" y="174"/>
      <point x="246" y="158" type="curve" smooth="yes"/>
      <point x="246" y="134"/>
      <point x="235" y="114"/>
      <point x="197" y="109" type="curve" smooth="yes"/>
      <point x="193" y="108"/>
      <point x="188" y="108"/>
      <point x="184" y="108" type="curve" smooth="yes"/>
      <point x="146" y="108"/>
      <point x="118" y="130"/>
      <point x="110" y="159" type="curve"/>
      <point x="98" y="195" type="line"/>
      <point x="94" y="210"/>
      <point x="90" y="227"/>
      <point x="90" y="242" type="curve" smooth="yes"/>
      <point x="90" y="282"/>
      <point x="119" y="294"/>
      <point x="153" y="294" type="curve" smooth="yes"/>
      <point x="190" y="294"/>
      <point x="218" y="274"/>
      <point x="226" y="242" type="curve"/>
    </contour>
  </outline>
</glyph>
<glyph name="X" format="2">
  <advance width="261"/>
  <unicode hex="0058"/>
  <outline>
    <contour>
      <point x="22" y="-80" type="line"/>
      <point x="22" y="-42"/>
      <point x="50" y="-10"/>
      <point x="101" y="30" type="curve" smooth="yes"/>
      <point x="164" y="80"/>
      <point x="220" y="149"/>
      <point x="220" y="243" type="curve" smooth="yes"/>
      <point x="220" y="279"/>
      <point x="211" y="308"/>
      <point x="202" y="327" type="curve"/>
      <point x="214" y="361"/>
      <point x="220" y="399"/>
      <point x="220" y="444" type="curve" smooth="yes"/>
      <point x="220" y="477"/>
      <point x="214" y="510"/>
      <point x="207" y="538" type="curve"/>
      <point x="237" y="565"/>
      <point x="261" y="604"/>
      <point x="261" y="640" type="curve" smooth="yes"/>
      <point x="261" y="654"/>
      <point x="258" y="668"/>
      <point x="249" y="680" type="curve"/>
      <point x="234" y="704"/>
      <point x="206" y="713"/>
      <point x="177" y="713" type="curve" smooth="yes"/>
      <point x="142" y="713"/>
      <point x="104" y="700"/>
      <point x="76" y="681" type="curve" smooth="yes"/>
      <point x="37" y="654"/>
      <point x="1" y="606"/>
      <point x="0" y="561" type="curve"/>
      <point x="0" y="-80" type="line"/>
    </contour>
    <contour>
      <point x="185" y="519" type="curve"/>
      <point x="190" y="497"/>
      <point x="194" y="471"/>
      <point x="194" y="443" type="curve" smooth="yes"/>
      <point x="194" y="346"/>
      <point x="137" y="244"/>
      <point x="34" y="244" type="curve" smooth="yes"/>
      <point x="26" y="244"/>
      <point x="21" y="250"/>
      <point x="21" y="254" type="curve" smooth="yes"/>
      <point x="21" y="497" type="line" smooth="yes"/>
      <point x="21" y="499"/>
      <point x="28" y="502"/>
      <point x="31" y="501" type="curve"/>
      <point x="46" y="491"/>
      <point x="64" y="487"/>
      <point x="84" y="487" type="curve" smooth="yes"/>
      <point x="118" y="487"/>
      <point x="157" y="500"/>
    </contour>
    <contour>
      <point x="22" y="86" type="curve" smooth="yes"/>
      <point x="22" y="118"/>
      <point x="54" y="158"/>
      <point x="101" y="194" type="curve" smooth="yes"/>
      <point x="138" y="222"/>
      <point x="166" y="254"/>
      <point x="186" y="292" type="curve"/>
      <point x="190" y="278"/>
      <point x="194" y="261"/>
      <point x="194" y="242" type="curve" smooth="yes"/>
      <point x="194" y="184"/>
      <point x="166" y="125"/>
      <point x="97" y="92" type="curve" smooth="yes"/>
      <point x="78" y="83"/>
      <point x="54" y="77"/>
      <point x="34" y="77" type="curve" smooth="yes"/>
      <point x="27" y="77"/>
      <point x="22" y="82"/>
    </contour>
  </outline>
</glyph>
<glyph name="Y" format="2">
  <advance width="317"/>
  <unicode hex="0059"/>
  <outline>
    <contour>
      <point x="317" y="283" type="line" smooth="yes"/>
      <point x="317" y="307"/>
      <point x="314" y="308"/>
      <point x="292" y="308" type="curve" smooth="yes"/>
      <point x="18" y="308" type="line" smooth="yes"/>
      <point x="0" y="308"/>
      <point x="0" y="307"/>
      <point x="0" y="289" type="curve" smooth="yes"/>
      <point x="0" y="220" type="line" smooth="yes"/>
      <point x="0" y="145"/>
      <point x="72" y="88"/>
      <point x="158" y="88" type="curve" smooth="yes"/>
      <point x="242" y="88"/>
      <point x="317" y="142"/>
      <point x="317" y="220" type="curve" smooth="yes"/>
    </contour>
    <contour>
      <point x="27" y="261" type="line" smooth="yes"/>
      <point x="27" y="278"/>
      <point x="30" y="281"/>
      <point x="49" y="281" type="curve" smooth="yes"/>
      <point x="266" y="281" type="line" smooth="yes"/>
      <point x="287" y="281"/>
      <point x="290" y="277"/>
      <point x="290" y="261" type="curve" smooth="yes"/>
      <point x="290" y="220" type="line" smooth="yes"/>
      <point x="290" y="162"/>
      <point x="232" y="115"/>
      <point x="158" y="115" type="curve" smooth="yes"/>
      <point x="82" y="115"/>
      <point x="27" y="165"/>
      <point x="27" y="220" type="curve" smooth="yes"/>
    </contour>
  </outline>
</glyph>
<glyph name="Z" format="2">
  <advance width="474"/>
  <unicode hex="005A"/>
  <outline>
    <contour>
      <point x="4" y="-93" type="curve" smooth="yes"/>
      <point x="-3" y="-93"/>
      <point x="-11" y="-90"/>
      <point x="-11" y="-85" type="curve" smooth="yes"/>
      <point x="-11" y="-76"/>
      <point x="10" y="-74"/>
      <point x="10" y="-46" type="curve" smooth="yes"/>
      <point x="10" y="-31"/>
      <point x="-1" y="-14"/>
      <point x="-23" y="-14" type="curve" smooth="yes"/>
      <point x="-48" y="-14"/>
      <point x="-64" y="-34"/>
      <point x="-64" y="-57" type="curve" smooth="yes"/>
      <point x="-64" y="-90"/>
      <point x="-30" y="-115"/>
      <point x="6" y="-115" type="curve" smooth="yes"/>
      <point x="87" y="-115"/>
      <point x="145" y="-42"/>
      <point x="180" y="90" type="curve" smooth="yes"/>
      <point x="198" y="159" type="line"/>
      <point x="204" y="179"/>
      <point x="206" y="183"/>
      <point x="223" y="183" type="curve" smooth="yes"/>
      <point x="265" y="183" type="line" smooth="yes"/>
      <point x="273" y="183"/>
      <point x="276" y="183"/>
      <point x="281" y="197" type="curve" smooth="yes"/>
      <point x="285" y="208"/>
      <point x="281" y="210"/>
      <point x="273" y="210" type="curve" smooth="yes"/>
      <point x="233" y="210" type="line" smooth="yes"/>
      <point x="222" y="210"/>
      <point x="216" y="211"/>
      <point x="216" y="218" type="curve" smooth="yes"/>
      <point x="216" y="221"/>
      <point x="217" y="225"/>
      <point x="218" y="230" type="curve"/>
      <point x="242" y="306"/>
      <point x="260" y="334"/>
      <point x="298" y="334" type="curve" smooth="yes"/>
      <point x="305" y="334"/>
      <point x="314" y="332"/>
      <point x="314" y="326" type="curve" smooth="yes"/>
      <point x="314" y="318"/>
      <point x="292" y="315"/>
      <point x="292" y="288" type="curve" smooth="yes"/>
      <point x="292" y="273"/>
      <point x="303" y="256"/>
      <point x="326" y="256" type="curve" smooth="yes"/>
      <point x="350" y="256"/>
      <point x="366" y="276"/>
      <point x="366" y="298" type="curve" smooth="yes"/>
      <point x="366" y="331"/>
      <point x="332" y="357"/>
      <point x="297" y="357" type="curve" smooth="yes"/>
      <point x="233" y="357"/>
      <point x="182" y="313"/>
      <point x="147" y="229" type="curve" smooth="yes"/>
      <point x="141" y="213"/>
      <point x="138" y="210"/>
      <point x="119" y="210" type="curve" smooth="yes"/>
      <point x="78" y="210" type="line" smooth="yes"/>
      <point x="66" y="210"/>
      <point x="65" y="210"/>
      <point x="62" y="198" type="curve"/>
      <point x="57" y="184"/>
      <point x="59" y="183"/>
      <point x="69" y="183" type="curve" smooth="yes"/>
      <point x="110" y="183" type="line" smooth="yes"/>
      <point x="122" y="183"/>
      <point x="127" y="182"/>
      <point x="127" y="174" type="curve" smooth="yes"/>
      <point x="127" y="169"/>
      <point x="125" y="162"/>
      <point x="122" y="151" type="curve" smooth="yes"/>
      <point x="114" y="121" type="line" smooth="yes"/>
      <point x="73" y="-38"/>
      <point x="56" y="-93"/>
    </contour>
    <contour>
      <point x="423" y="24" type="curve" smooth="yes"/>
      <point x="403" y="24"/>
      <point x="378" y="37"/>
      <point x="363" y="46" type="curve"/>
      <point x="353" y="54"/>
      <point x="348" y="58"/>
      <point x="348" y="61" type="curve" smooth="yes"/>
      <point x="348" y="65"/>
      <point x="351" y="69"/>
      <point x="358" y="75" type="curve"/>
      <point x="466" y="193" type="line" smooth="yes"/>
      <point x="470" y="198"/>
      <point x="473" y="203"/>
      <point x="473" y="206" type="curve" smooth="yes"/>
      <point x="473" y="209"/>
      <point x="470" y="210"/>
      <point x="466" y="210" type="curve" smooth="yes"/>
      <point x="459" y="210"/>
      <point x="444" y="210"/>
      <point x="429" y="210" type="curve" smooth="yes"/>
      <point x="388" y="210"/>
      <point x="327" y="214"/>
      <point x="318" y="214" type="curve" smooth="yes"/>
      <point x="311" y="214"/>
      <point x="310" y="212"/>
      <point x="308" y="205" type="curve" smooth="yes"/>
      <point x="283" y="128" type="line" smooth="yes"/>
      <point x="282" y="126"/>
      <point x="282" y="126"/>
      <point x="282" y="125" type="curve"/>
      <point x="282" y="120"/>
      <point x="286" y="119"/>
      <point x="295" y="119" type="curve" smooth="yes"/>
      <point x="300" y="119"/>
      <point x="302" y="119"/>
      <point x="304" y="125" type="curve"/>
      <point x="310" y="137" type="line" smooth="yes"/>
      <point x="316" y="150"/>
      <point x="319" y="160"/>
      <point x="334" y="160" type="curve" smooth="yes"/>
      <point x="338" y="160" type="line"/>
      <point x="384" y="158" type="line"/>
      <point x="390" y="157"/>
      <point x="392" y="155"/>
      <point x="392" y="152" type="curve" smooth="yes"/>
      <point x="392" y="150"/>
      <point x="390" y="146"/>
      <point x="388" y="143" type="curve" smooth="yes"/>
      <point x="266" y="11" type="line" smooth="yes"/>
      <point x="263" y="8"/>
      <point x="262" y="5"/>
      <point x="262" y="3" type="curve" smooth="yes"/>
      <point x="262" y="-1"/>
      <point x="269" y="-2"/>
      <point x="278" y="-2" type="curve" smooth="yes"/>
      <point x="284" y="-2"/>
      <point x="286" y="0"/>
      <point x="288" y="2" type="curve" smooth="yes"/>
      <point x="305" y="18" type="line" smooth="yes"/>
      <point x="310" y="22"/>
      <point x="314" y="25"/>
      <point x="321" y="25" type="curve" smooth="yes"/>
      <point x="324" y="25"/>
      <point x="327" y="25"/>
      <point x="330" y="23" type="curve"/>
      <point x="355" y="13"/>
      <point x="370" y="-14"/>
      <point x="406" y="-14" type="curve" smooth="yes"/>
      <point x="439" y="-14"/>
      <point x="474" y="16"/>
      <point x="474" y="56" type="curve" smooth="yes"/>
      <point x="474" y="83"/>
      <point x="455" y="101"/>
      <point x="434" y="101" type="curve" smooth="yes"/>
      <point x="419" y="101"/>
      <point x="410" y="88"/>
      <point x="410" y="77" type="curve" smooth="yes"/>
      <point x="410" y="66"/>
      <point x="421" y="53"/>
      <point x="430" y="47" type="curve" smooth="yes"/>
      <point x="436" y="43"/>
      <point x="438" y="38"/>
      <point x="438" y="34" type="curve" smooth="yes"/>
      <point x="438" y="29"/>
      <point x="434" y="24"/>
    </contour>
  </outline>
</glyph>
<glyph name="backslash" format="2">
  <advance width="15"/>
  <unicode hex="005C"/>
  <outline>
    <contour>
      <point x="0" y="811" type="line"/>
      <point x="0" y="0" type="line"/>
      <point x="15" y="0" type="line"/>
      <point x="15" y="811" type="line"/>
    </contour>
  </outline>
</glyph>
<glyph name="bracketright" format="2">
  <advance width="331"/>
  <unicode hex="005D"/>
  <outline>
    <contour>
      <point x="308" y="200" type="curve" smooth="yes"/>
      <point x="308" y="166"/>
      <point x="295" y="132"/>
      <point x="272" y="102" type="curve"/>
      <point x="283" y="91" type="line"/>
      <point x="310" y="118"/>
      <point x="331" y="153"/>
      <point x="331" y="200" type="curve" smooth="yes"/>
      <point x="331" y="247"/>
      <point x="310" y="282"/>
      <point x="283" y="309" type="curve"/>
      <point x="272" y="298" type="line"/>
      <point x="295" y="268"/>
      <point x="308" y="234"/>
    </contour>
    <contour>
      <point x="23" y="200" type="curve" smooth="yes"/>
      <point x="23" y="234"/>
      <point x="36" y="268"/>
      <point x="59" y="298" type="curve"/>
      <point x="48" y="309" type="line"/>
      <point x="21" y="282"/>
      <point x="0" y="247"/>
      <point x="0" y="200" type="curve" smooth="yes"/>
      <point x="0" y="153"/>
      <point x="21" y="118"/>
      <point x="48" y="91" type="curve"/>
      <point x="59" y="102" type="line"/>
      <point x="36" y="132"/>
      <point x="23" y="166"/>
    </contour>
    <contour>
      <point x="186" y="200" type="curve" smooth="yes"/>
      <point x="186" y="219"/>
      <point x="203" y="223"/>
      <point x="243" y="223" type="curve"/>
      <point x="244" y="247"/>
      <point x="246" y="272"/>
      <point x="247" y="282" type="curve"/>
      <point x="238" y="280"/>
      <point x="213" y="278"/>
      <point x="189" y="278" type="curve"/>
      <point x="189" y="238"/>
      <point x="185" y="220"/>
      <point x="166" y="220" type="curve" smooth="yes"/>
      <point x="146" y="220"/>
      <point x="142" y="238"/>
      <point x="142" y="278" type="curve"/>
      <point x="118" y="278"/>
      <point x="94" y="280"/>
      <point x="84" y="282" type="curve"/>
      <point x="86" y="272"/>
      <point x="87" y="247"/>
      <point x="88" y="223" type="curve"/>
      <point x="128" y="223"/>
      <point x="146" y="219"/>
      <point x="146" y="200" type="curve" smooth="yes"/>
      <point x="146" y="181"/>
      <point x="128" y="177"/>
      <point x="88" y="177" type="curve"/>
      <point x="87" y="153"/>
      <point x="86" y="128"/>
      <point x="84" y="118" type="curve"/>
      <point x="94" y="120"/>
      <point x="118" y="122"/>
      <point x="142" y="122" type="curve"/>
      <point x="142" y="162"/>
      <point x="146" y="180"/>
      <point x="166" y="180" type="curve" smooth="yes"/>
      <point x="185" y="180"/>
      <point x="189" y="162"/>
      <point x="189" y="122" type="curve"/>
      <point x="213" y="122"/>
      <point x="238" y="120"/>
      <point x="247" y="118" type="curve"/>
      <point x="246" y="128"/>
      <point x="244" y="153"/>
      <point x="243" y="177" type="curve"/>
      <point x="203" y="177"/>
      <point x="186" y="181"/>
    </contour>
  </outline>
</glyph>
<glyph name="asciicircum" format="2">
  <advance width="234"/>
  <unicode hex="005E"/>
  <outline>
    <contour>
      <point x="17" y="189" type="curve" smooth="yes"/>
      <point x="20" y="189"/>
      <point x="22" y="190"/>
      <point x="25" y="196" type="curve" smooth="yes"/>
      <point x="81" y="317" type="line" smooth="yes"/>
      <point x="86" y="327"/>
      <point x="90" y="333"/>
      <point x="95" y="333" type="curve" smooth="yes"/>
      <point x="99" y="333"/>
      <point x="104" y="327"/>
      <point x="110" y="316" type="curve"/>
      <point x="160" y="208" type="line" smooth="yes"/>
      <point x="166" y="196"/>
      <point x="169" y="192"/>
      <point x="182" y="192" type="curve" smooth="yes"/>
      <point x="223" y="192" type="line" smooth="yes"/>
      <point x="230" y="192"/>
      <point x="234" y="194"/>
      <point x="234" y="199" type="curve" smooth="yes"/>
      <point x="234" y="202"/>
      <point x="234" y="205"/>
      <point x="231" y="210" type="curve"/>
      <point x="132" y="422" type="line" smooth="yes"/>
      <point x="126" y="434"/>
      <point x="122" y="440"/>
      <point x="118" y="440" type="curve" smooth="yes"/>
      <point x="114" y="440"/>
      <point x="110" y="434"/>
      <point x="104" y="422" type="curve" smooth="yes"/>
      <point x="3" y="205" type="line" smooth="yes"/>
      <point x="2" y="202"/>
      <point x="1" y="200"/>
      <point x="1" y="198" type="curve" smooth="yes"/>
      <point x="1" y="194"/>
      <point x="10" y="189"/>
    </contour>
  </outline>
</glyph>
<glyph name="underscore" format="2">
  <advance width="338"/>
  <unicode hex="005F"/>
  <outline>
    <contour>
      <point x="0" y="15" type="line"/>
      <point x="0" y="0" type="line"/>
      <point x="338" y="0" type="line"/>
      <point x="338" y="15" type="line"/>
    </contour>
  </outline>
</glyph>
<glyph name="grave" format="2">
  <advance width="794"/>
  <unicode hex="0060"/>
  <outline>
    <contour>
      <point x="35" y="166" type="curve" smooth="yes"/>
      <point x="38" y="166"/>
      <point x="40" y="167"/>
      <point x="43" y="170" type="curve"/>
      <point x="43" y="170"/>
      <point x="98" y="225"/>
      <point x="98" y="225" type="curve"/>
      <point x="105" y="231"/>
      <point x="110" y="235"/>
      <point x="112" y="235" type="curve" smooth="yes"/>
      <point x="114" y="235"/>
      <point x="116" y="233"/>
      <point x="116" y="230" type="curve" smooth="yes"/>
      <point x="116" y="227"/>
      <point x="115" y="223"/>
      <point x="114" y="218" type="curve"/>
      <point x="114" y="218"/>
      <point x="69" y="82"/>
      <point x="69" y="82" type="curve"/>
      <point x="59" y="54"/>
      <point x="57" y="26"/>
      <point x="24" y="26" type="curve"/>
      <point x="24" y="26"/>
      <point x="10" y="26"/>
      <point x="10" y="26" type="curve"/>
      <point x="2" y="26"/>
      <point x="0" y="26"/>
      <point x="-5" y="14" type="curve" smooth="yes"/>
      <point x="-7" y="10"/>
      <point x="-8" y="7"/>
      <point x="-8" y="6" type="curve"/>
      <point x="-8" y="1"/>
      <point x="-5" y="0"/>
      <point x="1" y="0" type="curve"/>
      <point x="1" y="0"/>
      <point x="144" y="0"/>
      <point x="144" y="0" type="curve"/>
      <point x="151" y="0"/>
      <point x="152" y="2"/>
      <point x="158" y="14" type="curve"/>
      <point x="159" y="18"/>
      <point x="160" y="20"/>
      <point x="160" y="22" type="curve" smooth="yes"/>
      <point x="160" y="26"/>
      <point x="157" y="26"/>
      <point x="150" y="26" type="curve"/>
      <point x="150" y="26"/>
      <point x="128" y="26"/>
      <point x="128" y="26" type="curve"/>
      <point x="116" y="26"/>
      <point x="110" y="32"/>
      <point x="110" y="41" type="curve" smooth="yes"/>
      <point x="110" y="45"/>
      <point x="111" y="48"/>
      <point x="113" y="52" type="curve"/>
      <point x="113" y="52"/>
      <point x="196" y="317"/>
      <point x="196" y="317" type="curve"/>
      <point x="198" y="321"/>
      <point x="198" y="323"/>
      <point x="198" y="325" type="curve" smooth="yes"/>
      <point x="198" y="327"/>
      <point x="196" y="328"/>
      <point x="194" y="328" type="curve" smooth="yes"/>
      <point x="188" y="328"/>
      <point x="182" y="322"/>
      <point x="172" y="322" type="curve" smooth="yes"/>
      <point x="163" y="322"/>
      <point x="155" y="328"/>
      <point x="150" y="328" type="curve" smooth="yes"/>
      <point x="147" y="328"/>
      <point x="146" y="326"/>
      <point x="138" y="318" type="curve"/>
      <point x="138" y="318"/>
      <point x="27" y="189"/>
      <point x="27" y="189" type="curve"/>
      <point x="24" y="185"/>
      <point x="22" y="182"/>
      <point x="22" y="179" type="curve" smooth="yes"/>
      <point x="22" y="174"/>
      <point x="31" y="166"/>
    </contour>
    <contour>
      <point x="405" y="118" type="curve" smooth="yes"/>
      <point x="405" y="168"/>
      <point x="371" y="207"/>
      <point x="322" y="207" type="curve" smooth="yes"/>
      <point x="299" y="207"/>
      <point x="290" y="204"/>
      <point x="278" y="204" type="curve" smooth="yes"/>
      <point x="272" y="204"/>
      <point x="270" y="207"/>
      <point x="270" y="210" type="curve"/>
      <point x="270" y="211"/>
      <point x="270" y="213"/>
      <point x="271" y="214" type="curve"/>
      <point x="276" y="231"/>
      <point x="280" y="242"/>
      <point x="284" y="256" type="curve" smooth="yes"/>
      <point x="287" y="267"/>
      <point x="290" y="269"/>
      <point x="298" y="269" type="curve" smooth="yes"/>
      <point x="308" y="269"/>
      <point x="321" y="267"/>
      <point x="330" y="267" type="curve" smooth="yes"/>
      <point x="370" y="267"/>
      <point x="407" y="282"/>
      <point x="425" y="308" type="curve" smooth="yes"/>
      <point x="430" y="314"/>
      <point x="431" y="319"/>
      <point x="431" y="322" type="curve" smooth="yes"/>
      <point x="431" y="325"/>
      <point x="430" y="326"/>
      <point x="426" y="326" type="curve" smooth="yes"/>
      <point x="419" y="326"/>
      <point x="382" y="315"/>
      <point x="351" y="315" type="curve" smooth="yes"/>
      <point x="309" y="315"/>
      <point x="285" y="326"/>
      <point x="278" y="326" type="curve" smooth="yes"/>
      <point x="274" y="326"/>
      <point x="271" y="324"/>
      <point x="270" y="318" type="curve" smooth="yes"/>
      <point x="260" y="262"/>
      <point x="251" y="230"/>
      <point x="234" y="179" type="curve"/>
      <point x="234" y="173"/>
      <point x="238" y="172"/>
      <point x="243" y="172" type="curve"/>
      <point x="244" y="172"/>
      <point x="246" y="172"/>
      <point x="246" y="172" type="curve"/>
      <point x="262" y="178"/>
      <point x="286" y="182"/>
      <point x="302" y="182" type="curve" smooth="yes"/>
      <point x="334" y="182"/>
      <point x="350" y="162"/>
      <point x="350" y="130" type="curve" smooth="yes"/>
      <point x="350" y="81"/>
      <point x="320" y="22"/>
      <point x="278" y="22" type="curve" smooth="yes"/>
      <point x="258" y="22"/>
      <point x="245" y="26"/>
      <point x="245" y="34" type="curve" smooth="yes"/>
      <point x="245" y="43"/>
      <point x="261" y="52"/>
      <point x="261" y="74" type="curve" smooth="yes"/>
      <point x="261" y="94"/>
      <point x="250" y="111"/>
      <point x="227" y="111" type="curve" smooth="yes"/>
      <point x="202" y="111"/>
      <point x="186" y="91"/>
      <point x="186" y="66" type="curve" smooth="yes"/>
      <point x="186" y="26"/>
      <point x="226" y="-3"/>
      <point x="278" y="-3" type="curve" smooth="yes"/>
      <point x="342" y="-3"/>
      <point x="405" y="38"/>
    </contour>
    <contour>
      <point x="718" y="126" type="curve"/>
      <point x="718" y="126"/>
      <point x="715" y="126"/>
      <point x="715" y="126" type="curve"/>
      <point x="715" y="126"/>
      <point x="746" y="221"/>
      <point x="746" y="221" type="curve"/>
      <point x="746" y="221"/>
      <point x="683" y="217"/>
      <point x="683" y="217" type="curve"/>
      <point x="683" y="217"/>
      <point x="681" y="207"/>
      <point x="681" y="207" type="curve"/>
      <point x="681" y="207"/>
      <point x="693" y="207"/>
      <point x="693" y="207" type="curve"/>
      <point x="702" y="207"/>
      <point x="708" y="206"/>
      <point x="708" y="198" type="curve" smooth="yes"/>
      <point x="708" y="196"/>
      <point x="707" y="193"/>
      <point x="706" y="189" type="curve"/>
      <point x="706" y="189"/>
      <point x="669" y="74"/>
      <point x="669" y="74" type="curve"/>
      <point x="666" y="62"/>
      <point x="662" y="50"/>
      <point x="662" y="38" type="curve" smooth="yes"/>
      <point x="662" y="16"/>
      <point x="673" y="-4"/>
      <point x="702" y="-4" type="curve" smooth="yes"/>
      <point x="742" y="-4"/>
      <point x="794" y="52"/>
      <point x="794" y="109" type="curve" smooth="yes"/>
      <point x="794" y="131"/>
      <point x="783" y="151"/>
      <point x="760" y="151" type="curve" smooth="yes"/>
      <point x="745" y="151"/>
      <point x="730" y="139"/>
    </contour>
    <contour>
      <point x="566" y="112" type="curve"/>
      <point x="566" y="112"/>
      <point x="562" y="112"/>
      <point x="562" y="112" type="curve"/>
      <point x="563" y="115"/>
      <point x="563" y="118"/>
      <point x="563" y="122" type="curve" smooth="yes"/>
      <point x="563" y="139"/>
      <point x="555" y="153"/>
      <point x="539" y="153" type="curve" smooth="yes"/>
      <point x="523" y="153"/>
      <point x="501" y="130"/>
      <point x="489" y="114" type="curve"/>
      <point x="489" y="114"/>
      <point x="486" y="114"/>
      <point x="486" y="114" type="curve"/>
      <point x="488" y="118"/>
      <point x="489" y="123"/>
      <point x="489" y="128" type="curve" smooth="yes"/>
      <point x="489" y="142"/>
      <point x="482" y="153"/>
      <point x="466" y="153" type="curve" smooth="yes"/>
      <point x="443" y="153"/>
      <point x="428" y="130"/>
      <point x="419" y="103" type="curve"/>
      <point x="419" y="103"/>
      <point x="429" y="100"/>
      <point x="429" y="100" type="curve"/>
      <point x="435" y="119"/>
      <point x="446" y="138"/>
      <point x="455" y="138" type="curve" smooth="yes"/>
      <point x="461" y="138"/>
      <point x="462" y="137"/>
      <point x="462" y="132" type="curve" smooth="yes"/>
      <point x="462" y="126"/>
      <point x="459" y="117"/>
      <point x="455" y="104" type="curve"/>
      <point x="455" y="104"/>
      <point x="422" y="2"/>
      <point x="422" y="2" type="curve"/>
      <point x="422" y="2"/>
      <point x="451" y="2"/>
      <point x="451" y="2" type="curve"/>
      <point x="451" y="2"/>
      <point x="471" y="62"/>
      <point x="471" y="62" type="curve"/>
      <point x="486" y="110"/>
      <point x="526" y="141"/>
      <point x="534" y="141" type="curve" smooth="yes"/>
      <point x="538" y="141"/>
      <point x="539" y="138"/>
      <point x="539" y="131" type="curve" smooth="yes"/>
      <point x="539" y="122"/>
      <point x="535" y="108"/>
      <point x="529" y="89" type="curve"/>
      <point x="529" y="89"/>
      <point x="501" y="2"/>
      <point x="501" y="2" type="curve"/>
      <point x="501" y="2"/>
      <point x="530" y="2"/>
      <point x="530" y="2" type="curve"/>
      <point x="530" y="2"/>
      <point x="551" y="66"/>
      <point x="551" y="66" type="curve"/>
      <point x="564" y="106"/>
      <point x="599" y="141"/>
      <point x="609" y="141" type="curve" smooth="yes"/>
      <point x="613" y="141"/>
      <point x="615" y="138"/>
      <point x="615" y="131" type="curve" smooth="yes"/>
      <point x="615" y="123"/>
      <point x="611" y="109"/>
      <point x="604" y="90" type="curve"/>
      <point x="604" y="90"/>
      <point x="588" y="47"/>
      <point x="588" y="47" type="curve"/>
      <point x="585" y="38"/>
      <point x="583" y="30"/>
      <point x="583" y="23" type="curve" smooth="yes"/>
      <point x="583" y="8"/>
      <point x="591" y="-2"/>
      <point x="606" y="-2" type="curve" smooth="yes"/>
      <point x="629" y="-2"/>
      <point x="645" y="21"/>
      <point x="654" y="48" type="curve"/>
      <point x="654" y="48"/>
      <point x="644" y="50"/>
      <point x="644" y="50" type="curve"/>
      <point x="638" y="32"/>
      <point x="626" y="12"/>
      <point x="617" y="12" type="curve" smooth="yes"/>
      <point x="612" y="12"/>
      <point x="610" y="14"/>
      <point x="610" y="19" type="curve" smooth="yes"/>
      <point x="610" y="25"/>
      <point x="613" y="34"/>
      <point x="618" y="47" type="curve"/>
      <point x="618" y="47"/>
      <point x="634" y="90"/>
      <point x="634" y="90" type="curve"/>
      <point x="638" y="102"/>
      <point x="640" y="113"/>
      <point x="640" y="122" type="curve" smooth="yes"/>
      <point x="640" y="141"/>
      <point x="631" y="153"/>
      <point x="616" y="153" type="curve" smooth="yes"/>
      <point x="601" y="153"/>
      <point x="582" y="135"/>
    </contour>
    <contour>
      <point x="754" y="139" type="curve" smooth="yes"/>
      <point x="762" y="139"/>
      <point x="766" y="134"/>
      <point x="766" y="122" type="curve" smooth="yes"/>
      <point x="766" y="90"/>
      <point x="735" y="5"/>
      <point x="698" y="5" type="curve" smooth="yes"/>
      <point x="689" y="5"/>
      <point x="686" y="11"/>
      <point x="686" y="22" type="curve" smooth="yes"/>
      <point x="686" y="32"/>
      <point x="689" y="46"/>
      <point x="694" y="62" type="curve"/>
      <point x="694" y="62"/>
      <point x="698" y="74"/>
      <point x="698" y="74" type="curve"/>
      <point x="707" y="102"/>
      <point x="734" y="139"/>
    </contour>
  </outline>
</glyph>
<glyph name="a" format="2">
  <advance width="390"/>
  <unicode hex="0061"/>
  <outline>
    <contour>
      <point x="123" y="240" type="line" smooth="yes"/>
      <point x="130" y="242"/>
      <point x="135" y="236"/>
      <point x="135" y="232" type="curve" smooth="yes"/>
      <point x="135" y="122" type="line"/>
      <point x="97" y="110" type="line"/>
      <point x="97" y="31" type="line"/>
      <point x="122" y="39" type="line"/>
      <point x="128" y="42"/>
      <point x="135" y="37"/>
      <point x="135" y="30" type="curve" smooth="yes"/>
      <point x="135" y="-72" type="line"/>
      <point x="159" y="-72" type="line"/>
      <point x="159" y="50" type="line"/>
      <point x="211" y="66" type="line"/>
      <point x="218" y="69"/>
      <point x="226" y="63"/>
      <point x="226" y="58" type="curve" smooth="yes"/>
      <point x="226" y="-52" type="line"/>
      <point x="250" y="-52" type="line"/>
      <point x="250" y="78" type="line"/>
      <point x="290" y="90" type="line"/>
      <point x="290" y="169" type="line"/>
      <point x="266" y="161" type="line" smooth="yes"/>
      <point x="260" y="159"/>
      <point x="250" y="162"/>
      <point x="250" y="170" type="curve" smooth="yes"/>
      <point x="250" y="278" type="line"/>
      <point x="290" y="290" type="line"/>
      <point x="290" y="369" type="line"/>
      <point x="262" y="360" type="line" smooth="yes"/>
      <point x="257" y="358"/>
      <point x="250" y="366"/>
      <point x="250" y="370" type="curve" smooth="yes"/>
      <point x="250" y="472" type="line"/>
      <point x="226" y="472" type="line"/>
      <point x="226" y="350" type="line"/>
      <point x="170" y="332" type="line" smooth="yes"/>
      <point x="165" y="330"/>
      <point x="159" y="338"/>
      <point x="159" y="342" type="curve" smooth="yes"/>
      <point x="159" y="452" type="line"/>
      <point x="135" y="452" type="line"/>
      <point x="135" y="322" type="line"/>
      <point x="97" y="310" type="line"/>
      <point x="97" y="231" type="line"/>
    </contour>
    <contour>
      <point x="312" y="364" type="line"/>
      <point x="331" y="336"/>
      <point x="369" y="283"/>
      <point x="369" y="201" type="curve" smooth="yes"/>
      <point x="369" y="119"/>
      <point x="330" y="68"/>
      <point x="312" y="41" type="curve"/>
      <point x="322" y="31" type="line"/>
      <point x="368" y="78"/>
      <point x="390" y="138"/>
      <point x="390" y="202" type="curve" smooth="yes"/>
      <point x="390" y="289"/>
      <point x="350" y="345"/>
      <point x="322" y="374" type="curve"/>
    </contour>
    <contour>
      <point x="22" y="199" type="curve" smooth="yes"/>
      <point x="22" y="281"/>
      <point x="59" y="332"/>
      <point x="78" y="359" type="curve"/>
      <point x="67" y="369" type="line"/>
      <point x="22" y="322"/>
      <point x="0" y="262"/>
      <point x="0" y="198" type="curve" smooth="yes"/>
      <point x="0" y="111"/>
      <point x="39" y="55"/>
      <point x="67" y="26" type="curve"/>
      <point x="78" y="36" type="line"/>
      <point x="58" y="64"/>
      <point x="22" y="117"/>
    </contour>
    <contour>
      <point x="211" y="266" type="line" smooth="yes"/>
      <point x="216" y="268"/>
      <point x="226" y="262"/>
      <point x="226" y="256" type="curve" smooth="yes"/>
      <point x="226" y="150" type="line"/>
      <point x="174" y="133" type="line" smooth="yes"/>
      <point x="168" y="131"/>
      <point x="159" y="139"/>
      <point x="159" y="145" type="curve" smooth="yes"/>
      <point x="159" y="250" type="line"/>
    </contour>
  </outline>
</glyph>
<glyph name="b" format="2">
  <advance width="174"/>
  <unicode hex="0062"/>
  <outline>
    <contour>
      <point x="0" y="85" type="line" smooth="yes"/>
      <point x="0" y="74"/>
      <point x="3" y="70"/>
      <point x="9" y="70" type="curve" smooth="yes"/>
      <point x="13" y="70"/>
      <point x="19" y="73"/>
      <point x="25" y="78" type="curve" smooth="yes"/>
      <point x="84" y="126" type="line" smooth="yes"/>
      <point x="142" y="173"/>
      <point x="174" y="206"/>
      <point x="174" y="255" type="curve" smooth="yes"/>
      <point x="174" y="298"/>
      <point x="150" y="326"/>
      <point x="110" y="326" type="curve" smooth="yes"/>
      <point x="85" y="326"/>
      <point x="66" y="311"/>
      <point x="50" y="311" type="curve" smooth="yes"/>
      <point x="42" y="311"/>
      <point x="40" y="320"/>
      <point x="40" y="328" type="curve" smooth="yes"/>
      <point x="40" y="418"/>
      <point x="43" y="496"/>
      <point x="45" y="548" type="curve" smooth="yes"/>
      <point x="46" y="564"/>
      <point x="46" y="564"/>
      <point x="23" y="564" type="curve" smooth="yes"/>
      <point x="0" y="564"/>
      <point x="0" y="564"/>
      <point x="0" y="550" type="curve" smooth="yes"/>
    </contour>
    <contour>
      <point x="71" y="286" type="curve" smooth="yes"/>
      <point x="90" y="286"/>
      <point x="108" y="274"/>
      <point x="111" y="249" type="curve" smooth="yes"/>
      <point x="116" y="214"/>
      <point x="102" y="171"/>
      <point x="65" y="141" type="curve"/>
      <point x="53" y="130"/>
      <point x="42" y="124"/>
      <point x="35" y="124" type="curve" smooth="yes"/>
      <point x="28" y="124"/>
      <point x="24" y="131"/>
      <point x="24" y="148" type="curve" smooth="yes"/>
      <point x="24" y="210" type="line" smooth="yes"/>
      <point x="24" y="242"/>
      <point x="29" y="286"/>
    </contour>
  </outline>
</glyph>
<glyph name="c" format="2">
  <advance width="333"/>
  <unicode hex="0063"/>
  <outline>
    <contour>
      <point x="258" y="352" type="curve" smooth="yes"/>
      <point x="258" y="346"/>
      <point x="256" y="341"/>
      <point x="250" y="338" type="curve" smooth="yes"/>
      <point x="234" y="328"/>
      <point x="224" y="310"/>
      <point x="224" y="290" type="curve" smooth="yes"/>
      <point x="224" y="260"/>
      <point x="248" y="235"/>
      <point x="278" y="235" type="curve" smooth="yes"/>
      <point x="309" y="235"/>
      <point x="333" y="260"/>
      <point x="333" y="290" type="curve"/>
      <point x="332" y="344"/>
      <point x="274" y="404"/>
      <point x="188" y="404" type="curve" smooth="yes"/>
      <point x="76" y="404"/>
      <point x="0" y="317"/>
      <point x="0" y="200" type="curve" smooth="yes"/>
      <point x="0" y="84"/>
      <point x="82" y="-4"/>
      <point x="176" y="-4" type="curve" smooth="yes"/>
      <point x="272" y="-4"/>
      <point x="322" y="73"/>
      <point x="330" y="144" type="curve"/>
      <point x="306" y="146" type="line"/>
      <point x="298" y="76"/>
      <point x="248" y="26"/>
      <point x="194" y="26" type="curve" smooth="yes"/>
      <point x="130" y="26"/>
      <point x="94" y="58"/>
      <point x="94" y="182" type="curve" smooth="yes"/>
      <point x="94" y="214" type="line" smooth="yes"/>
      <point x="94" y="342"/>
      <point x="137" y="378"/>
      <point x="201" y="378" type="curve" smooth="yes"/>
      <point x="216" y="378"/>
      <point x="258" y="374"/>
    </contour>
  </outline>
</glyph>
<glyph name="d" format="2">
  <advance width="185"/>
  <unicode hex="0064"/>
  <unicode hex="E033"/>
  <unicode hex="E990"/>
  <unicode hex="EA33"/>
  <unicode hex="F064"/>
  <outline>
    <contour>
      <point x="0" y="271" type="curve"/>
      <point x="0" y="240"/>
      <point x="4" y="211"/>
      <point x="4" y="191" type="curve" smooth="yes"/>
      <point x="4" y="95" type="line"/>
      <point x="8" y="95"/>
      <point x="18" y="98"/>
      <point x="35" y="104" type="curve" smooth="yes"/>
      <point x="51" y="110"/>
      <point x="70" y="114"/>
      <point x="93" y="114" type="curve" smooth="yes"/>
      <point x="115" y="114"/>
      <point x="134" y="110"/>
      <point x="150" y="104" type="curve" smooth="yes"/>
      <point x="166" y="98"/>
      <point x="177" y="95"/>
      <point x="181" y="95" type="curve"/>
      <point x="181" y="191" type="line" smooth="yes"/>
      <point x="181" y="211"/>
      <point x="185" y="240"/>
      <point x="185" y="271" type="curve"/>
      <point x="166" y="294"/>
      <point x="136" y="305"/>
      <point x="93" y="305" type="curve" smooth="yes"/>
      <point x="49" y="305"/>
      <point x="18" y="294"/>
    </contour>
  </outline>
</glyph>
<glyph name="e" format="2">
  <advance width="460"/>
  <unicode hex="0065"/>
  <outline>
    <contour>
      <point x="76" y="81" type="curve" smooth="yes"/>
      <point x="37" y="54"/>
      <point x="0" y="5"/>
      <point x="0" y="-40" type="curve" smooth="yes"/>
      <point x="0" y="-54"/>
      <point x="3" y="-68"/>
      <point x="12" y="-80" type="curve"/>
      <point x="27" y="-104"/>
      <point x="54" y="-113"/>
      <point x="84" y="-113" type="curve" smooth="yes"/>
      <point x="118" y="-113"/>
      <point x="157" y="-100"/>
      <point x="185" y="-81" type="curve" smooth="yes"/>
      <point x="224" y="-54"/>
      <point x="260" y="-6"/>
      <point x="261" y="39" type="curve"/>
      <point x="261" y="466" type="line" smooth="yes"/>
      <point x="261" y="470"/>
      <point x="266" y="476"/>
      <point x="274" y="476" type="curve" smooth="yes"/>
      <point x="295" y="476"/>
      <point x="316" y="470"/>
      <point x="340" y="455" type="curve" smooth="yes"/>
      <point x="398" y="417"/>
      <point x="433" y="350"/>
      <point x="433" y="257" type="curve" smooth="yes"/>
      <point x="433" y="186"/>
      <point x="412" y="124"/>
      <point x="391" y="82" type="curve"/>
      <point x="414" y="70" type="line"/>
      <point x="429" y="98"/>
      <point x="460" y="171"/>
      <point x="460" y="256" type="curve" smooth="yes"/>
      <point x="460" y="428"/>
      <point x="356" y="510"/>
      <point x="298" y="582" type="curve" smooth="yes"/>
      <point x="272" y="615"/>
      <point x="262" y="654"/>
      <point x="262" y="680" type="curve"/>
      <point x="240" y="680" type="line"/>
      <point x="240" y="103" type="line" smooth="yes"/>
      <point x="240" y="101"/>
      <point x="233" y="98"/>
      <point x="230" y="99" type="curve"/>
      <point x="215" y="109"/>
      <point x="197" y="113"/>
      <point x="177" y="113" type="curve" smooth="yes"/>
      <point x="142" y="113"/>
      <point x="104" y="100"/>
    </contour>
  </outline>
</glyph>
<glyph name="f" format="2">
  <advance width="310"/>
  <unicode hex="0066"/>
  <outline>
    <contour>
      <point x="226" y="181" type="line" smooth="yes"/>
      <point x="249" y="181"/>
      <point x="256" y="181"/>
      <point x="256" y="198" type="curve" smooth="yes"/>
      <point x="256" y="208"/>
      <point x="249" y="208"/>
      <point x="229" y="208" type="curve" smooth="yes"/>
      <point x="199" y="208" type="line" smooth="yes"/>
      <point x="183" y="208"/>
      <point x="176" y="211"/>
      <point x="176" y="223" type="curve" smooth="yes"/>
      <point x="176" y="227"/>
      <point x="177" y="233"/>
      <point x="179" y="240" type="curve" smooth="yes"/>
      <point x="194" y="282"/>
      <point x="216" y="324"/>
      <point x="251" y="324" type="curve" smooth="yes"/>
      <point x="260" y="324"/>
      <point x="266" y="320"/>
      <point x="266" y="314" type="curve" smooth="yes"/>
      <point x="266" y="304"/>
      <point x="252" y="301"/>
      <point x="245" y="294" type="curve"/>
      <point x="238" y="289"/>
      <point x="234" y="280"/>
      <point x="234" y="268" type="curve" smooth="yes"/>
      <point x="234" y="247"/>
      <point x="248" y="236"/>
      <point x="265" y="236" type="curve" smooth="yes"/>
      <point x="293" y="236"/>
      <point x="310" y="262"/>
      <point x="310" y="290" type="curve" smooth="yes"/>
      <point x="310" y="330"/>
      <point x="279" y="348"/>
      <point x="243" y="348" type="curve" smooth="yes"/>
      <point x="182" y="348"/>
      <point x="133" y="291"/>
      <point x="106" y="241" type="curve"/>
      <point x="94" y="216"/>
      <point x="81" y="208"/>
      <point x="53" y="208" type="curve" smooth="yes"/>
      <point x="30" y="208" type="line" smooth="yes"/>
      <point x="8" y="208"/>
      <point x="2" y="208"/>
      <point x="2" y="191" type="curve" smooth="yes"/>
      <point x="2" y="181"/>
      <point x="9" y="181"/>
      <point x="29" y="181" type="curve" smooth="yes"/>
      <point x="46" y="181" type="line" smooth="yes"/>
      <point x="59" y="181"/>
      <point x="70" y="174"/>
      <point x="70" y="154" type="curve" smooth="yes"/>
      <point x="70" y="148"/>
      <point x="68" y="139"/>
      <point x="66" y="130" type="curve" smooth="yes"/>
      <point x="53" y="80"/>
      <point x="44" y="32"/>
      <point x="26" y="-28" type="curve" smooth="yes"/>
      <point x="13" y="-74"/>
      <point x="-10" y="-126"/>
      <point x="-50" y="-126" type="curve" smooth="yes"/>
      <point x="-58" y="-126"/>
      <point x="-64" y="-122"/>
      <point x="-64" y="-116" type="curve" smooth="yes"/>
      <point x="-64" y="-106"/>
      <point x="-50" y="-102"/>
      <point x="-43" y="-96" type="curve" smooth="yes"/>
      <point x="-36" y="-90"/>
      <point x="-32" y="-82"/>
      <point x="-32" y="-70" type="curve" smooth="yes"/>
      <point x="-32" y="-49"/>
      <point x="-46" y="-38"/>
      <point x="-63" y="-38" type="curve" smooth="yes"/>
      <point x="-91" y="-38"/>
      <point x="-109" y="-64"/>
      <point x="-109" y="-92" type="curve" smooth="yes"/>
      <point x="-109" y="-131"/>
      <point x="-78" y="-150"/>
      <point x="-42" y="-150" type="curve" smooth="yes"/>
      <point x="-23" y="-150"/>
      <point x="-4" y="-144"/>
      <point x="15" y="-133" type="curve" smooth="yes"/>
      <point x="80" y="-96"/>
      <point x="115" y="-9"/>
      <point x="136" y="69" type="curve"/>
      <point x="142" y="95"/>
      <point x="148" y="120"/>
      <point x="154" y="147" type="curve" smooth="yes"/>
      <point x="161" y="174"/>
      <point x="172" y="181"/>
      <point x="194" y="181" type="curve" smooth="yes"/>
    </contour>
  </outline>
</glyph>
<glyph name="h" format="2">
  <advance width="283"/>
  <unicode hex="0068"/>
  <outline>
    <contour>
      <point x="262" y="114" type="line" smooth="yes"/>
      <point x="262" y="108"/>
      <point x="253" y="103"/>
      <point x="246" y="106" type="curve" smooth="yes"/>
      <point x="230" y="114"/>
      <point x="210" y="117"/>
      <point x="189" y="117" type="curve" smooth="yes"/>
      <point x="152" y="117"/>
      <point x="112" y="107"/>
      <point x="86" y="90" type="curve" smooth="yes"/>
      <point x="42" y="63"/>
      <point x="0" y="-1"/>
      <point x="0" y="-50" type="curve" smooth="yes"/>
      <point x="0" y="-100"/>
      <point x="45" y="-117"/>
      <point x="94" y="-117" type="curve" smooth="yes"/>
      <point x="131" y="-117"/>
      <point x="171" y="-107"/>
      <point x="198" y="-90" type="curve" smooth="yes"/>
      <point x="242" y="-63"/>
      <point x="283" y="1"/>
      <point x="283" y="50" type="curve" smooth="yes"/>
      <point x="283" y="680" type="line"/>
      <point x="262" y="680" type="line"/>
    </contour>
    <contour>
      <point x="265" y="62" type="curve" smooth="yes"/>
      <point x="265" y="37"/>
      <point x="222" y="2"/>
      <point x="162" y="-34" type="curve" smooth="yes"/>
      <point x="114" y="-64"/>
      <point x="72" y="-86"/>
      <point x="46" y="-86" type="curve" smooth="yes"/>
      <point x="31" y="-86"/>
      <point x="18" y="-78"/>
      <point x="18" y="-62" type="curve" smooth="yes"/>
      <point x="18" y="-37"/>
      <point x="62" y="-2"/>
      <point x="121" y="34" type="curve" smooth="yes"/>
      <point x="169" y="64"/>
      <point x="211" y="86"/>
      <point x="238" y="86" type="curve" smooth="yes"/>
      <point x="252" y="86"/>
      <point x="265" y="78"/>
    </contour>
  </outline>
</glyph>
<glyph name="i" format="2">
  <advance width="134"/>
  <unicode hex="0069"/>
  <outline>
    <contour>
      <point x="35" y="-76" type="line" smooth="yes"/>
      <point x="75" y="-43"/>
      <point x="134" y="-14"/>
      <point x="134" y="38" type="curve" smooth="yes"/>
      <point x="134" y="73"/>
      <point x="110" y="91"/>
      <point x="82" y="91" type="curve" smooth="yes"/>
      <point x="66" y="91"/>
      <point x="55" y="86"/>
      <point x="48" y="86" type="curve" smooth="yes"/>
      <point x="43" y="86"/>
      <point x="34" y="92"/>
      <point x="34" y="97" type="curve" smooth="yes"/>
      <point x="34" y="272" type="line"/>
      <point x="0" y="272" type="line"/>
      <point x="0" y="-93" type="line" smooth="yes"/>
      <point x="0" y="-103"/>
      <point x="1" y="-104"/>
      <point x="8" y="-98" type="curve" smooth="yes"/>
    </contour>
    <contour>
      <point x="55" y="68" type="curve" smooth="yes"/>
      <point x="73" y="68"/>
      <point x="84" y="51"/>
      <point x="84" y="24" type="curve" smooth="yes"/>
      <point x="84" y="-5"/>
      <point x="70" y="-26"/>
      <point x="35" y="-52" type="curve" smooth="yes"/>
      <point x="30" y="-55"/>
      <point x="21" y="-52"/>
      <point x="21" y="-46" type="curve" smooth="yes"/>
      <point x="21" y="42" type="line" smooth="yes"/>
      <point x="21" y="58"/>
      <point x="42" y="68"/>
    </contour>
  </outline>
</glyph>
<glyph name="j" format="2">
  <advance width="234"/>
  <unicode hex="006A"/>
  <outline>
    <contour>
      <point x="33" y="10" type="curve" smooth="yes"/>
      <point x="58" y="10"/>
      <point x="81" y="5"/>
      <point x="105" y="-10" type="curve"/>
      <point x="163" y="-49"/>
      <point x="206" y="-116"/>
      <point x="206" y="-209" type="curve" smooth="yes"/>
      <point x="206" y="-280"/>
      <point x="169" y="-393"/>
      <point x="157" y="-424" type="curve"/>
      <point x="157" y="-426"/>
      <point x="156" y="-426"/>
      <point x="156" y="-428" type="curve" smooth="yes"/>
      <point x="156" y="-435"/>
      <point x="162" y="-440"/>
      <point x="169" y="-440" type="curve" smooth="yes"/>
      <point x="172" y="-440"/>
      <point x="176" y="-438"/>
      <point x="179" y="-435" type="curve"/>
      <point x="190" y="-406"/>
      <point x="234" y="-294"/>
      <point x="234" y="-210" type="curve" smooth="yes"/>
      <point x="234" y="-38"/>
      <point x="116" y="44"/>
      <point x="58" y="117" type="curve" smooth="yes"/>
      <point x="32" y="150"/>
      <point x="21" y="189"/>
      <point x="21" y="214" type="curve"/>
      <point x="21" y="214"/>
      <point x="0" y="214"/>
      <point x="0" y="214" type="curve"/>
      <point x="0" y="214"/>
      <point x="0" y="0"/>
      <point x="0" y="0" type="curve"/>
      <point x="0" y="0"/>
      <point x="20" y="0"/>
      <point x="20" y="0" type="curve"/>
      <point x="20" y="5"/>
      <point x="26" y="10"/>
    </contour>
  </outline>
</glyph>
<glyph name="k" format="2">
  <advance width="77"/>
  <unicode hex="006B"/>
  <outline>
    <contour>
      <point x="0" y="0" type="curve" smooth="yes"/>
      <point x="0" y="-21"/>
      <point x="18" y="-38"/>
      <point x="38" y="-38" type="curve" smooth="yes"/>
      <point x="59" y="-38"/>
      <point x="77" y="-21"/>
      <point x="77" y="0" type="curve" smooth="yes"/>
      <point x="77" y="21"/>
      <point x="59" y="38"/>
      <point x="38" y="38" type="curve" smooth="yes"/>
      <point x="18" y="38"/>
      <point x="0" y="21"/>
    </contour>
  </outline>
</glyph>
<glyph name="l" format="2">
  <advance width="236"/>
  <unicode hex="006C"/>
  <outline>
    <contour>
      <point x="236" y="-104" type="line"/>
      <point x="236" y="97" type="line" smooth="yes"/>
      <point x="236" y="102"/>
      <point x="235" y="103"/>
      <point x="230" y="99" type="curve" smooth="yes"/>
      <point x="4" y="-97" type="line" smooth="yes"/>
      <point x="-2" y="-102"/>
      <point x="-2" y="-104"/>
      <point x="6" y="-104" type="curve" smooth="yes"/>
    </contour>
    <contour>
      <point x="210" y="-64" type="line" smooth="yes"/>
      <point x="210" y="-71"/>
      <point x="201" y="-78"/>
      <point x="197" y="-78" type="curve" smooth="yes"/>
      <point x="87" y="-78" type="line" smooth="yes"/>
      <point x="80" y="-78"/>
      <point x="77" y="-67"/>
      <point x="80" y="-65" type="curve" smooth="yes"/>
      <point x="198" y="37" type="line" smooth="yes"/>
      <point x="202" y="40"/>
      <point x="210" y="35"/>
      <point x="210" y="29" type="curve" smooth="yes"/>
    </contour>
  </outline>
</glyph>
<glyph name="m" format="2">
  <advance width="465"/>
  <unicode hex="006D"/>
  <outline>
    <contour>
      <point x="17" y="-42" type="curve" smooth="yes"/>
      <point x="20" y="-42"/>
      <point x="23" y="-39"/>
      <point x="29" y="-34" type="curve"/>
      <point x="46" y="-14" type="line" smooth="yes"/>
      <point x="58" y="0"/>
      <point x="66" y="6"/>
      <point x="72" y="6" type="curve" smooth="yes"/>
      <point x="78" y="6"/>
      <point x="83" y="-1"/>
      <point x="92" y="-14" type="curve"/>
      <point x="134" y="-80" type="line" smooth="yes"/>
      <point x="145" y="-97"/>
      <point x="150" y="-105"/>
      <point x="156" y="-105" type="curve" smooth="yes"/>
      <point x="162" y="-105"/>
      <point x="167" y="-98"/>
      <point x="180" y="-83" type="curve" smooth="yes"/>
      <point x="242" y="-14" type="line" smooth="yes"/>
      <point x="254" y="0"/>
      <point x="262" y="6"/>
      <point x="268" y="6" type="curve" smooth="yes"/>
      <point x="274" y="6"/>
      <point x="280" y="-2"/>
      <point x="290" y="-17" type="curve" smooth="yes"/>
      <point x="328" y="-77" type="line" smooth="yes"/>
      <point x="340" y="-95"/>
      <point x="346" y="-104"/>
      <point x="352" y="-104" type="curve" smooth="yes"/>
      <point x="358" y="-104"/>
      <point x="366" y="-94"/>
      <point x="380" y="-78" type="curve" smooth="yes"/>
      <point x="457" y="7" type="line"/>
      <point x="462" y="14"/>
      <point x="465" y="18"/>
      <point x="465" y="22" type="curve" smooth="yes"/>
      <point x="465" y="29"/>
      <point x="457" y="42"/>
      <point x="452" y="42" type="curve" smooth="yes"/>
      <point x="450" y="42"/>
      <point x="446" y="40"/>
      <point x="442" y="35" type="curve" smooth="yes"/>
      <point x="426" y="18" type="line" smooth="yes"/>
      <point x="411" y="2"/>
      <point x="403" y="-6"/>
      <point x="397" y="-6" type="curve" smooth="yes"/>
      <point x="390" y="-6"/>
      <point x="386" y="1"/>
      <point x="377" y="14" type="curve"/>
      <point x="334" y="82" type="line"/>
      <point x="323" y="98"/>
      <point x="318" y="106"/>
      <point x="313" y="106" type="curve" smooth="yes"/>
      <point x="308" y="106"/>
      <point x="302" y="98"/>
      <point x="290" y="85" type="curve" smooth="yes"/>
      <point x="230" y="18" type="line" smooth="yes"/>
      <point x="217" y="3"/>
      <point x="209" y="-4"/>
      <point x="201" y="-4" type="curve" smooth="yes"/>
      <point x="194" y="-4"/>
      <point x="188" y="2"/>
      <point x="179" y="16" type="curve" smooth="yes"/>
      <point x="140" y="78" type="line" smooth="yes"/>
      <point x="129" y="96"/>
      <point x="124" y="105"/>
      <point x="118" y="105" type="curve" smooth="yes"/>
      <point x="113" y="105"/>
      <point x="106" y="98"/>
      <point x="95" y="86" type="curve" smooth="yes"/>
      <point x="11" y="-9" type="line" smooth="yes"/>
      <point x="6" y="-14"/>
      <point x="3" y="-18"/>
      <point x="3" y="-22" type="curve" smooth="yes"/>
      <point x="3" y="-28"/>
      <point x="12" y="-42"/>
    </contour>
  </outline>
</glyph>
<glyph name="n" format="2">
  <advance width="145"/>
  <unicode hex="006E"/>
  <outline>
    <contour>
      <point x="0" y="-158" type="line"/>
      <point x="95" y="-130" type="line"/>
      <point x="97" y="-130"/>
      <point x="98" y="-129"/>
      <point x="99" y="-129" type="curve"/>
      <point x="107" y="-129"/>
      <point x="114" y="-137"/>
      <point x="114" y="-143" type="curve" smooth="yes"/>
      <point x="114" y="-272" type="line"/>
      <point x="145" y="-272" type="line"/>
      <point x="145" y="150" type="line"/>
      <point x="46" y="121" type="line"/>
      <point x="40" y="118"/>
      <point x="30" y="126"/>
      <point x="30" y="134" type="curve" smooth="yes"/>
      <point x="30" y="272" type="line"/>
      <point x="0" y="272" type="line"/>
    </contour>
    <contour>
      <point x="104" y="64" type="line" smooth="yes"/>
      <point x="111" y="66"/>
      <point x="121" y="62"/>
      <point x="121" y="53" type="curve" smooth="yes"/>
      <point x="121" y="-49" type="line"/>
      <point x="40" y="-72" type="line" smooth="yes"/>
      <point x="33" y="-74"/>
      <point x="24" y="-70"/>
      <point x="24" y="-60" type="curve" smooth="yes"/>
      <point x="24" y="41" type="line"/>
    </contour>
  </outline>
</glyph>
<glyph name="o" format="2">
  <advance width="147"/>
  <unicode hex="006F"/>
  <outline>
    <contour>
      <point x="0" y="0" type="curve" smooth="yes"/>
      <point x="0" y="-38"/>
      <point x="31" y="-74"/>
      <point x="74" y="-74" type="curve" smooth="yes"/>
      <point x="112" y="-74"/>
      <point x="147" y="-42"/>
      <point x="147" y="0" type="curve" smooth="yes"/>
      <point x="147" y="38"/>
      <point x="116" y="74"/>
      <point x="74" y="74" type="curve" smooth="yes"/>
      <point x="35" y="74"/>
      <point x="0" y="42"/>
    </contour>
    <contour>
      <point x="26" y="0" type="curve" smooth="yes"/>
      <point x="26" y="28"/>
      <point x="48" y="48"/>
      <point x="74" y="48" type="curve" smooth="yes"/>
      <point x="102" y="48"/>
      <point x="122" y="26"/>
      <point x="122" y="0" type="curve" smooth="yes"/>
      <point x="122" y="-28"/>
      <point x="99" y="-48"/>
      <point x="74" y="-48" type="curve" smooth="yes"/>
      <point x="46" y="-48"/>
      <point x="26" y="-26"/>
    </contour>
  </outline>
</glyph>
<glyph name="p" format="2">
  <advance width="330"/>
  <unicode hex="0070"/>
  <outline>
    <contour>
      <point x="-70" y="-133" type="curve" smooth="yes"/>
      <point x="-70" y="-138"/>
      <point x="-68" y="-142"/>
      <point x="-58" y="-142" type="curve" smooth="yes"/>
      <point x="152" y="-142" type="line" smooth="yes"/>
      <point x="162" y="-142"/>
      <point x="170" y="-139"/>
      <point x="170" y="-126" type="curve" smooth="yes"/>
      <point x="170" y="-118"/>
      <point x="162" y="-117"/>
      <point x="155" y="-117" type="curve" smooth="yes"/>
      <point x="114" y="-117" type="line" smooth="yes"/>
      <point x="98" y="-117"/>
      <point x="93" y="-112"/>
      <point x="93" y="-105" type="curve" smooth="yes"/>
      <point x="93" y="-101"/>
      <point x="94" y="-96"/>
      <point x="96" y="-90" type="curve" smooth="yes"/>
      <point x="120" y="-18" type="line" smooth="yes"/>
      <point x="124" y="-5"/>
      <point x="132" y="1"/>
      <point x="138" y="1" type="curve" smooth="yes"/>
      <point x="154" y="1"/>
      <point x="156" y="-20"/>
      <point x="198" y="-20" type="curve" smooth="yes"/>
      <point x="272" y="-20"/>
      <point x="330" y="63"/>
      <point x="330" y="135" type="curve" smooth="yes"/>
      <point x="330" y="192"/>
      <point x="310" y="221"/>
      <point x="269" y="221" type="curve" smooth="yes"/>
      <point x="225" y="221"/>
      <point x="204" y="194"/>
      <point x="189" y="194" type="curve" smooth="yes"/>
      <point x="171" y="194"/>
      <point x="168" y="221"/>
      <point x="140" y="221" type="curve" smooth="yes"/>
      <point x="79" y="221"/>
      <point x="12" y="149"/>
      <point x="1" y="91" type="curve"/>
      <point x="0" y="89"/>
      <point x="0" y="86"/>
      <point x="0" y="85" type="curve"/>
      <point x="0" y="77"/>
      <point x="4" y="73"/>
      <point x="8" y="73" type="curve" smooth="yes"/>
      <point x="13" y="73"/>
      <point x="18" y="78"/>
      <point x="22" y="85" type="curve"/>
      <point x="45" y="146"/>
      <point x="82" y="171"/>
      <point x="96" y="171" type="curve" smooth="yes"/>
      <point x="102" y="171"/>
      <point x="104" y="167"/>
      <point x="104" y="161" type="curve" smooth="yes"/>
      <point x="104" y="151"/>
      <point x="98" y="134"/>
      <point x="91" y="114" type="curve" smooth="yes"/>
      <point x="23" y="-78" type="line" smooth="yes"/>
      <point x="14" y="-104"/>
      <point x="2" y="-117"/>
      <point x="-17" y="-117" type="curve" smooth="yes"/>
      <point x="-50" y="-117" type="line" smooth="yes"/>
      <point x="-64" y="-117"/>
      <point x="-70" y="-120"/>
    </contour>
    <contour>
      <point x="248" y="194" type="curve" smooth="yes"/>
      <point x="258" y="194"/>
      <point x="263" y="187"/>
      <point x="263" y="175" type="curve" smooth="yes"/>
      <point x="263" y="162"/>
      <point x="257" y="138"/>
      <point x="246" y="105" type="curve" smooth="yes"/>
      <point x="227" y="44"/>
      <point x="211" y="6"/>
      <point x="187" y="6" type="curve" smooth="yes"/>
      <point x="170" y="6"/>
      <point x="162" y="21"/>
      <point x="162" y="46" type="curve" smooth="yes"/>
      <point x="162" y="99"/>
      <point x="202" y="194"/>
    </contour>
  </outline>
</glyph>
<glyph name="q" format="2">
  <advance width="262"/>
  <unicode hex="0071"/>
  <outline>
    <contour>
      <point x="76" y="81" type="curve" smooth="yes"/>
      <point x="37" y="54"/>
      <point x="0" y="5"/>
      <point x="0" y="-40" type="curve" smooth="yes"/>
      <point x="0" y="-54"/>
      <point x="3" y="-68"/>
      <point x="12" y="-80" type="curve"/>
      <point x="27" y="-104"/>
      <point x="54" y="-113"/>
      <point x="84" y="-113" type="curve" smooth="yes"/>
      <point x="118" y="-113"/>
      <point x="157" y="-100"/>
      <point x="185" y="-81" type="curve" smooth="yes"/>
      <point x="224" y="-54"/>
      <point x="261" y="-6"/>
      <point x="261" y="39" type="curve"/>
      <point x="262" y="253"/>
      <point x="261" y="466"/>
      <point x="261" y="680" type="curve"/>
      <point x="240" y="680" type="line"/>
      <point x="240" y="103" type="line" smooth="yes"/>
      <point x="240" y="101"/>
      <point x="233" y="98"/>
      <point x="230" y="99" type="curve"/>
      <point x="215" y="109"/>
      <point x="197" y="113"/>
      <point x="177" y="113" type="curve" smooth="yes"/>
      <point x="142" y="113"/>
      <point x="104" y="100"/>
    </contour>
  </outline>
</glyph>
<glyph name="r" format="2">
  <advance width="230"/>
  <unicode hex="0072"/>
  <outline>
    <contour>
      <point x="0" y="0" type="line"/>
      <point x="0" y="0"/>
      <point x="20" y="0"/>
      <point x="20" y="0" type="curve"/>
      <point x="20" y="5"/>
      <point x="26" y="10"/>
      <point x="33" y="10" type="curve" smooth="yes"/>
      <point x="60" y="10"/>
      <point x="94" y="2"/>
      <point x="118" y="-12" type="curve" smooth="yes"/>
      <point x="173" y="-42"/>
      <point x="203" y="-90"/>
      <point x="203" y="-173" type="curve" smooth="yes"/>
      <point x="203" y="-210"/>
      <point x="171" y="-352"/>
      <point x="164" y="-370" type="curve" smooth="yes"/>
      <point x="162" y="-374"/>
      <point x="162" y="-378"/>
      <point x="162" y="-381" type="curve" smooth="yes"/>
      <point x="162" y="-389"/>
      <point x="166" y="-394"/>
      <point x="171" y="-394" type="curve" smooth="yes"/>
      <point x="177" y="-394"/>
      <point x="183" y="-389"/>
      <point x="188" y="-378" type="curve"/>
      <point x="194" y="-361"/>
      <point x="230" y="-214"/>
      <point x="230" y="-174" type="curve" smooth="yes"/>
      <point x="230" y="-125"/>
      <point x="223" y="-86"/>
      <point x="207" y="-54" type="curve"/>
      <point x="214" y="-35"/>
      <point x="220" y="-11"/>
      <point x="220" y="18" type="curve" smooth="yes"/>
      <point x="220" y="112"/>
      <point x="164" y="182"/>
      <point x="101" y="231" type="curve" smooth="yes"/>
      <point x="50" y="272"/>
      <point x="21" y="302"/>
      <point x="21" y="341" type="curve"/>
      <point x="21" y="341"/>
      <point x="0" y="341"/>
      <point x="0" y="341" type="curve"/>
    </contour>
    <contour>
      <point x="189" y="-22" type="curve"/>
      <point x="146" y="38"/>
      <point x="84" y="74"/>
      <point x="50" y="112" type="curve" smooth="yes"/>
      <point x="39" y="125"/>
      <point x="25" y="149"/>
      <point x="22" y="178" type="curve"/>
      <point x="23" y="182"/>
      <point x="28" y="184"/>
      <point x="34" y="184" type="curve" smooth="yes"/>
      <point x="54" y="184"/>
      <point x="78" y="178"/>
      <point x="97" y="169" type="curve" smooth="yes"/>
      <point x="166" y="136"/>
      <point x="194" y="77"/>
      <point x="194" y="18" type="curve" smooth="yes"/>
      <point x="194" y="4"/>
      <point x="191" y="-10"/>
    </contour>
  </outline>
</glyph>
<glyph name="s" format="2">
  <advance width="177"/>
  <unicode hex="0073"/>
  <outline>
    <contour>
      <point x="111" y="181" type="curve" smooth="yes"/>
      <point x="128" y="181"/>
      <point x="134" y="175"/>
      <point x="134" y="170" type="curve" smooth="yes"/>
      <point x="134" y="162"/>
      <point x="125" y="159"/>
      <point x="125" y="145" type="curve" smooth="yes"/>
      <point x="125" y="131"/>
      <point x="137" y="123"/>
      <point x="149" y="123" type="curve" smooth="yes"/>
      <point x="162" y="123"/>
      <point x="177" y="134"/>
      <point x="177" y="154" type="curve" smooth="yes"/>
      <point x="177" y="185"/>
      <point x="149" y="203"/>
      <point x="114" y="203" type="curve" smooth="yes"/>
      <point x="73" y="203"/>
      <point x="34" y="178"/>
      <point x="34" y="138" type="curve" smooth="yes"/>
      <point x="34" y="112"/>
      <point x="53" y="99"/>
      <point x="78" y="88" type="curve" smooth="yes"/>
      <point x="104" y="76"/>
      <point x="114" y="65"/>
      <point x="114" y="48" type="curve" smooth="yes"/>
      <point x="114" y="30"/>
      <point x="97" y="17"/>
      <point x="74" y="17" type="curve" smooth="yes"/>
      <point x="59" y="17"/>
      <point x="45" y="19"/>
      <point x="45" y="29" type="curve" smooth="yes"/>
      <point x="45" y="39"/>
      <point x="57" y="41"/>
      <point x="57" y="57" type="curve" smooth="yes"/>
      <point x="57" y="70"/>
      <point x="46" y="80"/>
      <point x="32" y="80" type="curve" smooth="yes"/>
      <point x="13" y="80"/>
      <point x="0" y="63"/>
      <point x="0" y="42" type="curve" smooth="yes"/>
      <point x="0" y="9"/>
      <point x="32" y="-6"/>
      <point x="70" y="-6" type="curve" smooth="yes"/>
      <point x="116" y="-6"/>
      <point x="155" y="19"/>
      <point x="155" y="63" type="curve" smooth="yes"/>
      <point x="155" y="97"/>
      <point x="131" y="110"/>
      <point x="103" y="123" type="curve" smooth="yes"/>
      <point x="86" y="131"/>
      <point x="70" y="138"/>
      <point x="70" y="153" type="curve" smooth="yes"/>
      <point x="70" y="172"/>
      <point x="95" y="181"/>
    </contour>
  </outline>
</glyph>
<glyph name="t" format="2">
  <advance width="545"/>
  <unicode hex="0074"/>
  <outline>
    <contour>
      <point x="90" y="105" type="curve" smooth="yes"/>
      <point x="80" y="105"/>
      <point x="69" y="102"/>
      <point x="62" y="99" type="curve"/>
      <point x="61" y="99"/>
      <point x="60" y="102"/>
      <point x="60" y="106" type="curve"/>
      <point x="60" y="106" type="line"/>
      <point x="80" y="148"/>
      <point x="123" y="159"/>
      <point x="182" y="159" type="curve" smooth="yes"/>
      <point x="275" y="159"/>
      <point x="319" y="91"/>
      <point x="319" y="-25" type="curve" smooth="yes"/>
      <point x="319" y="-263"/>
      <point x="208" y="-414"/>
      <point x="14" y="-462" type="curve"/>
      <point x="14" y="-462"/>
      <point x="6" y="-472"/>
      <point x="6" y="-478" type="curve" smooth="yes"/>
      <point x="6" y="-482"/>
      <point x="17" y="-491"/>
      <point x="17" y="-491" type="curve"/>
      <point x="198" y="-466"/>
      <point x="418" y="-281"/>
      <point x="418" y="-40" type="curve" smooth="yes"/>
      <point x="418" y="109"/>
      <point x="334" y="202"/>
      <point x="196" y="202" type="curve" smooth="yes"/>
      <point x="79" y="202"/>
      <point x="0" y="132"/>
      <point x="0" y="35" type="curve" smooth="yes"/>
      <point x="0" y="-42"/>
      <point x="42" y="-87"/>
      <point x="90" y="-87" type="curve" smooth="yes"/>
      <point x="138" y="-87"/>
      <point x="174" y="-45"/>
      <point x="174" y="9" type="curve" smooth="yes"/>
      <point x="174" y="62"/>
      <point x="138" y="105"/>
    </contour>
    <contour>
      <point x="458" y="102" type="curve" smooth="yes"/>
      <point x="458" y="78"/>
      <point x="478" y="59"/>
      <point x="502" y="59" type="curve" smooth="yes"/>
      <point x="524" y="59"/>
      <point x="545" y="78"/>
      <point x="545" y="102" type="curve" smooth="yes"/>
      <point x="545" y="126"/>
      <point x="524" y="146"/>
      <point x="502" y="146" type="curve" smooth="yes"/>
      <point x="478" y="146"/>
      <point x="458" y="126"/>
    </contour>
    <contour>
      <point x="458" y="-96" type="curve" smooth="yes"/>
      <point x="458" y="-120"/>
      <point x="478" y="-139"/>
      <point x="502" y="-139" type="curve" smooth="yes"/>
      <point x="524" y="-139"/>
      <point x="545" y="-120"/>
      <point x="545" y="-96" type="curve" smooth="yes"/>
      <point x="545" y="-72"/>
      <point x="524" y="-53"/>
      <point x="502" y="-53" type="curve" smooth="yes"/>
      <point x="478" y="-53"/>
      <point x="458" y="-72"/>
    </contour>
    <contour>
      <point x="338" y="-450" type="curve" smooth="yes"/>
      <point x="338" y="-421"/>
      <point x="312" y="-402"/>
      <point x="284" y="-402" type="curve" smooth="yes"/>
      <point x="255" y="-402"/>
      <point x="225" y="-420"/>
      <point x="225" y="-452" type="curve" smooth="yes"/>
      <point x="225" y="-462"/>
      <point x="229" y="-471"/>
      <point x="234" y="-480" type="curve" smooth="yes"/>
      <point x="236" y="-485"/>
      <point x="238" y="-488"/>
      <point x="238" y="-490" type="curve"/>
      <point x="238" y="-491"/>
      <point x="236" y="-493"/>
      <point x="231" y="-496" type="curve" smooth="yes"/>
      <point x="211" y="-510"/>
      <point x="201" y="-526"/>
      <point x="201" y="-543" type="curve" smooth="yes"/>
      <point x="201" y="-574"/>
      <point x="229" y="-594"/>
      <point x="258" y="-594" type="curve" smooth="yes"/>
      <point x="290" y="-594"/>
      <point x="325" y="-572"/>
      <point x="325" y="-538" type="curve" smooth="yes"/>
      <point x="325" y="-528"/>
      <point x="322" y="-518"/>
      <point x="317" y="-510" type="curve"/>
      <point x="315" y="-506" type="line" smooth="yes"/>
      <point x="313" y="-502"/>
      <point x="311" y="-500"/>
      <point x="311" y="-498" type="curve" smooth="yes"/>
      <point x="311" y="-495"/>
      <point x="314" y="-492"/>
      <point x="322" y="-484" type="curve" smooth="yes"/>
      <point x="332" y="-474"/>
      <point x="338" y="-462"/>
    </contour>
    <contour>
      <point x="289" y="-477" type="curve" smooth="yes"/>
      <point x="274" y="-477"/>
      <point x="258" y="-456"/>
      <point x="258" y="-442" type="curve" smooth="yes"/>
      <point x="258" y="-430"/>
      <point x="273" y="-424"/>
      <point x="284" y="-424" type="curve" smooth="yes"/>
      <point x="300" y="-424"/>
      <point x="314" y="-434"/>
      <point x="314" y="-450" type="curve" smooth="yes"/>
      <point x="314" y="-462"/>
      <point x="302" y="-477"/>
    </contour>
    <contour>
      <point x="290" y="-549" type="curve" smooth="yes"/>
      <point x="290" y="-566"/>
      <point x="273" y="-571"/>
      <point x="259" y="-571" type="curve" smooth="yes"/>
      <point x="242" y="-571"/>
      <point x="226" y="-562"/>
      <point x="226" y="-542" type="curve" smooth="yes"/>
      <point x="226" y="-529"/>
      <point x="242" y="-510"/>
      <point x="257" y="-510" type="curve" smooth="yes"/>
      <point x="274" y="-510"/>
      <point x="290" y="-533"/>
    </contour>
  </outline>
</glyph>
<glyph name="u" format="2">
  <advance width="480"/>
  <unicode hex="0075"/>
  <outline>
    <contour>
      <point x="0" y="41" type="line"/>
      <point x="0" y="-122"/>
      <point x="98" y="-254"/>
      <point x="240" y="-254" type="curve" smooth="yes"/>
      <point x="383" y="-254"/>
      <point x="480" y="-122"/>
      <point x="480" y="41" type="curve"/>
      <point x="460" y="41" type="line"/>
      <point x="460" y="-54"/>
      <point x="410" y="-158"/>
      <point x="240" y="-158" type="curve" smooth="yes"/>
      <point x="70" y="-158"/>
      <point x="20" y="-54"/>
      <point x="20" y="41" type="curve"/>
    </contour>
    <contour>
      <point x="295" y="-15" type="curve" smooth="yes"/>
      <point x="295" y="15"/>
      <point x="270" y="40"/>
      <point x="240" y="40" type="curve" smooth="yes"/>
      <point x="210" y="40"/>
      <point x="185" y="15"/>
      <point x="185" y="-15" type="curve" smooth="yes"/>
      <point x="185" y="-46"/>
      <point x="210" y="-70"/>
      <point x="240" y="-70" type="curve" smooth="yes"/>
      <point x="270" y="-70"/>
      <point x="295" y="-46"/>
    </contour>
  </outline>
</glyph>
<glyph name="v" format="2">
  <advance width="234"/>
  <unicode hex="0076"/>
  <outline>
    <contour>
      <point x="218" y="251" type="curve" smooth="yes"/>
      <point x="214" y="251"/>
      <point x="212" y="249"/>
      <point x="210" y="243" type="curve"/>
      <point x="153" y="123" type="line" smooth="yes"/>
      <point x="148" y="113"/>
      <point x="143" y="106"/>
      <point x="138" y="106" type="curve" smooth="yes"/>
      <point x="134" y="106"/>
      <point x="130" y="112"/>
      <point x="125" y="124" type="curve"/>
      <point x="74" y="232" type="line" smooth="yes"/>
      <point x="69" y="243"/>
      <point x="66" y="247"/>
      <point x="52" y="247" type="curve" smooth="yes"/>
      <point x="11" y="247" type="line" smooth="yes"/>
      <point x="3" y="247"/>
      <point x="0" y="246"/>
      <point x="0" y="241" type="curve" smooth="yes"/>
      <point x="0" y="238"/>
      <point x="1" y="234"/>
      <point x="2" y="230" type="curve"/>
      <point x="102" y="18" type="line" smooth="yes"/>
      <point x="108" y="6"/>
      <point x="111" y="0"/>
      <point x="116" y="0" type="curve" smooth="yes"/>
      <point x="120" y="0"/>
      <point x="124" y="6"/>
      <point x="130" y="18" type="curve" smooth="yes"/>
      <point x="231" y="235" type="line" smooth="yes"/>
      <point x="233" y="238"/>
      <point x="234" y="240"/>
      <point x="234" y="242" type="curve" smooth="yes"/>
      <point x="234" y="246"/>
      <point x="224" y="251"/>
    </contour>
  </outline>
</glyph>
<glyph name="w" format="2">
  <advance width="330"/>
  <unicode hex="0077"/>
  <outline>
    <contour>
      <point x="0" y="-2" type="curve" smooth="yes"/>
      <point x="0" y="-80"/>
      <point x="96" y="-104"/>
      <point x="161" y="-104" type="curve" smooth="yes"/>
      <point x="227" y="-104"/>
      <point x="330" y="-79"/>
      <point x="330" y="2" type="curve" smooth="yes"/>
      <point x="330" y="80"/>
      <point x="234" y="104"/>
      <point x="169" y="104" type="curve" smooth="yes"/>
      <point x="102" y="104"/>
      <point x="0" y="79"/>
    </contour>
    <contour>
      <point x="151" y="83" type="curve" smooth="yes"/>
      <point x="210" y="83"/>
      <point x="218" y="49"/>
      <point x="231" y="3" type="curve" smooth="yes"/>
      <point x="235" y="-10"/>
      <point x="239" y="-25"/>
      <point x="239" y="-39" type="curve" smooth="yes"/>
      <point x="239" y="-70"/>
      <point x="212" y="-83"/>
      <point x="180" y="-83" type="curve" smooth="yes"/>
      <point x="123" y="-83"/>
      <point x="113" y="-50"/>
      <point x="99" y="-6" type="curve" smooth="yes"/>
      <point x="94" y="9"/>
      <point x="90" y="24"/>
      <point x="90" y="38" type="curve" smooth="yes"/>
      <point x="90" y="71"/>
      <point x="118" y="83"/>
    </contour>
  </outline>
</glyph>
<glyph name="x" format="2">
  <advance width="460"/>
  <unicode hex="0078"/>
  <outline>
    <contour>
      <point x="76" y="81" type="curve" smooth="yes"/>
      <point x="37" y="54"/>
      <point x="0" y="5"/>
      <point x="0" y="-40" type="curve" smooth="yes"/>
      <point x="0" y="-54"/>
      <point x="3" y="-68"/>
      <point x="12" y="-80" type="curve"/>
      <point x="27" y="-104"/>
      <point x="54" y="-113"/>
      <point x="84" y="-113" type="curve" smooth="yes"/>
      <point x="118" y="-113"/>
      <point x="157" y="-100"/>
      <point x="185" y="-81" type="curve" smooth="yes"/>
      <point x="224" y="-54"/>
      <point x="260" y="-6"/>
      <point x="261" y="39" type="curve"/>
      <point x="261" y="346" type="line" smooth="yes"/>
      <point x="261" y="350"/>
      <point x="266" y="356"/>
      <point x="274" y="356" type="curve" smooth="yes"/>
      <point x="377" y="356"/>
      <point x="434" y="254"/>
      <point x="434" y="157" type="curve" smooth="yes"/>
      <point x="434" y="87"/>
      <point x="411" y="30"/>
      <point x="398" y="0" type="curve"/>
      <point x="422" y="-9" type="line"/>
      <point x="435" y="15"/>
      <point x="460" y="86"/>
      <point x="460" y="156" type="curve" smooth="yes"/>
      <point x="460" y="201"/>
      <point x="454" y="239"/>
      <point x="442" y="273" type="curve"/>
      <point x="451" y="292"/>
      <point x="460" y="321"/>
      <point x="460" y="357" type="curve" smooth="yes"/>
      <point x="460" y="451"/>
      <point x="404" y="520"/>
      <point x="341" y="570" type="curve" smooth="yes"/>
      <point x="290" y="610"/>
      <point x="262" y="642"/>
      <point x="262" y="680" type="curve"/>
      <point x="240" y="680" type="line"/>
      <point x="240" y="103" type="line" smooth="yes"/>
      <point x="240" y="101"/>
      <point x="233" y="98"/>
      <point x="230" y="99" type="curve"/>
      <point x="215" y="109"/>
      <point x="197" y="113"/>
      <point x="177" y="113" type="curve" smooth="yes"/>
      <point x="142" y="113"/>
      <point x="104" y="100"/>
    </contour>
    <contour>
      <point x="262" y="514" type="curve" smooth="yes"/>
      <point x="262" y="518"/>
      <point x="267" y="523"/>
      <point x="274" y="523" type="curve" smooth="yes"/>
      <point x="294" y="523"/>
      <point x="318" y="517"/>
      <point x="337" y="508" type="curve" smooth="yes"/>
      <point x="406" y="475"/>
      <point x="434" y="416"/>
      <point x="434" y="358" type="curve" smooth="yes"/>
      <point x="434" y="339"/>
      <point x="430" y="322"/>
      <point x="426" y="308" type="curve"/>
      <point x="406" y="346"/>
      <point x="378" y="378"/>
      <point x="341" y="406" type="curve" smooth="yes"/>
      <point x="294" y="442"/>
      <point x="262" y="482"/>
    </contour>
  </outline>
</glyph>
<glyph name="y" format="2">
  <advance width="248"/>
  <unicode hex="0079"/>
  <outline>
    <contour>
      <point x="248" y="-104" type="line"/>
      <point x="124" y="110" type="line"/>
      <point x="0" y="-104" type="line"/>
    </contour>
    <contour>
      <point x="115" y="44" type="line" smooth="yes"/>
      <point x="119" y="50"/>
      <point x="130" y="49"/>
      <point x="132" y="45" type="curve" smooth="yes"/>
      <point x="194" y="-63" type="line" smooth="yes"/>
      <point x="196" y="-66"/>
      <point x="194" y="-78"/>
      <point x="187" y="-78" type="curve" smooth="yes"/>
      <point x="59" y="-78" type="line" smooth="yes"/>
      <point x="55" y="-78"/>
      <point x="50" y="-70"/>
      <point x="53" y="-64" type="curve" smooth="yes"/>
    </contour>
  </outline>
</glyph>
<glyph name="z" format="2">
  <advance width="220"/>
  <unicode hex="007A"/>
  <outline>
    <contour>
      <point x="10" y="-3" type="curve" smooth="yes"/>
      <point x="13" y="-3"/>
      <point x="15" y="-2"/>
      <point x="18" y="0" type="curve" smooth="yes"/>
      <point x="27" y="7"/>
      <point x="44" y="23"/>
      <point x="62" y="23" type="curve" smooth="yes"/>
      <point x="89" y="23"/>
      <point x="99" y="-10"/>
      <point x="129" y="-10" type="curve" smooth="yes"/>
      <point x="163" y="-10"/>
      <point x="193" y="17"/>
      <point x="193" y="54" type="curve" smooth="yes"/>
      <point x="193" y="77"/>
      <point x="180" y="93"/>
      <point x="158" y="93" type="curve" smooth="yes"/>
      <point x="149" y="93"/>
      <point x="142" y="86"/>
      <point x="142" y="76" type="curve" smooth="yes"/>
      <point x="142" y="68"/>
      <point x="148" y="62"/>
      <point x="157" y="59" type="curve" smooth="yes"/>
      <point x="165" y="56"/>
      <point x="169" y="50"/>
      <point x="169" y="45" type="curve" smooth="yes"/>
      <point x="169" y="36"/>
      <point x="161" y="28"/>
      <point x="146" y="28" type="curve" smooth="yes"/>
      <point x="137" y="28"/>
      <point x="89" y="46"/>
      <point x="89" y="57" type="curve" smooth="yes"/>
      <point x="89" y="61"/>
      <point x="93" y="66"/>
      <point x="99" y="72" type="curve" smooth="yes"/>
      <point x="126" y="98" type="line" smooth="yes"/>
      <point x="142" y="113"/>
      <point x="158" y="127"/>
      <point x="175" y="141" type="curve"/>
      <point x="205" y="163"/>
      <point x="220" y="178"/>
      <point x="220" y="186" type="curve" smooth="yes"/>
      <point x="220" y="190"/>
      <point x="216" y="194"/>
      <point x="207" y="194" type="curve" smooth="yes"/>
      <point x="190" y="194"/>
      <point x="182" y="190"/>
      <point x="150" y="190" type="curve" smooth="yes"/>
      <point x="127" y="190"/>
      <point x="104" y="198"/>
      <point x="82" y="198" type="curve" smooth="yes"/>
      <point x="73" y="198"/>
      <point x="70" y="191"/>
      <point x="66" y="181" type="curve" smooth="yes"/>
      <point x="50" y="141" type="line" smooth="yes"/>
      <point x="48" y="136"/>
      <point x="47" y="132"/>
      <point x="47" y="130" type="curve" smooth="yes"/>
      <point x="47" y="124"/>
      <point x="50" y="122"/>
      <point x="53" y="122" type="curve" smooth="yes"/>
      <point x="57" y="122"/>
      <point x="62" y="126"/>
      <point x="67" y="133" type="curve" smooth="yes"/>
      <point x="79" y="152"/>
      <point x="86" y="157"/>
      <point x="96" y="157" type="curve" smooth="yes"/>
      <point x="103" y="157"/>
      <point x="113" y="154"/>
      <point x="128" y="154" type="curve"/>
      <point x="134" y="153"/>
      <point x="137" y="150"/>
      <point x="137" y="146" type="curve" smooth="yes"/>
      <point x="137" y="142"/>
      <point x="134" y="137"/>
      <point x="128" y="131" type="curve" smooth="yes"/>
      <point x="98" y="97"/>
      <point x="66" y="70"/>
      <point x="36" y="44" type="curve" smooth="yes"/>
      <point x="9" y="21" type="line" smooth="yes"/>
      <point x="3" y="16"/>
      <point x="2" y="10"/>
      <point x="2" y="7" type="curve" smooth="yes"/>
      <point x="2" y="2"/>
      <point x="5" y="-3"/>
    </contour>
  </outline>
</glyph>
<glyph name="braceleft" format="2">
  <advance width="302"/>
  <unicode hex="007B"/>
  <outline>
    <contour>
      <point x="139" y="-76" type="line" smooth="yes"/>
      <point x="179" y="-43"/>
      <point x="238" y="-14"/>
      <point x="238" y="38" type="curve" smooth="yes"/>
      <point x="238" y="73"/>
      <point x="214" y="91"/>
      <point x="186" y="91" type="curve" smooth="yes"/>
      <point x="170" y="91"/>
      <point x="159" y="86"/>
      <point x="152" y="86" type="curve" smooth="yes"/>
      <point x="147" y="86"/>
      <point x="138" y="92"/>
      <point x="138" y="97" type="curve" smooth="yes"/>
      <point x="138" y="272" type="line"/>
      <point x="104" y="272" type="line"/>
      <point x="104" y="-93" type="line" smooth="yes"/>
      <point x="104" y="-103"/>
      <point x="105" y="-104"/>
      <point x="112" y="-98" type="curve" smooth="yes"/>
    </contour>
    <contour>
      <point x="224" y="162" type="line"/>
      <point x="243" y="134"/>
      <point x="281" y="81"/>
      <point x="281" y="-2" type="curve" smooth="yes"/>
      <point x="281" y="-83"/>
      <point x="242" y="-134"/>
      <point x="224" y="-162" type="curve"/>
      <point x="234" y="-171" type="line"/>
      <point x="280" y="-124"/>
      <point x="302" y="-65"/>
      <point x="302" y="0" type="curve" smooth="yes"/>
      <point x="302" y="86"/>
      <point x="262" y="142"/>
      <point x="234" y="171" type="curve"/>
    </contour>
    <contour>
      <point x="22" y="2" type="curve" smooth="yes"/>
      <point x="22" y="83"/>
      <point x="59" y="134"/>
      <point x="78" y="162" type="curve"/>
      <point x="67" y="171" type="line"/>
      <point x="22" y="124"/>
      <point x="0" y="65"/>
      <point x="0" y="0" type="curve" smooth="yes"/>
      <point x="0" y="-86"/>
      <point x="39" y="-142"/>
      <point x="67" y="-171" type="curve"/>
      <point x="78" y="-162" type="line"/>
      <point x="58" y="-134"/>
      <point x="22" y="-81"/>
    </contour>
    <contour>
      <point x="159" y="68" type="curve" smooth="yes"/>
      <point x="177" y="68"/>
      <point x="188" y="51"/>
      <point x="188" y="24" type="curve" smooth="yes"/>
      <point x="188" y="-5"/>
      <point x="174" y="-26"/>
      <point x="139" y="-52" type="curve" smooth="yes"/>
      <point x="134" y="-55"/>
      <point x="125" y="-52"/>
      <point x="125" y="-46" type="curve" smooth="yes"/>
      <point x="125" y="42" type="line" smooth="yes"/>
      <point x="125" y="58"/>
      <point x="146" y="68"/>
    </contour>
  </outline>
</glyph>
<glyph name="bar" format="2">
  <advance width="387"/>
  <unicode hex="007C"/>
  <outline>
    <contour>
      <point x="19" y="219" type="line" smooth="yes"/>
      <point x="6" y="206"/>
      <point x="0" y="198"/>
      <point x="0" y="191" type="curve" smooth="yes"/>
      <point x="0" y="184"/>
      <point x="6" y="178"/>
      <point x="16" y="169" type="curve"/>
      <point x="168" y="16" type="line" smooth="yes"/>
      <point x="181" y="3"/>
      <point x="189" y="-2"/>
      <point x="196" y="-2" type="curve" smooth="yes"/>
      <point x="202" y="-2"/>
      <point x="208" y="2"/>
      <point x="217" y="11" type="curve" smooth="yes"/>
      <point x="362" y="157" type="line" smooth="yes"/>
      <point x="378" y="173"/>
      <point x="387" y="182"/>
      <point x="387" y="192" type="curve" smooth="yes"/>
      <point x="387" y="202"/>
      <point x="378" y="212"/>
      <point x="358" y="232" type="curve" smooth="yes"/>
      <point x="226" y="364" type="line"/>
      <point x="213" y="378"/>
      <point x="205" y="385"/>
      <point x="196" y="385" type="curve" smooth="yes"/>
      <point x="187" y="385"/>
      <point x="178" y="378"/>
      <point x="162" y="361" type="curve"/>
    </contour>
    <contour>
      <point x="150" y="312" type="line"/>
      <point x="162" y="323"/>
      <point x="171" y="330"/>
      <point x="180" y="330" type="curve" smooth="yes"/>
      <point x="189" y="330"/>
      <point x="198" y="325"/>
      <point x="208" y="314" type="curve" smooth="yes"/>
      <point x="312" y="209" type="line" smooth="yes"/>
      <point x="326" y="194"/>
      <point x="334" y="186"/>
      <point x="334" y="177" type="curve" smooth="yes"/>
      <point x="334" y="169"/>
      <point x="327" y="160"/>
      <point x="315" y="147" type="curve"/>
      <point x="242" y="74" type="line" smooth="yes"/>
      <point x="229" y="61"/>
      <point x="219" y="54"/>
      <point x="210" y="54" type="curve" smooth="yes"/>
      <point x="201" y="54"/>
      <point x="192" y="60"/>
      <point x="180" y="72" type="curve" smooth="yes"/>
      <point x="69" y="183" type="line" smooth="yes"/>
      <point x="60" y="192"/>
      <point x="56" y="199"/>
      <point x="56" y="206" type="curve" smooth="yes"/>
      <point x="56" y="214"/>
      <point x="61" y="222"/>
      <point x="70" y="230" type="curve"/>
    </contour>
  </outline>
</glyph>
